%TF.GenerationSoftware,KiCad,Pcbnew,6.0.7-f9a2dced07~116~ubuntu20.04.1*%
%TF.CreationDate,2023-02-02T12:23:22+01:00*%
%TF.ProjectId,MoleNet_V5.2.2,4d6f6c65-4e65-4745-9f56-352e322e322e,1*%
%TF.SameCoordinates,Original*%
%TF.FileFunction,Drillmap*%
%TF.FilePolarity,Positive*%
%FSLAX45Y45*%
G04 Gerber Fmt 4.5, Leading zero omitted, Abs format (unit mm)*
G04 Created by KiCad (PCBNEW 6.0.7-f9a2dced07~116~ubuntu20.04.1) date 2023-02-02 12:23:22*
%MOMM*%
%LPD*%
G01*
G04 APERTURE LIST*
%ADD10C,0.200000*%
%ADD11C,0.220000*%
G04 APERTURE END LIST*
D10*
X9329700Y-12375440D02*
X19829700Y-12375440D01*
X19829700Y-12375440D02*
X19829700Y-5875440D01*
X19829700Y-5875440D02*
X9329700Y-5875440D01*
X9329700Y-5875440D02*
X9329700Y-12375440D01*
D11*
X9539960Y-6085060D02*
X9759960Y-6305060D01*
X9759960Y-6085060D02*
X9539960Y-6305060D01*
X9539960Y-11944840D02*
X9759960Y-12164840D01*
X9759960Y-11944840D02*
X9539960Y-12164840D01*
X19400240Y-11947380D02*
X19620240Y-12167380D01*
X19620240Y-11947380D02*
X19400240Y-12167380D01*
X19400700Y-6087440D02*
X19620700Y-6307440D01*
X19620700Y-6087440D02*
X19400700Y-6307440D01*
D10*
X9577319Y-12695916D02*
X9577319Y-12495916D01*
X9624938Y-12495916D01*
X9653510Y-12505440D01*
X9672557Y-12524488D01*
X9682081Y-12543535D01*
X9691605Y-12581630D01*
X9691605Y-12610202D01*
X9682081Y-12648297D01*
X9672557Y-12667345D01*
X9653510Y-12686392D01*
X9624938Y-12695916D01*
X9577319Y-12695916D01*
X9777319Y-12695916D02*
X9777319Y-12562583D01*
X9777319Y-12600678D02*
X9786843Y-12581630D01*
X9796367Y-12572107D01*
X9815414Y-12562583D01*
X9834462Y-12562583D01*
X9901129Y-12695916D02*
X9901129Y-12562583D01*
X9901129Y-12495916D02*
X9891605Y-12505440D01*
X9901129Y-12514964D01*
X9910652Y-12505440D01*
X9901129Y-12495916D01*
X9901129Y-12514964D01*
X10024938Y-12695916D02*
X10005890Y-12686392D01*
X9996367Y-12667345D01*
X9996367Y-12495916D01*
X10129700Y-12695916D02*
X10110652Y-12686392D01*
X10101129Y-12667345D01*
X10101129Y-12495916D01*
X10358271Y-12695916D02*
X10358271Y-12495916D01*
X10424938Y-12638773D01*
X10491605Y-12495916D01*
X10491605Y-12695916D01*
X10672557Y-12695916D02*
X10672557Y-12591154D01*
X10663033Y-12572107D01*
X10643986Y-12562583D01*
X10605890Y-12562583D01*
X10586843Y-12572107D01*
X10672557Y-12686392D02*
X10653510Y-12695916D01*
X10605890Y-12695916D01*
X10586843Y-12686392D01*
X10577319Y-12667345D01*
X10577319Y-12648297D01*
X10586843Y-12629249D01*
X10605890Y-12619726D01*
X10653510Y-12619726D01*
X10672557Y-12610202D01*
X10767795Y-12562583D02*
X10767795Y-12762583D01*
X10767795Y-12572107D02*
X10786843Y-12562583D01*
X10824938Y-12562583D01*
X10843986Y-12572107D01*
X10853510Y-12581630D01*
X10863033Y-12600678D01*
X10863033Y-12657821D01*
X10853510Y-12676868D01*
X10843986Y-12686392D01*
X10824938Y-12695916D01*
X10786843Y-12695916D01*
X10767795Y-12686392D01*
X10948748Y-12676868D02*
X10958271Y-12686392D01*
X10948748Y-12695916D01*
X10939224Y-12686392D01*
X10948748Y-12676868D01*
X10948748Y-12695916D01*
X10948748Y-12572107D02*
X10958271Y-12581630D01*
X10948748Y-12591154D01*
X10939224Y-12581630D01*
X10948748Y-12572107D01*
X10948748Y-12591154D01*
X9119700Y-12925440D02*
X9319700Y-13125440D01*
X9319700Y-12925440D02*
X9119700Y-13125440D01*
X9567795Y-12934964D02*
X9577319Y-12925440D01*
X9596367Y-12915916D01*
X9643986Y-12915916D01*
X9663033Y-12925440D01*
X9672557Y-12934964D01*
X9682081Y-12954011D01*
X9682081Y-12973059D01*
X9672557Y-13001630D01*
X9558271Y-13115916D01*
X9682081Y-13115916D01*
X9767795Y-13096868D02*
X9777319Y-13106392D01*
X9767795Y-13115916D01*
X9758271Y-13106392D01*
X9767795Y-13096868D01*
X9767795Y-13115916D01*
X9853510Y-12934964D02*
X9863033Y-12925440D01*
X9882081Y-12915916D01*
X9929700Y-12915916D01*
X9948748Y-12925440D01*
X9958271Y-12934964D01*
X9967795Y-12954011D01*
X9967795Y-12973059D01*
X9958271Y-13001630D01*
X9843986Y-13115916D01*
X9967795Y-13115916D01*
X10091605Y-12915916D02*
X10110652Y-12915916D01*
X10129700Y-12925440D01*
X10139224Y-12934964D01*
X10148748Y-12954011D01*
X10158271Y-12992107D01*
X10158271Y-13039726D01*
X10148748Y-13077821D01*
X10139224Y-13096868D01*
X10129700Y-13106392D01*
X10110652Y-13115916D01*
X10091605Y-13115916D01*
X10072557Y-13106392D01*
X10063033Y-13096868D01*
X10053510Y-13077821D01*
X10043986Y-13039726D01*
X10043986Y-12992107D01*
X10053510Y-12954011D01*
X10063033Y-12934964D01*
X10072557Y-12925440D01*
X10091605Y-12915916D01*
X10282081Y-12915916D02*
X10301129Y-12915916D01*
X10320176Y-12925440D01*
X10329700Y-12934964D01*
X10339224Y-12954011D01*
X10348748Y-12992107D01*
X10348748Y-13039726D01*
X10339224Y-13077821D01*
X10329700Y-13096868D01*
X10320176Y-13106392D01*
X10301129Y-13115916D01*
X10282081Y-13115916D01*
X10263033Y-13106392D01*
X10253510Y-13096868D01*
X10243986Y-13077821D01*
X10234462Y-13039726D01*
X10234462Y-12992107D01*
X10243986Y-12954011D01*
X10253510Y-12934964D01*
X10263033Y-12925440D01*
X10282081Y-12915916D01*
X10434462Y-13115916D02*
X10434462Y-12982583D01*
X10434462Y-13001630D02*
X10443986Y-12992107D01*
X10463033Y-12982583D01*
X10491605Y-12982583D01*
X10510652Y-12992107D01*
X10520176Y-13011154D01*
X10520176Y-13115916D01*
X10520176Y-13011154D02*
X10529700Y-12992107D01*
X10548748Y-12982583D01*
X10577319Y-12982583D01*
X10596367Y-12992107D01*
X10605890Y-13011154D01*
X10605890Y-13115916D01*
X10701129Y-13115916D02*
X10701129Y-12982583D01*
X10701129Y-13001630D02*
X10710652Y-12992107D01*
X10729700Y-12982583D01*
X10758271Y-12982583D01*
X10777319Y-12992107D01*
X10786843Y-13011154D01*
X10786843Y-13115916D01*
X10786843Y-13011154D02*
X10796367Y-12992107D01*
X10815414Y-12982583D01*
X10843986Y-12982583D01*
X10863033Y-12992107D01*
X10872557Y-13011154D01*
X10872557Y-13115916D01*
X11263033Y-12906392D02*
X11091605Y-13163535D01*
X11520176Y-12915916D02*
X11539224Y-12915916D01*
X11558271Y-12925440D01*
X11567795Y-12934964D01*
X11577319Y-12954011D01*
X11586843Y-12992107D01*
X11586843Y-13039726D01*
X11577319Y-13077821D01*
X11567795Y-13096868D01*
X11558271Y-13106392D01*
X11539224Y-13115916D01*
X11520176Y-13115916D01*
X11501128Y-13106392D01*
X11491605Y-13096868D01*
X11482081Y-13077821D01*
X11472557Y-13039726D01*
X11472557Y-12992107D01*
X11482081Y-12954011D01*
X11491605Y-12934964D01*
X11501128Y-12925440D01*
X11520176Y-12915916D01*
X11672557Y-13096868D02*
X11682081Y-13106392D01*
X11672557Y-13115916D01*
X11663033Y-13106392D01*
X11672557Y-13096868D01*
X11672557Y-13115916D01*
X11805890Y-12915916D02*
X11824938Y-12915916D01*
X11843986Y-12925440D01*
X11853509Y-12934964D01*
X11863033Y-12954011D01*
X11872557Y-12992107D01*
X11872557Y-13039726D01*
X11863033Y-13077821D01*
X11853509Y-13096868D01*
X11843986Y-13106392D01*
X11824938Y-13115916D01*
X11805890Y-13115916D01*
X11786843Y-13106392D01*
X11777319Y-13096868D01*
X11767795Y-13077821D01*
X11758271Y-13039726D01*
X11758271Y-12992107D01*
X11767795Y-12954011D01*
X11777319Y-12934964D01*
X11786843Y-12925440D01*
X11805890Y-12915916D01*
X11986843Y-13001630D02*
X11967795Y-12992107D01*
X11958271Y-12982583D01*
X11948748Y-12963535D01*
X11948748Y-12954011D01*
X11958271Y-12934964D01*
X11967795Y-12925440D01*
X11986843Y-12915916D01*
X12024938Y-12915916D01*
X12043986Y-12925440D01*
X12053509Y-12934964D01*
X12063033Y-12954011D01*
X12063033Y-12963535D01*
X12053509Y-12982583D01*
X12043986Y-12992107D01*
X12024938Y-13001630D01*
X11986843Y-13001630D01*
X11967795Y-13011154D01*
X11958271Y-13020678D01*
X11948748Y-13039726D01*
X11948748Y-13077821D01*
X11958271Y-13096868D01*
X11967795Y-13106392D01*
X11986843Y-13115916D01*
X12024938Y-13115916D01*
X12043986Y-13106392D01*
X12053509Y-13096868D01*
X12063033Y-13077821D01*
X12063033Y-13039726D01*
X12053509Y-13020678D01*
X12043986Y-13011154D01*
X12024938Y-13001630D01*
X12234462Y-12915916D02*
X12196367Y-12915916D01*
X12177319Y-12925440D01*
X12167795Y-12934964D01*
X12148748Y-12963535D01*
X12139224Y-13001630D01*
X12139224Y-13077821D01*
X12148748Y-13096868D01*
X12158271Y-13106392D01*
X12177319Y-13115916D01*
X12215414Y-13115916D01*
X12234462Y-13106392D01*
X12243986Y-13096868D01*
X12253509Y-13077821D01*
X12253509Y-13030202D01*
X12243986Y-13011154D01*
X12234462Y-13001630D01*
X12215414Y-12992107D01*
X12177319Y-12992107D01*
X12158271Y-13001630D01*
X12148748Y-13011154D01*
X12139224Y-13030202D01*
X12424938Y-12915916D02*
X12386843Y-12915916D01*
X12367795Y-12925440D01*
X12358271Y-12934964D01*
X12339224Y-12963535D01*
X12329700Y-13001630D01*
X12329700Y-13077821D01*
X12339224Y-13096868D01*
X12348748Y-13106392D01*
X12367795Y-13115916D01*
X12405890Y-13115916D01*
X12424938Y-13106392D01*
X12434462Y-13096868D01*
X12443986Y-13077821D01*
X12443986Y-13030202D01*
X12434462Y-13011154D01*
X12424938Y-13001630D01*
X12405890Y-12992107D01*
X12367795Y-12992107D01*
X12348748Y-13001630D01*
X12339224Y-13011154D01*
X12329700Y-13030202D01*
X12520176Y-12915916D02*
X12520176Y-12954011D01*
X12596367Y-12915916D02*
X12596367Y-12954011D01*
X12891605Y-13192107D02*
X12882081Y-13182583D01*
X12863033Y-13154011D01*
X12853509Y-13134964D01*
X12843986Y-13106392D01*
X12834462Y-13058773D01*
X12834462Y-13020678D01*
X12843986Y-12973059D01*
X12853509Y-12944488D01*
X12863033Y-12925440D01*
X12882081Y-12896868D01*
X12891605Y-12887345D01*
X13053509Y-12982583D02*
X13053509Y-13115916D01*
X13005890Y-12906392D02*
X12958271Y-13049249D01*
X13082081Y-13049249D01*
X13310652Y-13115916D02*
X13310652Y-12915916D01*
X13396367Y-13115916D02*
X13396367Y-13011154D01*
X13386843Y-12992107D01*
X13367795Y-12982583D01*
X13339224Y-12982583D01*
X13320176Y-12992107D01*
X13310652Y-13001630D01*
X13520176Y-13115916D02*
X13501128Y-13106392D01*
X13491605Y-13096868D01*
X13482081Y-13077821D01*
X13482081Y-13020678D01*
X13491605Y-13001630D01*
X13501128Y-12992107D01*
X13520176Y-12982583D01*
X13548748Y-12982583D01*
X13567795Y-12992107D01*
X13577319Y-13001630D01*
X13586843Y-13020678D01*
X13586843Y-13077821D01*
X13577319Y-13096868D01*
X13567795Y-13106392D01*
X13548748Y-13115916D01*
X13520176Y-13115916D01*
X13701128Y-13115916D02*
X13682081Y-13106392D01*
X13672557Y-13087345D01*
X13672557Y-12915916D01*
X13853509Y-13106392D02*
X13834462Y-13115916D01*
X13796367Y-13115916D01*
X13777319Y-13106392D01*
X13767795Y-13087345D01*
X13767795Y-13011154D01*
X13777319Y-12992107D01*
X13796367Y-12982583D01*
X13834462Y-12982583D01*
X13853509Y-12992107D01*
X13863033Y-13011154D01*
X13863033Y-13030202D01*
X13767795Y-13049249D01*
X13939224Y-13106392D02*
X13958271Y-13115916D01*
X13996367Y-13115916D01*
X14015414Y-13106392D01*
X14024938Y-13087345D01*
X14024938Y-13077821D01*
X14015414Y-13058773D01*
X13996367Y-13049249D01*
X13967795Y-13049249D01*
X13948748Y-13039726D01*
X13939224Y-13020678D01*
X13939224Y-13011154D01*
X13948748Y-12992107D01*
X13967795Y-12982583D01*
X13996367Y-12982583D01*
X14015414Y-12992107D01*
X14091605Y-13192107D02*
X14101128Y-13182583D01*
X14120176Y-13154011D01*
X14129700Y-13134964D01*
X14139224Y-13106392D01*
X14148748Y-13058773D01*
X14148748Y-13020678D01*
X14139224Y-12973059D01*
X14129700Y-12944488D01*
X14120176Y-12925440D01*
X14101128Y-12896868D01*
X14091605Y-12887345D01*
X14453509Y-13192107D02*
X14443986Y-13182583D01*
X14424938Y-13154011D01*
X14415414Y-13134964D01*
X14405890Y-13106392D01*
X14396367Y-13058773D01*
X14396367Y-13020678D01*
X14405890Y-12973059D01*
X14415414Y-12944488D01*
X14424938Y-12925440D01*
X14443986Y-12896868D01*
X14453509Y-12887345D01*
X14529700Y-12982583D02*
X14529700Y-13115916D01*
X14529700Y-13001630D02*
X14539224Y-12992107D01*
X14558271Y-12982583D01*
X14586843Y-12982583D01*
X14605890Y-12992107D01*
X14615414Y-13011154D01*
X14615414Y-13115916D01*
X14739224Y-13115916D02*
X14720176Y-13106392D01*
X14710652Y-13096868D01*
X14701128Y-13077821D01*
X14701128Y-13020678D01*
X14710652Y-13001630D01*
X14720176Y-12992107D01*
X14739224Y-12982583D01*
X14767795Y-12982583D01*
X14786843Y-12992107D01*
X14796367Y-13001630D01*
X14805890Y-13020678D01*
X14805890Y-13077821D01*
X14796367Y-13096868D01*
X14786843Y-13106392D01*
X14767795Y-13115916D01*
X14739224Y-13115916D01*
X14863033Y-12982583D02*
X14939224Y-12982583D01*
X14891605Y-12915916D02*
X14891605Y-13087345D01*
X14901128Y-13106392D01*
X14920176Y-13115916D01*
X14939224Y-13115916D01*
X15158271Y-12982583D02*
X15158271Y-13182583D01*
X15158271Y-12992107D02*
X15177319Y-12982583D01*
X15215414Y-12982583D01*
X15234462Y-12992107D01*
X15243986Y-13001630D01*
X15253509Y-13020678D01*
X15253509Y-13077821D01*
X15243986Y-13096868D01*
X15234462Y-13106392D01*
X15215414Y-13115916D01*
X15177319Y-13115916D01*
X15158271Y-13106392D01*
X15367795Y-13115916D02*
X15348748Y-13106392D01*
X15339224Y-13087345D01*
X15339224Y-12915916D01*
X15529700Y-13115916D02*
X15529700Y-13011154D01*
X15520176Y-12992107D01*
X15501128Y-12982583D01*
X15463033Y-12982583D01*
X15443986Y-12992107D01*
X15529700Y-13106392D02*
X15510652Y-13115916D01*
X15463033Y-13115916D01*
X15443986Y-13106392D01*
X15434462Y-13087345D01*
X15434462Y-13068297D01*
X15443986Y-13049249D01*
X15463033Y-13039726D01*
X15510652Y-13039726D01*
X15529700Y-13030202D01*
X15596367Y-12982583D02*
X15672557Y-12982583D01*
X15624938Y-12915916D02*
X15624938Y-13087345D01*
X15634462Y-13106392D01*
X15653509Y-13115916D01*
X15672557Y-13115916D01*
X15815414Y-13106392D02*
X15796367Y-13115916D01*
X15758271Y-13115916D01*
X15739224Y-13106392D01*
X15729700Y-13087345D01*
X15729700Y-13011154D01*
X15739224Y-12992107D01*
X15758271Y-12982583D01*
X15796367Y-12982583D01*
X15815414Y-12992107D01*
X15824938Y-13011154D01*
X15824938Y-13030202D01*
X15729700Y-13049249D01*
X15996367Y-13115916D02*
X15996367Y-12915916D01*
X15996367Y-13106392D02*
X15977319Y-13115916D01*
X15939224Y-13115916D01*
X15920176Y-13106392D01*
X15910652Y-13096868D01*
X15901128Y-13077821D01*
X15901128Y-13020678D01*
X15910652Y-13001630D01*
X15920176Y-12992107D01*
X15939224Y-12982583D01*
X15977319Y-12982583D01*
X15996367Y-12992107D01*
X16072557Y-13192107D02*
X16082081Y-13182583D01*
X16101128Y-13154011D01*
X16110652Y-13134964D01*
X16120176Y-13106392D01*
X16129700Y-13058773D01*
X16129700Y-13020678D01*
X16120176Y-12973059D01*
X16110652Y-12944488D01*
X16101128Y-12925440D01*
X16082081Y-12896868D01*
X16072557Y-12887345D01*
M02*
