%TF.GenerationSoftware,KiCad,Pcbnew,6.0.7-f9a2dced07~116~ubuntu20.04.1*%
%TF.CreationDate,2023-02-02T12:23:22+01:00*%
%TF.ProjectId,MoleNet_V5.2.2,4d6f6c65-4e65-4745-9f56-352e322e322e,1*%
%TF.SameCoordinates,Original*%
%TF.FileFunction,Drillmap*%
%TF.FilePolarity,Positive*%
%FSLAX45Y45*%
G04 Gerber Fmt 4.5, Leading zero omitted, Abs format (unit mm)*
G04 Created by KiCad (PCBNEW 6.0.7-f9a2dced07~116~ubuntu20.04.1) date 2023-02-02 12:23:22*
%MOMM*%
%LPD*%
G01*
G04 APERTURE LIST*
%ADD10C,0.200000*%
%ADD11C,0.040000*%
%ADD12C,0.100000*%
%ADD13C,0.110000*%
%ADD14C,0.120000*%
%ADD15C,0.150000*%
G04 APERTURE END LIST*
D10*
X9329700Y-12375440D02*
X19829700Y-12375440D01*
X19829700Y-12375440D02*
X19829700Y-5875440D01*
X19829700Y-5875440D02*
X9329700Y-5875440D01*
X9329700Y-5875440D02*
X9329700Y-12375440D01*
D11*
X9700580Y-8087680D02*
X9740580Y-8127680D01*
X9740580Y-8087680D02*
X9700580Y-8127680D01*
X9802180Y-10376220D02*
X9842180Y-10416220D01*
X9842180Y-10376220D02*
X9802180Y-10416220D01*
X9886000Y-7782880D02*
X9926000Y-7822880D01*
X9926000Y-7782880D02*
X9886000Y-7822880D01*
X9967130Y-9850440D02*
X10007130Y-9890440D01*
X10007130Y-9850440D02*
X9967130Y-9890440D01*
X9987600Y-10071420D02*
X10027600Y-10111420D01*
X10027600Y-10071420D02*
X9987600Y-10111420D01*
X10066340Y-8090220D02*
X10106340Y-8130220D01*
X10106340Y-8090220D02*
X10066340Y-8130220D01*
X10096820Y-6444300D02*
X10136820Y-6484300D01*
X10136820Y-6444300D02*
X10096820Y-6484300D01*
X10167940Y-10378760D02*
X10207940Y-10418760D01*
X10207940Y-10378760D02*
X10167940Y-10418760D01*
X10282240Y-6139500D02*
X10322240Y-6179500D01*
X10322240Y-6139500D02*
X10282240Y-6179500D01*
X10414320Y-8354380D02*
X10454320Y-8394380D01*
X10454320Y-8354380D02*
X10414320Y-8394380D01*
X10462580Y-6446840D02*
X10502580Y-6486840D01*
X10502580Y-6446840D02*
X10462580Y-6486840D01*
X11110280Y-8709980D02*
X11150280Y-8749980D01*
X11150280Y-8709980D02*
X11110280Y-8749980D01*
X11170000Y-9141000D02*
X11210000Y-9181000D01*
X11210000Y-9141000D02*
X11170000Y-9181000D01*
X11172000Y-8885000D02*
X11212000Y-8925000D01*
X11212000Y-8885000D02*
X11172000Y-8925000D01*
X11549700Y-9332280D02*
X11589700Y-9372280D01*
X11589700Y-9332280D02*
X11549700Y-9372280D01*
X11571000Y-8900000D02*
X11611000Y-8940000D01*
X11611000Y-8900000D02*
X11571000Y-8940000D01*
X11613200Y-8555040D02*
X11653200Y-8595040D01*
X11653200Y-8555040D02*
X11613200Y-8595040D01*
X11623360Y-8786180D02*
X11663360Y-8826180D01*
X11663360Y-8786180D02*
X11623360Y-8826180D01*
X11757980Y-8110540D02*
X11797980Y-8150540D01*
X11797980Y-8110540D02*
X11757980Y-8150540D01*
X11947500Y-9545000D02*
X11987500Y-9585000D01*
X11987500Y-9545000D02*
X11947500Y-9585000D01*
X11952500Y-10402500D02*
X11992500Y-10442500D01*
X11992500Y-10402500D02*
X11952500Y-10442500D01*
X12121200Y-8511860D02*
X12161200Y-8551860D01*
X12161200Y-8511860D02*
X12121200Y-8551860D01*
X12426000Y-9314500D02*
X12466000Y-9354500D01*
X12466000Y-9314500D02*
X12426000Y-9354500D01*
X12540300Y-9446580D02*
X12580300Y-9486580D01*
X12580300Y-9446580D02*
X12540300Y-9486580D01*
X12545380Y-7391720D02*
X12585380Y-7431720D01*
X12585380Y-7391720D02*
X12545380Y-7431720D01*
X12593640Y-10470200D02*
X12633640Y-10510200D01*
X12633640Y-10470200D02*
X12593640Y-10510200D01*
X12730000Y-8960000D02*
X12770000Y-9000000D01*
X12770000Y-8960000D02*
X12730000Y-9000000D01*
X12738420Y-8110540D02*
X12778420Y-8150540D01*
X12778420Y-8110540D02*
X12738420Y-8150540D01*
X12779060Y-10165400D02*
X12819060Y-10205400D01*
X12819060Y-10165400D02*
X12779060Y-10205400D01*
X12802500Y-8612500D02*
X12842500Y-8652500D01*
X12842500Y-8612500D02*
X12802500Y-8652500D01*
X12860340Y-7757480D02*
X12900340Y-7797480D01*
X12900340Y-7757480D02*
X12860340Y-7797480D01*
X12865420Y-8196900D02*
X12905420Y-8236900D01*
X12905420Y-8196900D02*
X12865420Y-8236900D01*
X12959400Y-9705660D02*
X12999400Y-9745660D01*
X12999400Y-9705660D02*
X12959400Y-9745660D01*
X12959400Y-10472740D02*
X12999400Y-10512740D01*
X12999400Y-10472740D02*
X12959400Y-10512740D01*
X13030520Y-10244140D02*
X13070520Y-10284140D01*
X13070520Y-10244140D02*
X13030520Y-10284140D01*
X13045760Y-8124250D02*
X13085760Y-8164250D01*
X13085760Y-8124250D02*
X13045760Y-8164250D01*
X13108411Y-10181506D02*
X13148411Y-10221506D01*
X13148411Y-10181506D02*
X13108411Y-10221506D01*
X13183223Y-10115224D02*
X13223223Y-10155224D01*
X13223223Y-10115224D02*
X13183223Y-10155224D01*
X13203240Y-7658420D02*
X13243240Y-7698420D01*
X13243240Y-7658420D02*
X13203240Y-7698420D01*
X13220000Y-9090000D02*
X13260000Y-9130000D01*
X13260000Y-9090000D02*
X13220000Y-9130000D01*
X13269773Y-10065233D02*
X13309773Y-10105233D01*
X13309773Y-10065233D02*
X13269773Y-10105233D01*
X13325731Y-7678169D02*
X13365731Y-7718169D01*
X13365731Y-7678169D02*
X13325731Y-7718169D01*
X13364158Y-10032347D02*
X13404158Y-10072347D01*
X13404158Y-10032347D02*
X13364158Y-10072347D01*
X13381040Y-11092500D02*
X13421040Y-11132500D01*
X13421040Y-11092500D02*
X13381040Y-11132500D01*
X13416600Y-7391720D02*
X13456600Y-7431720D01*
X13456600Y-7391720D02*
X13416600Y-7431720D01*
X13467400Y-7684830D02*
X13507400Y-7724830D01*
X13507400Y-7684830D02*
X13467400Y-7724830D01*
X13467400Y-11018840D02*
X13507400Y-11058840D01*
X13507400Y-11018840D02*
X13467400Y-11058840D01*
X13500000Y-8785000D02*
X13540000Y-8825000D01*
X13540000Y-8785000D02*
X13500000Y-8825000D01*
X13569000Y-11122980D02*
X13609000Y-11162980D01*
X13609000Y-11122980D02*
X13569000Y-11162980D01*
X13589470Y-8064820D02*
X13629470Y-8104820D01*
X13629470Y-8064820D02*
X13589470Y-8104820D01*
X13612500Y-9460000D02*
X13652500Y-9500000D01*
X13652500Y-9460000D02*
X13612500Y-9500000D01*
X13662980Y-7830130D02*
X13702980Y-7870130D01*
X13702980Y-7830130D02*
X13662980Y-7870130D01*
X13670600Y-11039160D02*
X13710600Y-11079160D01*
X13710600Y-11039160D02*
X13670600Y-11079160D01*
X13716320Y-6426520D02*
X13756320Y-6466520D01*
X13756320Y-6426520D02*
X13716320Y-6466520D01*
X13741550Y-7907340D02*
X13781550Y-7947340D01*
X13781550Y-7907340D02*
X13741550Y-7947340D01*
X13749340Y-10254300D02*
X13789340Y-10294300D01*
X13789340Y-10254300D02*
X13749340Y-10294300D01*
X13784900Y-11128060D02*
X13824900Y-11168060D01*
X13824900Y-11128060D02*
X13784900Y-11168060D01*
X13795060Y-10079040D02*
X13835060Y-10119040D01*
X13835060Y-10079040D02*
X13795060Y-10119040D01*
X13825540Y-7983540D02*
X13865540Y-8023540D01*
X13865540Y-7983540D02*
X13825540Y-8023540D01*
X13891580Y-10449880D02*
X13931580Y-10489880D01*
X13931580Y-10449880D02*
X13891580Y-10489880D01*
X13892500Y-9155000D02*
X13932500Y-9195000D01*
X13932500Y-9155000D02*
X13892500Y-9195000D01*
X13896660Y-8080060D02*
X13936660Y-8120060D01*
X13936660Y-8080060D02*
X13896660Y-8120060D01*
X13901740Y-6121720D02*
X13941740Y-6161720D01*
X13941740Y-6121720D02*
X13901740Y-6161720D01*
X13933750Y-11125520D02*
X13973750Y-11165520D01*
X13973750Y-11125520D02*
X13933750Y-11165520D01*
X13965240Y-7854000D02*
X14005240Y-7894000D01*
X14005240Y-7854000D02*
X13965240Y-7894000D01*
X14002500Y-8192500D02*
X14042500Y-8232500D01*
X14042500Y-8192500D02*
X14002500Y-8232500D01*
X14050000Y-8410000D02*
X14090000Y-8450000D01*
X14090000Y-8410000D02*
X14050000Y-8450000D01*
X14051600Y-7643180D02*
X14091600Y-7683180D01*
X14091600Y-7643180D02*
X14051600Y-7683180D01*
X14082080Y-6429060D02*
X14122080Y-6469060D01*
X14122080Y-6429060D02*
X14082080Y-6469060D01*
X14267500Y-7885000D02*
X14307500Y-7925000D01*
X14307500Y-7885000D02*
X14267500Y-7925000D01*
X14295000Y-8697500D02*
X14335000Y-8737500D01*
X14335000Y-8697500D02*
X14295000Y-8737500D01*
X14491020Y-9169720D02*
X14531020Y-9209720D01*
X14531020Y-9169720D02*
X14491020Y-9209720D01*
X14524040Y-9802180D02*
X14564040Y-9842180D01*
X14564040Y-9802180D02*
X14524040Y-9842180D01*
X14566520Y-9083884D02*
X14606520Y-9123884D01*
X14606520Y-9083884D02*
X14566520Y-9123884D01*
X14595532Y-8988237D02*
X14635532Y-9028237D01*
X14635532Y-8988237D02*
X14595532Y-9028237D01*
X14600000Y-8157500D02*
X14640000Y-8197500D01*
X14640000Y-8157500D02*
X14600000Y-8197500D01*
X14648500Y-11765600D02*
X14688500Y-11805600D01*
X14688500Y-11765600D02*
X14648500Y-11805600D01*
X14681520Y-8900480D02*
X14721520Y-8940480D01*
X14721520Y-8900480D02*
X14681520Y-8940480D01*
X14737500Y-8062500D02*
X14777500Y-8102500D01*
X14777500Y-8062500D02*
X14737500Y-8102500D01*
X14816140Y-7935280D02*
X14856140Y-7975280D01*
X14856140Y-7935280D02*
X14816140Y-7975280D01*
X14874560Y-7836220D02*
X14914560Y-7876220D01*
X14914560Y-7836220D02*
X14874560Y-7876220D01*
X14957500Y-8332500D02*
X14997500Y-8372500D01*
X14997500Y-8332500D02*
X14957500Y-8372500D01*
X15975000Y-10835000D02*
X16015000Y-10875000D01*
X16015000Y-10835000D02*
X15975000Y-10875000D01*
X16177580Y-7721920D02*
X16217580Y-7761920D01*
X16217580Y-7721920D02*
X16177580Y-7761920D01*
X16878620Y-11341420D02*
X16918620Y-11381420D01*
X16918620Y-11341420D02*
X16878620Y-11381420D01*
X16957360Y-11453180D02*
X16997360Y-11493180D01*
X16997360Y-11453180D02*
X16957360Y-11493180D01*
X17188500Y-8364540D02*
X17228500Y-8404540D01*
X17228500Y-8364540D02*
X17188500Y-8404540D01*
X17373920Y-8059740D02*
X17413920Y-8099740D01*
X17413920Y-8059740D02*
X17373920Y-8099740D01*
X17554260Y-8367080D02*
X17594260Y-8407080D01*
X17594260Y-8367080D02*
X17554260Y-8407080D01*
X17648240Y-9520240D02*
X17688240Y-9560240D01*
X17688240Y-9520240D02*
X17648240Y-9560240D01*
X17833660Y-9215440D02*
X17873660Y-9255440D01*
X17873660Y-9215440D02*
X17833660Y-9255440D01*
X17978240Y-10815460D02*
X18018240Y-10855460D01*
X18018240Y-10815460D02*
X17978240Y-10855460D01*
X18014000Y-9522780D02*
X18054000Y-9562780D01*
X18054000Y-9522780D02*
X18014000Y-9562780D01*
X18036860Y-8534720D02*
X18076860Y-8574720D01*
X18076860Y-8534720D02*
X18036860Y-8574720D01*
X18113060Y-12138980D02*
X18153060Y-12178980D01*
X18153060Y-12138980D02*
X18113060Y-12178980D01*
X18163660Y-10510660D02*
X18203660Y-10550660D01*
X18203660Y-10510660D02*
X18163660Y-10550660D01*
X18298480Y-11834180D02*
X18338480Y-11874180D01*
X18338480Y-11834180D02*
X18298480Y-11874180D01*
X18344000Y-10818000D02*
X18384000Y-10858000D01*
X18384000Y-10818000D02*
X18344000Y-10858000D01*
X18478820Y-12141520D02*
X18518820Y-12181520D01*
X18518820Y-12141520D02*
X18478820Y-12181520D01*
D12*
X10413200Y-11012940D02*
G75*
G03*
X10413200Y-11012940I-50000J0D01*
G01*
X10413200Y-11266940D02*
G75*
G03*
X10413200Y-11266940I-50000J0D01*
G01*
X10418280Y-11844020D02*
G75*
G03*
X10418280Y-11844020I-50000J0D01*
G01*
X10418280Y-12098020D02*
G75*
G03*
X10418280Y-12098020I-50000J0D01*
G01*
X10667200Y-11012940D02*
G75*
G03*
X10667200Y-11012940I-50000J0D01*
G01*
X10667200Y-11266940D02*
G75*
G03*
X10667200Y-11266940I-50000J0D01*
G01*
X10672280Y-11844020D02*
G75*
G03*
X10672280Y-11844020I-50000J0D01*
G01*
X10672280Y-12098020D02*
G75*
G03*
X10672280Y-12098020I-50000J0D01*
G01*
X10921200Y-11012940D02*
G75*
G03*
X10921200Y-11012940I-50000J0D01*
G01*
X10921200Y-11266940D02*
G75*
G03*
X10921200Y-11266940I-50000J0D01*
G01*
X10926280Y-11844020D02*
G75*
G03*
X10926280Y-11844020I-50000J0D01*
G01*
X10926280Y-12098020D02*
G75*
G03*
X10926280Y-12098020I-50000J0D01*
G01*
X11002980Y-6207760D02*
G75*
G03*
X11002980Y-6207760I-50000J0D01*
G01*
X11175200Y-11012940D02*
G75*
G03*
X11175200Y-11012940I-50000J0D01*
G01*
X11175200Y-11266940D02*
G75*
G03*
X11175200Y-11266940I-50000J0D01*
G01*
X11180280Y-11844020D02*
G75*
G03*
X11180280Y-11844020I-50000J0D01*
G01*
X11180280Y-12098020D02*
G75*
G03*
X11180280Y-12098020I-50000J0D01*
G01*
X11256980Y-6207760D02*
G75*
G03*
X11256980Y-6207760I-50000J0D01*
G01*
X11429200Y-11012940D02*
G75*
G03*
X11429200Y-11012940I-50000J0D01*
G01*
X11429200Y-11266940D02*
G75*
G03*
X11429200Y-11266940I-50000J0D01*
G01*
X11434280Y-11844020D02*
G75*
G03*
X11434280Y-11844020I-50000J0D01*
G01*
X11434280Y-12098020D02*
G75*
G03*
X11434280Y-12098020I-50000J0D01*
G01*
X11510980Y-6207760D02*
G75*
G03*
X11510980Y-6207760I-50000J0D01*
G01*
X11683200Y-11012940D02*
G75*
G03*
X11683200Y-11012940I-50000J0D01*
G01*
X11683200Y-11266940D02*
G75*
G03*
X11683200Y-11266940I-50000J0D01*
G01*
X11764980Y-6207760D02*
G75*
G03*
X11764980Y-6207760I-50000J0D01*
G01*
X11937200Y-11012940D02*
G75*
G03*
X11937200Y-11012940I-50000J0D01*
G01*
X11937200Y-11266940D02*
G75*
G03*
X11937200Y-11266940I-50000J0D01*
G01*
X12176113Y-11844020D02*
G75*
G03*
X12176113Y-11844020I-50000J0D01*
G01*
X12176113Y-12098020D02*
G75*
G03*
X12176113Y-12098020I-50000J0D01*
G01*
X12191200Y-11012940D02*
G75*
G03*
X12191200Y-11012940I-50000J0D01*
G01*
X12191200Y-11266940D02*
G75*
G03*
X12191200Y-11266940I-50000J0D01*
G01*
X12430113Y-11844020D02*
G75*
G03*
X12430113Y-11844020I-50000J0D01*
G01*
X12430113Y-12098020D02*
G75*
G03*
X12430113Y-12098020I-50000J0D01*
G01*
X12445200Y-11012940D02*
G75*
G03*
X12445200Y-11012940I-50000J0D01*
G01*
X12445200Y-11266940D02*
G75*
G03*
X12445200Y-11266940I-50000J0D01*
G01*
X12684113Y-11844020D02*
G75*
G03*
X12684113Y-11844020I-50000J0D01*
G01*
X12684113Y-12098020D02*
G75*
G03*
X12684113Y-12098020I-50000J0D01*
G01*
X12699200Y-11012940D02*
G75*
G03*
X12699200Y-11012940I-50000J0D01*
G01*
X12699200Y-11266940D02*
G75*
G03*
X12699200Y-11266940I-50000J0D01*
G01*
X12938113Y-11844020D02*
G75*
G03*
X12938113Y-11844020I-50000J0D01*
G01*
X12938113Y-12098020D02*
G75*
G03*
X12938113Y-12098020I-50000J0D01*
G01*
X12953200Y-11012940D02*
G75*
G03*
X12953200Y-11012940I-50000J0D01*
G01*
X12953200Y-11266940D02*
G75*
G03*
X12953200Y-11266940I-50000J0D01*
G01*
X13678947Y-11844020D02*
G75*
G03*
X13678947Y-11844020I-50000J0D01*
G01*
X13678947Y-12098020D02*
G75*
G03*
X13678947Y-12098020I-50000J0D01*
G01*
X13932947Y-11844020D02*
G75*
G03*
X13932947Y-11844020I-50000J0D01*
G01*
X13932947Y-12098020D02*
G75*
G03*
X13932947Y-12098020I-50000J0D01*
G01*
X14186947Y-11844020D02*
G75*
G03*
X14186947Y-11844020I-50000J0D01*
G01*
X14186947Y-12098020D02*
G75*
G03*
X14186947Y-12098020I-50000J0D01*
G01*
X14440947Y-11844020D02*
G75*
G03*
X14440947Y-11844020I-50000J0D01*
G01*
X14440947Y-12098020D02*
G75*
G03*
X14440947Y-12098020I-50000J0D01*
G01*
X14936940Y-7170420D02*
G75*
G03*
X14936940Y-7170420I-50000J0D01*
G01*
X14936940Y-7424420D02*
G75*
G03*
X14936940Y-7424420I-50000J0D01*
G01*
X15181780Y-11844020D02*
G75*
G03*
X15181780Y-11844020I-50000J0D01*
G01*
X15181780Y-12098020D02*
G75*
G03*
X15181780Y-12098020I-50000J0D01*
G01*
X15190940Y-7170420D02*
G75*
G03*
X15190940Y-7170420I-50000J0D01*
G01*
X15190940Y-7424420D02*
G75*
G03*
X15190940Y-7424420I-50000J0D01*
G01*
X15435780Y-11844020D02*
G75*
G03*
X15435780Y-11844020I-50000J0D01*
G01*
X15435780Y-12098020D02*
G75*
G03*
X15435780Y-12098020I-50000J0D01*
G01*
X15444940Y-7170420D02*
G75*
G03*
X15444940Y-7170420I-50000J0D01*
G01*
X15444940Y-7424420D02*
G75*
G03*
X15444940Y-7424420I-50000J0D01*
G01*
X15689780Y-11844020D02*
G75*
G03*
X15689780Y-11844020I-50000J0D01*
G01*
X15689780Y-12098020D02*
G75*
G03*
X15689780Y-12098020I-50000J0D01*
G01*
X15919260Y-8237940D02*
G75*
G03*
X15919260Y-8237940I-50000J0D01*
G01*
X15919260Y-8491940D02*
G75*
G03*
X15919260Y-8491940I-50000J0D01*
G01*
X15919260Y-8745940D02*
G75*
G03*
X15919260Y-8745940I-50000J0D01*
G01*
X15919260Y-8999940D02*
G75*
G03*
X15919260Y-8999940I-50000J0D01*
G01*
X15919260Y-9253940D02*
G75*
G03*
X15919260Y-9253940I-50000J0D01*
G01*
X15919260Y-9507940D02*
G75*
G03*
X15919260Y-9507940I-50000J0D01*
G01*
X15919260Y-9761940D02*
G75*
G03*
X15919260Y-9761940I-50000J0D01*
G01*
X15919260Y-10015940D02*
G75*
G03*
X15919260Y-10015940I-50000J0D01*
G01*
X15943780Y-11844020D02*
G75*
G03*
X15943780Y-11844020I-50000J0D01*
G01*
X15943780Y-12098020D02*
G75*
G03*
X15943780Y-12098020I-50000J0D01*
G01*
X16173260Y-8237940D02*
G75*
G03*
X16173260Y-8237940I-50000J0D01*
G01*
X16173260Y-8491940D02*
G75*
G03*
X16173260Y-8491940I-50000J0D01*
G01*
X16173260Y-8745940D02*
G75*
G03*
X16173260Y-8745940I-50000J0D01*
G01*
X16173260Y-8999940D02*
G75*
G03*
X16173260Y-8999940I-50000J0D01*
G01*
X16173260Y-9253940D02*
G75*
G03*
X16173260Y-9253940I-50000J0D01*
G01*
X16173260Y-9507940D02*
G75*
G03*
X16173260Y-9507940I-50000J0D01*
G01*
X16173260Y-9761940D02*
G75*
G03*
X16173260Y-9761940I-50000J0D01*
G01*
X16173260Y-10015940D02*
G75*
G03*
X16173260Y-10015940I-50000J0D01*
G01*
X16197780Y-11844020D02*
G75*
G03*
X16197780Y-11844020I-50000J0D01*
G01*
X16197780Y-12098020D02*
G75*
G03*
X16197780Y-12098020I-50000J0D01*
G01*
X16451780Y-11844020D02*
G75*
G03*
X16451780Y-11844020I-50000J0D01*
G01*
X16451780Y-12098020D02*
G75*
G03*
X16451780Y-12098020I-50000J0D01*
G01*
X16570160Y-6414450D02*
G75*
G03*
X16570160Y-6414450I-50000J0D01*
G01*
X16570160Y-6668450D02*
G75*
G03*
X16570160Y-6668450I-50000J0D01*
G01*
X16664140Y-10348960D02*
G75*
G03*
X16664140Y-10348960I-50000J0D01*
G01*
X16664140Y-10602960D02*
G75*
G03*
X16664140Y-10602960I-50000J0D01*
G01*
X16664140Y-10856960D02*
G75*
G03*
X16664140Y-10856960I-50000J0D01*
G01*
X16664140Y-11110960D02*
G75*
G03*
X16664140Y-11110960I-50000J0D01*
G01*
X16705780Y-11844020D02*
G75*
G03*
X16705780Y-11844020I-50000J0D01*
G01*
X16705780Y-12098020D02*
G75*
G03*
X16705780Y-12098020I-50000J0D01*
G01*
X16824160Y-6414450D02*
G75*
G03*
X16824160Y-6414450I-50000J0D01*
G01*
X16824160Y-6668450D02*
G75*
G03*
X16824160Y-6668450I-50000J0D01*
G01*
X16918140Y-10348960D02*
G75*
G03*
X16918140Y-10348960I-50000J0D01*
G01*
X16918140Y-10602960D02*
G75*
G03*
X16918140Y-10602960I-50000J0D01*
G01*
X16918140Y-10856960D02*
G75*
G03*
X16918140Y-10856960I-50000J0D01*
G01*
X16918140Y-11110960D02*
G75*
G03*
X16918140Y-11110960I-50000J0D01*
G01*
X16959780Y-11844020D02*
G75*
G03*
X16959780Y-11844020I-50000J0D01*
G01*
X16959780Y-12098020D02*
G75*
G03*
X16959780Y-12098020I-50000J0D01*
G01*
X17078160Y-6414450D02*
G75*
G03*
X17078160Y-6414450I-50000J0D01*
G01*
X17078160Y-6668450D02*
G75*
G03*
X17078160Y-6668450I-50000J0D01*
G01*
X17332160Y-6414450D02*
G75*
G03*
X17332160Y-6414450I-50000J0D01*
G01*
X17332160Y-6668450D02*
G75*
G03*
X17332160Y-6668450I-50000J0D01*
G01*
X17586160Y-6414450D02*
G75*
G03*
X17586160Y-6414450I-50000J0D01*
G01*
X17586160Y-6668450D02*
G75*
G03*
X17586160Y-6668450I-50000J0D01*
G01*
X19583100Y-9669780D02*
G75*
G03*
X19583100Y-9669780I-50000J0D01*
G01*
X19583100Y-9923780D02*
G75*
G03*
X19583100Y-9923780I-50000J0D01*
G01*
X19583100Y-10177780D02*
G75*
G03*
X19583100Y-10177780I-50000J0D01*
G01*
X19583100Y-10431780D02*
G75*
G03*
X19583100Y-10431780I-50000J0D01*
G01*
X19583100Y-10685780D02*
G75*
G03*
X19583100Y-10685780I-50000J0D01*
G01*
X19583100Y-10939780D02*
G75*
G03*
X19583100Y-10939780I-50000J0D01*
G01*
D13*
X14166080Y-10181200D02*
X14166080Y-10291200D01*
X14111080Y-10236200D02*
X14221080Y-10236200D01*
X14166080Y-11197200D02*
X14166080Y-11307200D01*
X14111080Y-11252200D02*
X14221080Y-11252200D01*
X18918540Y-6923440D02*
X18918540Y-7033440D01*
X18863540Y-6978440D02*
X18973540Y-6978440D01*
X18918540Y-7373440D02*
X18918540Y-7483440D01*
X18863540Y-7428440D02*
X18973540Y-7428440D01*
X19568540Y-6923440D02*
X19568540Y-7033440D01*
X19513540Y-6978440D02*
X19623540Y-6978440D01*
X19568540Y-7373440D02*
X19568540Y-7483440D01*
X19513540Y-7428440D02*
X19623540Y-7428440D01*
D14*
X10068307Y-6935987D02*
X10068307Y-6851133D01*
X9983453Y-6851133D01*
X9983453Y-6935987D01*
X10068307Y-6935987D01*
X10068307Y-7285987D02*
X10068307Y-7201133D01*
X9983453Y-7201133D01*
X9983453Y-7285987D01*
X10068307Y-7285987D01*
X12476767Y-6519427D02*
X12476767Y-6434573D01*
X12391913Y-6434573D01*
X12391913Y-6519427D01*
X12476767Y-6519427D01*
X12826767Y-6519427D02*
X12826767Y-6434573D01*
X12741913Y-6434573D01*
X12741913Y-6519427D01*
X12826767Y-6519427D01*
X13176767Y-6519427D02*
X13176767Y-6434573D01*
X13091913Y-6434573D01*
X13091913Y-6519427D01*
X13176767Y-6519427D01*
D15*
X19245160Y-8157180D02*
X19320160Y-8082180D01*
X19245160Y-8007180D01*
X19170160Y-8082180D01*
X19245160Y-8157180D01*
X19251160Y-8627180D02*
X19326160Y-8552180D01*
X19251160Y-8477180D01*
X19176160Y-8552180D01*
X19251160Y-8627180D01*
X19251160Y-9097180D02*
X19326160Y-9022180D01*
X19251160Y-8947180D01*
X19176160Y-9022180D01*
X19251160Y-9097180D01*
D10*
X14808720Y-10383760D02*
X15008720Y-10583760D01*
X15008720Y-10383760D02*
X14808720Y-10583760D01*
X15008720Y-10483760D02*
G75*
G03*
X15008720Y-10483760I-100000J0D01*
G01*
X15308720Y-10383760D02*
X15508720Y-10583760D01*
X15508720Y-10383760D02*
X15308720Y-10583760D01*
X15508720Y-10483760D02*
G75*
G03*
X15508720Y-10483760I-100000J0D01*
G01*
X9577319Y-12695916D02*
X9577319Y-12495916D01*
X9624938Y-12495916D01*
X9653510Y-12505440D01*
X9672557Y-12524488D01*
X9682081Y-12543535D01*
X9691605Y-12581630D01*
X9691605Y-12610202D01*
X9682081Y-12648297D01*
X9672557Y-12667345D01*
X9653510Y-12686392D01*
X9624938Y-12695916D01*
X9577319Y-12695916D01*
X9777319Y-12695916D02*
X9777319Y-12562583D01*
X9777319Y-12600678D02*
X9786843Y-12581630D01*
X9796367Y-12572107D01*
X9815414Y-12562583D01*
X9834462Y-12562583D01*
X9901129Y-12695916D02*
X9901129Y-12562583D01*
X9901129Y-12495916D02*
X9891605Y-12505440D01*
X9901129Y-12514964D01*
X9910652Y-12505440D01*
X9901129Y-12495916D01*
X9901129Y-12514964D01*
X10024938Y-12695916D02*
X10005890Y-12686392D01*
X9996367Y-12667345D01*
X9996367Y-12495916D01*
X10129700Y-12695916D02*
X10110652Y-12686392D01*
X10101129Y-12667345D01*
X10101129Y-12495916D01*
X10358271Y-12695916D02*
X10358271Y-12495916D01*
X10424938Y-12638773D01*
X10491605Y-12495916D01*
X10491605Y-12695916D01*
X10672557Y-12695916D02*
X10672557Y-12591154D01*
X10663033Y-12572107D01*
X10643986Y-12562583D01*
X10605890Y-12562583D01*
X10586843Y-12572107D01*
X10672557Y-12686392D02*
X10653510Y-12695916D01*
X10605890Y-12695916D01*
X10586843Y-12686392D01*
X10577319Y-12667345D01*
X10577319Y-12648297D01*
X10586843Y-12629249D01*
X10605890Y-12619726D01*
X10653510Y-12619726D01*
X10672557Y-12610202D01*
X10767795Y-12562583D02*
X10767795Y-12762583D01*
X10767795Y-12572107D02*
X10786843Y-12562583D01*
X10824938Y-12562583D01*
X10843986Y-12572107D01*
X10853510Y-12581630D01*
X10863033Y-12600678D01*
X10863033Y-12657821D01*
X10853510Y-12676868D01*
X10843986Y-12686392D01*
X10824938Y-12695916D01*
X10786843Y-12695916D01*
X10767795Y-12686392D01*
X10948748Y-12676868D02*
X10958271Y-12686392D01*
X10948748Y-12695916D01*
X10939224Y-12686392D01*
X10948748Y-12676868D01*
X10948748Y-12695916D01*
X10948748Y-12572107D02*
X10958271Y-12581630D01*
X10948748Y-12591154D01*
X10939224Y-12581630D01*
X10948748Y-12572107D01*
X10948748Y-12591154D01*
D11*
X9279700Y-13005440D02*
X9319700Y-13045440D01*
X9319700Y-13005440D02*
X9279700Y-13045440D01*
D10*
X9615414Y-12915916D02*
X9634462Y-12915916D01*
X9653510Y-12925440D01*
X9663033Y-12934964D01*
X9672557Y-12954011D01*
X9682081Y-12992107D01*
X9682081Y-13039726D01*
X9672557Y-13077821D01*
X9663033Y-13096868D01*
X9653510Y-13106392D01*
X9634462Y-13115916D01*
X9615414Y-13115916D01*
X9596367Y-13106392D01*
X9586843Y-13096868D01*
X9577319Y-13077821D01*
X9567795Y-13039726D01*
X9567795Y-12992107D01*
X9577319Y-12954011D01*
X9586843Y-12934964D01*
X9596367Y-12925440D01*
X9615414Y-12915916D01*
X9767795Y-13096868D02*
X9777319Y-13106392D01*
X9767795Y-13115916D01*
X9758271Y-13106392D01*
X9767795Y-13096868D01*
X9767795Y-13115916D01*
X9948748Y-12982583D02*
X9948748Y-13115916D01*
X9901129Y-12906392D02*
X9853510Y-13049249D01*
X9977319Y-13049249D01*
X10091605Y-12915916D02*
X10110652Y-12915916D01*
X10129700Y-12925440D01*
X10139224Y-12934964D01*
X10148748Y-12954011D01*
X10158271Y-12992107D01*
X10158271Y-13039726D01*
X10148748Y-13077821D01*
X10139224Y-13096868D01*
X10129700Y-13106392D01*
X10110652Y-13115916D01*
X10091605Y-13115916D01*
X10072557Y-13106392D01*
X10063033Y-13096868D01*
X10053510Y-13077821D01*
X10043986Y-13039726D01*
X10043986Y-12992107D01*
X10053510Y-12954011D01*
X10063033Y-12934964D01*
X10072557Y-12925440D01*
X10091605Y-12915916D01*
X10282081Y-12915916D02*
X10301129Y-12915916D01*
X10320176Y-12925440D01*
X10329700Y-12934964D01*
X10339224Y-12954011D01*
X10348748Y-12992107D01*
X10348748Y-13039726D01*
X10339224Y-13077821D01*
X10329700Y-13096868D01*
X10320176Y-13106392D01*
X10301129Y-13115916D01*
X10282081Y-13115916D01*
X10263033Y-13106392D01*
X10253510Y-13096868D01*
X10243986Y-13077821D01*
X10234462Y-13039726D01*
X10234462Y-12992107D01*
X10243986Y-12954011D01*
X10253510Y-12934964D01*
X10263033Y-12925440D01*
X10282081Y-12915916D01*
X10434462Y-13115916D02*
X10434462Y-12982583D01*
X10434462Y-13001630D02*
X10443986Y-12992107D01*
X10463033Y-12982583D01*
X10491605Y-12982583D01*
X10510652Y-12992107D01*
X10520176Y-13011154D01*
X10520176Y-13115916D01*
X10520176Y-13011154D02*
X10529700Y-12992107D01*
X10548748Y-12982583D01*
X10577319Y-12982583D01*
X10596367Y-12992107D01*
X10605890Y-13011154D01*
X10605890Y-13115916D01*
X10701129Y-13115916D02*
X10701129Y-12982583D01*
X10701129Y-13001630D02*
X10710652Y-12992107D01*
X10729700Y-12982583D01*
X10758271Y-12982583D01*
X10777319Y-12992107D01*
X10786843Y-13011154D01*
X10786843Y-13115916D01*
X10786843Y-13011154D02*
X10796367Y-12992107D01*
X10815414Y-12982583D01*
X10843986Y-12982583D01*
X10863033Y-12992107D01*
X10872557Y-13011154D01*
X10872557Y-13115916D01*
X11263033Y-12906392D02*
X11091605Y-13163535D01*
X11520176Y-12915916D02*
X11539224Y-12915916D01*
X11558271Y-12925440D01*
X11567795Y-12934964D01*
X11577319Y-12954011D01*
X11586843Y-12992107D01*
X11586843Y-13039726D01*
X11577319Y-13077821D01*
X11567795Y-13096868D01*
X11558271Y-13106392D01*
X11539224Y-13115916D01*
X11520176Y-13115916D01*
X11501128Y-13106392D01*
X11491605Y-13096868D01*
X11482081Y-13077821D01*
X11472557Y-13039726D01*
X11472557Y-12992107D01*
X11482081Y-12954011D01*
X11491605Y-12934964D01*
X11501128Y-12925440D01*
X11520176Y-12915916D01*
X11672557Y-13096868D02*
X11682081Y-13106392D01*
X11672557Y-13115916D01*
X11663033Y-13106392D01*
X11672557Y-13096868D01*
X11672557Y-13115916D01*
X11805890Y-12915916D02*
X11824938Y-12915916D01*
X11843986Y-12925440D01*
X11853509Y-12934964D01*
X11863033Y-12954011D01*
X11872557Y-12992107D01*
X11872557Y-13039726D01*
X11863033Y-13077821D01*
X11853509Y-13096868D01*
X11843986Y-13106392D01*
X11824938Y-13115916D01*
X11805890Y-13115916D01*
X11786843Y-13106392D01*
X11777319Y-13096868D01*
X11767795Y-13077821D01*
X11758271Y-13039726D01*
X11758271Y-12992107D01*
X11767795Y-12954011D01*
X11777319Y-12934964D01*
X11786843Y-12925440D01*
X11805890Y-12915916D01*
X12063033Y-13115916D02*
X11948748Y-13115916D01*
X12005890Y-13115916D02*
X12005890Y-12915916D01*
X11986843Y-12944488D01*
X11967795Y-12963535D01*
X11948748Y-12973059D01*
X12243986Y-12915916D02*
X12148748Y-12915916D01*
X12139224Y-13011154D01*
X12148748Y-13001630D01*
X12167795Y-12992107D01*
X12215414Y-12992107D01*
X12234462Y-13001630D01*
X12243986Y-13011154D01*
X12253509Y-13030202D01*
X12253509Y-13077821D01*
X12243986Y-13096868D01*
X12234462Y-13106392D01*
X12215414Y-13115916D01*
X12167795Y-13115916D01*
X12148748Y-13106392D01*
X12139224Y-13096868D01*
X12320176Y-12915916D02*
X12453509Y-12915916D01*
X12367795Y-13115916D01*
X12520176Y-12915916D02*
X12520176Y-12954011D01*
X12596367Y-12915916D02*
X12596367Y-12954011D01*
X12891605Y-13192107D02*
X12882081Y-13182583D01*
X12863033Y-13154011D01*
X12853509Y-13134964D01*
X12843986Y-13106392D01*
X12834462Y-13058773D01*
X12834462Y-13020678D01*
X12843986Y-12973059D01*
X12853509Y-12944488D01*
X12863033Y-12925440D01*
X12882081Y-12896868D01*
X12891605Y-12887345D01*
X12977319Y-13115916D02*
X13015414Y-13115916D01*
X13034462Y-13106392D01*
X13043986Y-13096868D01*
X13063033Y-13068297D01*
X13072557Y-13030202D01*
X13072557Y-12954011D01*
X13063033Y-12934964D01*
X13053509Y-12925440D01*
X13034462Y-12915916D01*
X12996367Y-12915916D01*
X12977319Y-12925440D01*
X12967795Y-12934964D01*
X12958271Y-12954011D01*
X12958271Y-13001630D01*
X12967795Y-13020678D01*
X12977319Y-13030202D01*
X12996367Y-13039726D01*
X13034462Y-13039726D01*
X13053509Y-13030202D01*
X13063033Y-13020678D01*
X13072557Y-13001630D01*
X13167795Y-13115916D02*
X13205890Y-13115916D01*
X13224938Y-13106392D01*
X13234462Y-13096868D01*
X13253509Y-13068297D01*
X13263033Y-13030202D01*
X13263033Y-12954011D01*
X13253509Y-12934964D01*
X13243986Y-12925440D01*
X13224938Y-12915916D01*
X13186843Y-12915916D01*
X13167795Y-12925440D01*
X13158271Y-12934964D01*
X13148748Y-12954011D01*
X13148748Y-13001630D01*
X13158271Y-13020678D01*
X13167795Y-13030202D01*
X13186843Y-13039726D01*
X13224938Y-13039726D01*
X13243986Y-13030202D01*
X13253509Y-13020678D01*
X13263033Y-13001630D01*
X13501128Y-13115916D02*
X13501128Y-12915916D01*
X13586843Y-13115916D02*
X13586843Y-13011154D01*
X13577319Y-12992107D01*
X13558271Y-12982583D01*
X13529700Y-12982583D01*
X13510652Y-12992107D01*
X13501128Y-13001630D01*
X13710652Y-13115916D02*
X13691605Y-13106392D01*
X13682081Y-13096868D01*
X13672557Y-13077821D01*
X13672557Y-13020678D01*
X13682081Y-13001630D01*
X13691605Y-12992107D01*
X13710652Y-12982583D01*
X13739224Y-12982583D01*
X13758271Y-12992107D01*
X13767795Y-13001630D01*
X13777319Y-13020678D01*
X13777319Y-13077821D01*
X13767795Y-13096868D01*
X13758271Y-13106392D01*
X13739224Y-13115916D01*
X13710652Y-13115916D01*
X13891605Y-13115916D02*
X13872557Y-13106392D01*
X13863033Y-13087345D01*
X13863033Y-12915916D01*
X14043986Y-13106392D02*
X14024938Y-13115916D01*
X13986843Y-13115916D01*
X13967795Y-13106392D01*
X13958271Y-13087345D01*
X13958271Y-13011154D01*
X13967795Y-12992107D01*
X13986843Y-12982583D01*
X14024938Y-12982583D01*
X14043986Y-12992107D01*
X14053509Y-13011154D01*
X14053509Y-13030202D01*
X13958271Y-13049249D01*
X14129700Y-13106392D02*
X14148748Y-13115916D01*
X14186843Y-13115916D01*
X14205890Y-13106392D01*
X14215414Y-13087345D01*
X14215414Y-13077821D01*
X14205890Y-13058773D01*
X14186843Y-13049249D01*
X14158271Y-13049249D01*
X14139224Y-13039726D01*
X14129700Y-13020678D01*
X14129700Y-13011154D01*
X14139224Y-12992107D01*
X14158271Y-12982583D01*
X14186843Y-12982583D01*
X14205890Y-12992107D01*
X14282081Y-13192107D02*
X14291605Y-13182583D01*
X14310652Y-13154011D01*
X14320176Y-13134964D01*
X14329700Y-13106392D01*
X14339224Y-13058773D01*
X14339224Y-13020678D01*
X14329700Y-12973059D01*
X14320176Y-12944488D01*
X14310652Y-12925440D01*
X14291605Y-12896868D01*
X14282081Y-12887345D01*
D12*
X9319700Y-13289440D02*
G75*
G03*
X9319700Y-13289440I-50000J0D01*
G01*
D10*
X9682081Y-13379916D02*
X9567795Y-13379916D01*
X9624938Y-13379916D02*
X9624938Y-13179916D01*
X9605890Y-13208488D01*
X9586843Y-13227535D01*
X9567795Y-13237059D01*
X9767795Y-13360868D02*
X9777319Y-13370392D01*
X9767795Y-13379916D01*
X9758271Y-13370392D01*
X9767795Y-13360868D01*
X9767795Y-13379916D01*
X9901129Y-13179916D02*
X9920176Y-13179916D01*
X9939224Y-13189440D01*
X9948748Y-13198964D01*
X9958271Y-13218011D01*
X9967795Y-13256107D01*
X9967795Y-13303726D01*
X9958271Y-13341821D01*
X9948748Y-13360868D01*
X9939224Y-13370392D01*
X9920176Y-13379916D01*
X9901129Y-13379916D01*
X9882081Y-13370392D01*
X9872557Y-13360868D01*
X9863033Y-13341821D01*
X9853510Y-13303726D01*
X9853510Y-13256107D01*
X9863033Y-13218011D01*
X9872557Y-13198964D01*
X9882081Y-13189440D01*
X9901129Y-13179916D01*
X10091605Y-13179916D02*
X10110652Y-13179916D01*
X10129700Y-13189440D01*
X10139224Y-13198964D01*
X10148748Y-13218011D01*
X10158271Y-13256107D01*
X10158271Y-13303726D01*
X10148748Y-13341821D01*
X10139224Y-13360868D01*
X10129700Y-13370392D01*
X10110652Y-13379916D01*
X10091605Y-13379916D01*
X10072557Y-13370392D01*
X10063033Y-13360868D01*
X10053510Y-13341821D01*
X10043986Y-13303726D01*
X10043986Y-13256107D01*
X10053510Y-13218011D01*
X10063033Y-13198964D01*
X10072557Y-13189440D01*
X10091605Y-13179916D01*
X10282081Y-13179916D02*
X10301129Y-13179916D01*
X10320176Y-13189440D01*
X10329700Y-13198964D01*
X10339224Y-13218011D01*
X10348748Y-13256107D01*
X10348748Y-13303726D01*
X10339224Y-13341821D01*
X10329700Y-13360868D01*
X10320176Y-13370392D01*
X10301129Y-13379916D01*
X10282081Y-13379916D01*
X10263033Y-13370392D01*
X10253510Y-13360868D01*
X10243986Y-13341821D01*
X10234462Y-13303726D01*
X10234462Y-13256107D01*
X10243986Y-13218011D01*
X10253510Y-13198964D01*
X10263033Y-13189440D01*
X10282081Y-13179916D01*
X10434462Y-13379916D02*
X10434462Y-13246583D01*
X10434462Y-13265630D02*
X10443986Y-13256107D01*
X10463033Y-13246583D01*
X10491605Y-13246583D01*
X10510652Y-13256107D01*
X10520176Y-13275154D01*
X10520176Y-13379916D01*
X10520176Y-13275154D02*
X10529700Y-13256107D01*
X10548748Y-13246583D01*
X10577319Y-13246583D01*
X10596367Y-13256107D01*
X10605890Y-13275154D01*
X10605890Y-13379916D01*
X10701129Y-13379916D02*
X10701129Y-13246583D01*
X10701129Y-13265630D02*
X10710652Y-13256107D01*
X10729700Y-13246583D01*
X10758271Y-13246583D01*
X10777319Y-13256107D01*
X10786843Y-13275154D01*
X10786843Y-13379916D01*
X10786843Y-13275154D02*
X10796367Y-13256107D01*
X10815414Y-13246583D01*
X10843986Y-13246583D01*
X10863033Y-13256107D01*
X10872557Y-13275154D01*
X10872557Y-13379916D01*
X11263033Y-13170392D02*
X11091605Y-13427535D01*
X11520176Y-13179916D02*
X11539224Y-13179916D01*
X11558271Y-13189440D01*
X11567795Y-13198964D01*
X11577319Y-13218011D01*
X11586843Y-13256107D01*
X11586843Y-13303726D01*
X11577319Y-13341821D01*
X11567795Y-13360868D01*
X11558271Y-13370392D01*
X11539224Y-13379916D01*
X11520176Y-13379916D01*
X11501128Y-13370392D01*
X11491605Y-13360868D01*
X11482081Y-13341821D01*
X11472557Y-13303726D01*
X11472557Y-13256107D01*
X11482081Y-13218011D01*
X11491605Y-13198964D01*
X11501128Y-13189440D01*
X11520176Y-13179916D01*
X11672557Y-13360868D02*
X11682081Y-13370392D01*
X11672557Y-13379916D01*
X11663033Y-13370392D01*
X11672557Y-13360868D01*
X11672557Y-13379916D01*
X11805890Y-13179916D02*
X11824938Y-13179916D01*
X11843986Y-13189440D01*
X11853509Y-13198964D01*
X11863033Y-13218011D01*
X11872557Y-13256107D01*
X11872557Y-13303726D01*
X11863033Y-13341821D01*
X11853509Y-13360868D01*
X11843986Y-13370392D01*
X11824938Y-13379916D01*
X11805890Y-13379916D01*
X11786843Y-13370392D01*
X11777319Y-13360868D01*
X11767795Y-13341821D01*
X11758271Y-13303726D01*
X11758271Y-13256107D01*
X11767795Y-13218011D01*
X11777319Y-13198964D01*
X11786843Y-13189440D01*
X11805890Y-13179916D01*
X11939224Y-13179916D02*
X12063033Y-13179916D01*
X11996367Y-13256107D01*
X12024938Y-13256107D01*
X12043986Y-13265630D01*
X12053509Y-13275154D01*
X12063033Y-13294202D01*
X12063033Y-13341821D01*
X12053509Y-13360868D01*
X12043986Y-13370392D01*
X12024938Y-13379916D01*
X11967795Y-13379916D01*
X11948748Y-13370392D01*
X11939224Y-13360868D01*
X12158271Y-13379916D02*
X12196367Y-13379916D01*
X12215414Y-13370392D01*
X12224938Y-13360868D01*
X12243986Y-13332297D01*
X12253509Y-13294202D01*
X12253509Y-13218011D01*
X12243986Y-13198964D01*
X12234462Y-13189440D01*
X12215414Y-13179916D01*
X12177319Y-13179916D01*
X12158271Y-13189440D01*
X12148748Y-13198964D01*
X12139224Y-13218011D01*
X12139224Y-13265630D01*
X12148748Y-13284678D01*
X12158271Y-13294202D01*
X12177319Y-13303726D01*
X12215414Y-13303726D01*
X12234462Y-13294202D01*
X12243986Y-13284678D01*
X12253509Y-13265630D01*
X12424938Y-13246583D02*
X12424938Y-13379916D01*
X12377319Y-13170392D02*
X12329700Y-13313249D01*
X12453509Y-13313249D01*
X12520176Y-13179916D02*
X12520176Y-13218011D01*
X12596367Y-13179916D02*
X12596367Y-13218011D01*
X12891605Y-13456107D02*
X12882081Y-13446583D01*
X12863033Y-13418011D01*
X12853509Y-13398964D01*
X12843986Y-13370392D01*
X12834462Y-13322773D01*
X12834462Y-13284678D01*
X12843986Y-13237059D01*
X12853509Y-13208488D01*
X12863033Y-13189440D01*
X12882081Y-13160868D01*
X12891605Y-13151345D01*
X13072557Y-13379916D02*
X12958271Y-13379916D01*
X13015414Y-13379916D02*
X13015414Y-13179916D01*
X12996367Y-13208488D01*
X12977319Y-13227535D01*
X12958271Y-13237059D01*
X13263033Y-13379916D02*
X13148748Y-13379916D01*
X13205890Y-13379916D02*
X13205890Y-13179916D01*
X13186843Y-13208488D01*
X13167795Y-13227535D01*
X13148748Y-13237059D01*
X13434462Y-13246583D02*
X13434462Y-13379916D01*
X13386843Y-13170392D02*
X13339224Y-13313249D01*
X13463033Y-13313249D01*
X13691605Y-13379916D02*
X13691605Y-13179916D01*
X13777319Y-13379916D02*
X13777319Y-13275154D01*
X13767795Y-13256107D01*
X13748748Y-13246583D01*
X13720176Y-13246583D01*
X13701128Y-13256107D01*
X13691605Y-13265630D01*
X13901128Y-13379916D02*
X13882081Y-13370392D01*
X13872557Y-13360868D01*
X13863033Y-13341821D01*
X13863033Y-13284678D01*
X13872557Y-13265630D01*
X13882081Y-13256107D01*
X13901128Y-13246583D01*
X13929700Y-13246583D01*
X13948748Y-13256107D01*
X13958271Y-13265630D01*
X13967795Y-13284678D01*
X13967795Y-13341821D01*
X13958271Y-13360868D01*
X13948748Y-13370392D01*
X13929700Y-13379916D01*
X13901128Y-13379916D01*
X14082081Y-13379916D02*
X14063033Y-13370392D01*
X14053509Y-13351345D01*
X14053509Y-13179916D01*
X14234462Y-13370392D02*
X14215414Y-13379916D01*
X14177319Y-13379916D01*
X14158271Y-13370392D01*
X14148748Y-13351345D01*
X14148748Y-13275154D01*
X14158271Y-13256107D01*
X14177319Y-13246583D01*
X14215414Y-13246583D01*
X14234462Y-13256107D01*
X14243986Y-13275154D01*
X14243986Y-13294202D01*
X14148748Y-13313249D01*
X14320176Y-13370392D02*
X14339224Y-13379916D01*
X14377319Y-13379916D01*
X14396367Y-13370392D01*
X14405890Y-13351345D01*
X14405890Y-13341821D01*
X14396367Y-13322773D01*
X14377319Y-13313249D01*
X14348748Y-13313249D01*
X14329700Y-13303726D01*
X14320176Y-13284678D01*
X14320176Y-13275154D01*
X14329700Y-13256107D01*
X14348748Y-13246583D01*
X14377319Y-13246583D01*
X14396367Y-13256107D01*
X14472557Y-13456107D02*
X14482081Y-13446583D01*
X14501128Y-13418011D01*
X14510652Y-13398964D01*
X14520176Y-13370392D01*
X14529700Y-13322773D01*
X14529700Y-13284678D01*
X14520176Y-13237059D01*
X14510652Y-13208488D01*
X14501128Y-13189440D01*
X14482081Y-13160868D01*
X14472557Y-13151345D01*
D13*
X9264700Y-13498440D02*
X9264700Y-13608440D01*
X9209700Y-13553440D02*
X9319700Y-13553440D01*
D10*
X9682081Y-13643916D02*
X9567795Y-13643916D01*
X9624938Y-13643916D02*
X9624938Y-13443916D01*
X9605890Y-13472488D01*
X9586843Y-13491535D01*
X9567795Y-13501059D01*
X9767795Y-13624868D02*
X9777319Y-13634392D01*
X9767795Y-13643916D01*
X9758271Y-13634392D01*
X9767795Y-13624868D01*
X9767795Y-13643916D01*
X9967795Y-13643916D02*
X9853510Y-13643916D01*
X9910652Y-13643916D02*
X9910652Y-13443916D01*
X9891605Y-13472488D01*
X9872557Y-13491535D01*
X9853510Y-13501059D01*
X10091605Y-13443916D02*
X10110652Y-13443916D01*
X10129700Y-13453440D01*
X10139224Y-13462964D01*
X10148748Y-13482011D01*
X10158271Y-13520107D01*
X10158271Y-13567726D01*
X10148748Y-13605821D01*
X10139224Y-13624868D01*
X10129700Y-13634392D01*
X10110652Y-13643916D01*
X10091605Y-13643916D01*
X10072557Y-13634392D01*
X10063033Y-13624868D01*
X10053510Y-13605821D01*
X10043986Y-13567726D01*
X10043986Y-13520107D01*
X10053510Y-13482011D01*
X10063033Y-13462964D01*
X10072557Y-13453440D01*
X10091605Y-13443916D01*
X10282081Y-13443916D02*
X10301129Y-13443916D01*
X10320176Y-13453440D01*
X10329700Y-13462964D01*
X10339224Y-13482011D01*
X10348748Y-13520107D01*
X10348748Y-13567726D01*
X10339224Y-13605821D01*
X10329700Y-13624868D01*
X10320176Y-13634392D01*
X10301129Y-13643916D01*
X10282081Y-13643916D01*
X10263033Y-13634392D01*
X10253510Y-13624868D01*
X10243986Y-13605821D01*
X10234462Y-13567726D01*
X10234462Y-13520107D01*
X10243986Y-13482011D01*
X10253510Y-13462964D01*
X10263033Y-13453440D01*
X10282081Y-13443916D01*
X10434462Y-13643916D02*
X10434462Y-13510583D01*
X10434462Y-13529630D02*
X10443986Y-13520107D01*
X10463033Y-13510583D01*
X10491605Y-13510583D01*
X10510652Y-13520107D01*
X10520176Y-13539154D01*
X10520176Y-13643916D01*
X10520176Y-13539154D02*
X10529700Y-13520107D01*
X10548748Y-13510583D01*
X10577319Y-13510583D01*
X10596367Y-13520107D01*
X10605890Y-13539154D01*
X10605890Y-13643916D01*
X10701129Y-13643916D02*
X10701129Y-13510583D01*
X10701129Y-13529630D02*
X10710652Y-13520107D01*
X10729700Y-13510583D01*
X10758271Y-13510583D01*
X10777319Y-13520107D01*
X10786843Y-13539154D01*
X10786843Y-13643916D01*
X10786843Y-13539154D02*
X10796367Y-13520107D01*
X10815414Y-13510583D01*
X10843986Y-13510583D01*
X10863033Y-13520107D01*
X10872557Y-13539154D01*
X10872557Y-13643916D01*
X11263033Y-13434392D02*
X11091605Y-13691535D01*
X11520176Y-13443916D02*
X11539224Y-13443916D01*
X11558271Y-13453440D01*
X11567795Y-13462964D01*
X11577319Y-13482011D01*
X11586843Y-13520107D01*
X11586843Y-13567726D01*
X11577319Y-13605821D01*
X11567795Y-13624868D01*
X11558271Y-13634392D01*
X11539224Y-13643916D01*
X11520176Y-13643916D01*
X11501128Y-13634392D01*
X11491605Y-13624868D01*
X11482081Y-13605821D01*
X11472557Y-13567726D01*
X11472557Y-13520107D01*
X11482081Y-13482011D01*
X11491605Y-13462964D01*
X11501128Y-13453440D01*
X11520176Y-13443916D01*
X11672557Y-13624868D02*
X11682081Y-13634392D01*
X11672557Y-13643916D01*
X11663033Y-13634392D01*
X11672557Y-13624868D01*
X11672557Y-13643916D01*
X11805890Y-13443916D02*
X11824938Y-13443916D01*
X11843986Y-13453440D01*
X11853509Y-13462964D01*
X11863033Y-13482011D01*
X11872557Y-13520107D01*
X11872557Y-13567726D01*
X11863033Y-13605821D01*
X11853509Y-13624868D01*
X11843986Y-13634392D01*
X11824938Y-13643916D01*
X11805890Y-13643916D01*
X11786843Y-13634392D01*
X11777319Y-13624868D01*
X11767795Y-13605821D01*
X11758271Y-13567726D01*
X11758271Y-13520107D01*
X11767795Y-13482011D01*
X11777319Y-13462964D01*
X11786843Y-13453440D01*
X11805890Y-13443916D01*
X12043986Y-13510583D02*
X12043986Y-13643916D01*
X11996367Y-13434392D02*
X11948748Y-13577249D01*
X12072557Y-13577249D01*
X12129700Y-13443916D02*
X12253509Y-13443916D01*
X12186843Y-13520107D01*
X12215414Y-13520107D01*
X12234462Y-13529630D01*
X12243986Y-13539154D01*
X12253509Y-13558202D01*
X12253509Y-13605821D01*
X12243986Y-13624868D01*
X12234462Y-13634392D01*
X12215414Y-13643916D01*
X12158271Y-13643916D01*
X12139224Y-13634392D01*
X12129700Y-13624868D01*
X12320176Y-13443916D02*
X12443986Y-13443916D01*
X12377319Y-13520107D01*
X12405890Y-13520107D01*
X12424938Y-13529630D01*
X12434462Y-13539154D01*
X12443986Y-13558202D01*
X12443986Y-13605821D01*
X12434462Y-13624868D01*
X12424938Y-13634392D01*
X12405890Y-13643916D01*
X12348748Y-13643916D01*
X12329700Y-13634392D01*
X12320176Y-13624868D01*
X12520176Y-13443916D02*
X12520176Y-13482011D01*
X12596367Y-13443916D02*
X12596367Y-13482011D01*
X12891605Y-13720107D02*
X12882081Y-13710583D01*
X12863033Y-13682011D01*
X12853509Y-13662964D01*
X12843986Y-13634392D01*
X12834462Y-13586773D01*
X12834462Y-13548678D01*
X12843986Y-13501059D01*
X12853509Y-13472488D01*
X12863033Y-13453440D01*
X12882081Y-13424868D01*
X12891605Y-13415345D01*
X13053509Y-13443916D02*
X13015414Y-13443916D01*
X12996367Y-13453440D01*
X12986843Y-13462964D01*
X12967795Y-13491535D01*
X12958271Y-13529630D01*
X12958271Y-13605821D01*
X12967795Y-13624868D01*
X12977319Y-13634392D01*
X12996367Y-13643916D01*
X13034462Y-13643916D01*
X13053509Y-13634392D01*
X13063033Y-13624868D01*
X13072557Y-13605821D01*
X13072557Y-13558202D01*
X13063033Y-13539154D01*
X13053509Y-13529630D01*
X13034462Y-13520107D01*
X12996367Y-13520107D01*
X12977319Y-13529630D01*
X12967795Y-13539154D01*
X12958271Y-13558202D01*
X13310652Y-13643916D02*
X13310652Y-13443916D01*
X13396367Y-13643916D02*
X13396367Y-13539154D01*
X13386843Y-13520107D01*
X13367795Y-13510583D01*
X13339224Y-13510583D01*
X13320176Y-13520107D01*
X13310652Y-13529630D01*
X13520176Y-13643916D02*
X13501128Y-13634392D01*
X13491605Y-13624868D01*
X13482081Y-13605821D01*
X13482081Y-13548678D01*
X13491605Y-13529630D01*
X13501128Y-13520107D01*
X13520176Y-13510583D01*
X13548748Y-13510583D01*
X13567795Y-13520107D01*
X13577319Y-13529630D01*
X13586843Y-13548678D01*
X13586843Y-13605821D01*
X13577319Y-13624868D01*
X13567795Y-13634392D01*
X13548748Y-13643916D01*
X13520176Y-13643916D01*
X13701128Y-13643916D02*
X13682081Y-13634392D01*
X13672557Y-13615345D01*
X13672557Y-13443916D01*
X13853509Y-13634392D02*
X13834462Y-13643916D01*
X13796367Y-13643916D01*
X13777319Y-13634392D01*
X13767795Y-13615345D01*
X13767795Y-13539154D01*
X13777319Y-13520107D01*
X13796367Y-13510583D01*
X13834462Y-13510583D01*
X13853509Y-13520107D01*
X13863033Y-13539154D01*
X13863033Y-13558202D01*
X13767795Y-13577249D01*
X13939224Y-13634392D02*
X13958271Y-13643916D01*
X13996367Y-13643916D01*
X14015414Y-13634392D01*
X14024938Y-13615345D01*
X14024938Y-13605821D01*
X14015414Y-13586773D01*
X13996367Y-13577249D01*
X13967795Y-13577249D01*
X13948748Y-13567726D01*
X13939224Y-13548678D01*
X13939224Y-13539154D01*
X13948748Y-13520107D01*
X13967795Y-13510583D01*
X13996367Y-13510583D01*
X14015414Y-13520107D01*
X14091605Y-13720107D02*
X14101128Y-13710583D01*
X14120176Y-13682011D01*
X14129700Y-13662964D01*
X14139224Y-13634392D01*
X14148748Y-13586773D01*
X14148748Y-13548678D01*
X14139224Y-13501059D01*
X14129700Y-13472488D01*
X14120176Y-13453440D01*
X14101128Y-13424868D01*
X14091605Y-13415345D01*
D14*
X9302127Y-13859867D02*
X9302127Y-13775013D01*
X9217273Y-13775013D01*
X9217273Y-13859867D01*
X9302127Y-13859867D01*
D10*
X9682081Y-13907916D02*
X9567795Y-13907916D01*
X9624938Y-13907916D02*
X9624938Y-13707916D01*
X9605890Y-13736488D01*
X9586843Y-13755535D01*
X9567795Y-13765059D01*
X9767795Y-13888868D02*
X9777319Y-13898392D01*
X9767795Y-13907916D01*
X9758271Y-13898392D01*
X9767795Y-13888868D01*
X9767795Y-13907916D01*
X9853510Y-13726964D02*
X9863033Y-13717440D01*
X9882081Y-13707916D01*
X9929700Y-13707916D01*
X9948748Y-13717440D01*
X9958271Y-13726964D01*
X9967795Y-13746011D01*
X9967795Y-13765059D01*
X9958271Y-13793630D01*
X9843986Y-13907916D01*
X9967795Y-13907916D01*
X10091605Y-13707916D02*
X10110652Y-13707916D01*
X10129700Y-13717440D01*
X10139224Y-13726964D01*
X10148748Y-13746011D01*
X10158271Y-13784107D01*
X10158271Y-13831726D01*
X10148748Y-13869821D01*
X10139224Y-13888868D01*
X10129700Y-13898392D01*
X10110652Y-13907916D01*
X10091605Y-13907916D01*
X10072557Y-13898392D01*
X10063033Y-13888868D01*
X10053510Y-13869821D01*
X10043986Y-13831726D01*
X10043986Y-13784107D01*
X10053510Y-13746011D01*
X10063033Y-13726964D01*
X10072557Y-13717440D01*
X10091605Y-13707916D01*
X10282081Y-13707916D02*
X10301129Y-13707916D01*
X10320176Y-13717440D01*
X10329700Y-13726964D01*
X10339224Y-13746011D01*
X10348748Y-13784107D01*
X10348748Y-13831726D01*
X10339224Y-13869821D01*
X10329700Y-13888868D01*
X10320176Y-13898392D01*
X10301129Y-13907916D01*
X10282081Y-13907916D01*
X10263033Y-13898392D01*
X10253510Y-13888868D01*
X10243986Y-13869821D01*
X10234462Y-13831726D01*
X10234462Y-13784107D01*
X10243986Y-13746011D01*
X10253510Y-13726964D01*
X10263033Y-13717440D01*
X10282081Y-13707916D01*
X10434462Y-13907916D02*
X10434462Y-13774583D01*
X10434462Y-13793630D02*
X10443986Y-13784107D01*
X10463033Y-13774583D01*
X10491605Y-13774583D01*
X10510652Y-13784107D01*
X10520176Y-13803154D01*
X10520176Y-13907916D01*
X10520176Y-13803154D02*
X10529700Y-13784107D01*
X10548748Y-13774583D01*
X10577319Y-13774583D01*
X10596367Y-13784107D01*
X10605890Y-13803154D01*
X10605890Y-13907916D01*
X10701129Y-13907916D02*
X10701129Y-13774583D01*
X10701129Y-13793630D02*
X10710652Y-13784107D01*
X10729700Y-13774583D01*
X10758271Y-13774583D01*
X10777319Y-13784107D01*
X10786843Y-13803154D01*
X10786843Y-13907916D01*
X10786843Y-13803154D02*
X10796367Y-13784107D01*
X10815414Y-13774583D01*
X10843986Y-13774583D01*
X10863033Y-13784107D01*
X10872557Y-13803154D01*
X10872557Y-13907916D01*
X11263033Y-13698392D02*
X11091605Y-13955535D01*
X11520176Y-13707916D02*
X11539224Y-13707916D01*
X11558271Y-13717440D01*
X11567795Y-13726964D01*
X11577319Y-13746011D01*
X11586843Y-13784107D01*
X11586843Y-13831726D01*
X11577319Y-13869821D01*
X11567795Y-13888868D01*
X11558271Y-13898392D01*
X11539224Y-13907916D01*
X11520176Y-13907916D01*
X11501128Y-13898392D01*
X11491605Y-13888868D01*
X11482081Y-13869821D01*
X11472557Y-13831726D01*
X11472557Y-13784107D01*
X11482081Y-13746011D01*
X11491605Y-13726964D01*
X11501128Y-13717440D01*
X11520176Y-13707916D01*
X11672557Y-13888868D02*
X11682081Y-13898392D01*
X11672557Y-13907916D01*
X11663033Y-13898392D01*
X11672557Y-13888868D01*
X11672557Y-13907916D01*
X11805890Y-13707916D02*
X11824938Y-13707916D01*
X11843986Y-13717440D01*
X11853509Y-13726964D01*
X11863033Y-13746011D01*
X11872557Y-13784107D01*
X11872557Y-13831726D01*
X11863033Y-13869821D01*
X11853509Y-13888868D01*
X11843986Y-13898392D01*
X11824938Y-13907916D01*
X11805890Y-13907916D01*
X11786843Y-13898392D01*
X11777319Y-13888868D01*
X11767795Y-13869821D01*
X11758271Y-13831726D01*
X11758271Y-13784107D01*
X11767795Y-13746011D01*
X11777319Y-13726964D01*
X11786843Y-13717440D01*
X11805890Y-13707916D01*
X12043986Y-13774583D02*
X12043986Y-13907916D01*
X11996367Y-13698392D02*
X11948748Y-13841249D01*
X12072557Y-13841249D01*
X12129700Y-13707916D02*
X12263033Y-13707916D01*
X12177319Y-13907916D01*
X12329700Y-13726964D02*
X12339224Y-13717440D01*
X12358271Y-13707916D01*
X12405890Y-13707916D01*
X12424938Y-13717440D01*
X12434462Y-13726964D01*
X12443986Y-13746011D01*
X12443986Y-13765059D01*
X12434462Y-13793630D01*
X12320176Y-13907916D01*
X12443986Y-13907916D01*
X12520176Y-13707916D02*
X12520176Y-13746011D01*
X12596367Y-13707916D02*
X12596367Y-13746011D01*
X12891605Y-13984107D02*
X12882081Y-13974583D01*
X12863033Y-13946011D01*
X12853509Y-13926964D01*
X12843986Y-13898392D01*
X12834462Y-13850773D01*
X12834462Y-13812678D01*
X12843986Y-13765059D01*
X12853509Y-13736488D01*
X12863033Y-13717440D01*
X12882081Y-13688868D01*
X12891605Y-13679345D01*
X13063033Y-13707916D02*
X12967795Y-13707916D01*
X12958271Y-13803154D01*
X12967795Y-13793630D01*
X12986843Y-13784107D01*
X13034462Y-13784107D01*
X13053509Y-13793630D01*
X13063033Y-13803154D01*
X13072557Y-13822202D01*
X13072557Y-13869821D01*
X13063033Y-13888868D01*
X13053509Y-13898392D01*
X13034462Y-13907916D01*
X12986843Y-13907916D01*
X12967795Y-13898392D01*
X12958271Y-13888868D01*
X13310652Y-13907916D02*
X13310652Y-13707916D01*
X13396367Y-13907916D02*
X13396367Y-13803154D01*
X13386843Y-13784107D01*
X13367795Y-13774583D01*
X13339224Y-13774583D01*
X13320176Y-13784107D01*
X13310652Y-13793630D01*
X13520176Y-13907916D02*
X13501128Y-13898392D01*
X13491605Y-13888868D01*
X13482081Y-13869821D01*
X13482081Y-13812678D01*
X13491605Y-13793630D01*
X13501128Y-13784107D01*
X13520176Y-13774583D01*
X13548748Y-13774583D01*
X13567795Y-13784107D01*
X13577319Y-13793630D01*
X13586843Y-13812678D01*
X13586843Y-13869821D01*
X13577319Y-13888868D01*
X13567795Y-13898392D01*
X13548748Y-13907916D01*
X13520176Y-13907916D01*
X13701128Y-13907916D02*
X13682081Y-13898392D01*
X13672557Y-13879345D01*
X13672557Y-13707916D01*
X13853509Y-13898392D02*
X13834462Y-13907916D01*
X13796367Y-13907916D01*
X13777319Y-13898392D01*
X13767795Y-13879345D01*
X13767795Y-13803154D01*
X13777319Y-13784107D01*
X13796367Y-13774583D01*
X13834462Y-13774583D01*
X13853509Y-13784107D01*
X13863033Y-13803154D01*
X13863033Y-13822202D01*
X13767795Y-13841249D01*
X13939224Y-13898392D02*
X13958271Y-13907916D01*
X13996367Y-13907916D01*
X14015414Y-13898392D01*
X14024938Y-13879345D01*
X14024938Y-13869821D01*
X14015414Y-13850773D01*
X13996367Y-13841249D01*
X13967795Y-13841249D01*
X13948748Y-13831726D01*
X13939224Y-13812678D01*
X13939224Y-13803154D01*
X13948748Y-13784107D01*
X13967795Y-13774583D01*
X13996367Y-13774583D01*
X14015414Y-13784107D01*
X14091605Y-13984107D02*
X14101128Y-13974583D01*
X14120176Y-13946011D01*
X14129700Y-13926964D01*
X14139224Y-13898392D01*
X14148748Y-13850773D01*
X14148748Y-13812678D01*
X14139224Y-13765059D01*
X14129700Y-13736488D01*
X14120176Y-13717440D01*
X14101128Y-13688868D01*
X14091605Y-13679345D01*
D15*
X9244700Y-14156440D02*
X9319700Y-14081440D01*
X9244700Y-14006440D01*
X9169700Y-14081440D01*
X9244700Y-14156440D01*
D10*
X9682081Y-14171916D02*
X9567795Y-14171916D01*
X9624938Y-14171916D02*
X9624938Y-13971916D01*
X9605890Y-14000488D01*
X9586843Y-14019535D01*
X9567795Y-14029059D01*
X9767795Y-14152868D02*
X9777319Y-14162392D01*
X9767795Y-14171916D01*
X9758271Y-14162392D01*
X9767795Y-14152868D01*
X9767795Y-14171916D01*
X9958271Y-13971916D02*
X9863033Y-13971916D01*
X9853510Y-14067154D01*
X9863033Y-14057630D01*
X9882081Y-14048107D01*
X9929700Y-14048107D01*
X9948748Y-14057630D01*
X9958271Y-14067154D01*
X9967795Y-14086202D01*
X9967795Y-14133821D01*
X9958271Y-14152868D01*
X9948748Y-14162392D01*
X9929700Y-14171916D01*
X9882081Y-14171916D01*
X9863033Y-14162392D01*
X9853510Y-14152868D01*
X10091605Y-13971916D02*
X10110652Y-13971916D01*
X10129700Y-13981440D01*
X10139224Y-13990964D01*
X10148748Y-14010011D01*
X10158271Y-14048107D01*
X10158271Y-14095726D01*
X10148748Y-14133821D01*
X10139224Y-14152868D01*
X10129700Y-14162392D01*
X10110652Y-14171916D01*
X10091605Y-14171916D01*
X10072557Y-14162392D01*
X10063033Y-14152868D01*
X10053510Y-14133821D01*
X10043986Y-14095726D01*
X10043986Y-14048107D01*
X10053510Y-14010011D01*
X10063033Y-13990964D01*
X10072557Y-13981440D01*
X10091605Y-13971916D01*
X10282081Y-13971916D02*
X10301129Y-13971916D01*
X10320176Y-13981440D01*
X10329700Y-13990964D01*
X10339224Y-14010011D01*
X10348748Y-14048107D01*
X10348748Y-14095726D01*
X10339224Y-14133821D01*
X10329700Y-14152868D01*
X10320176Y-14162392D01*
X10301129Y-14171916D01*
X10282081Y-14171916D01*
X10263033Y-14162392D01*
X10253510Y-14152868D01*
X10243986Y-14133821D01*
X10234462Y-14095726D01*
X10234462Y-14048107D01*
X10243986Y-14010011D01*
X10253510Y-13990964D01*
X10263033Y-13981440D01*
X10282081Y-13971916D01*
X10434462Y-14171916D02*
X10434462Y-14038583D01*
X10434462Y-14057630D02*
X10443986Y-14048107D01*
X10463033Y-14038583D01*
X10491605Y-14038583D01*
X10510652Y-14048107D01*
X10520176Y-14067154D01*
X10520176Y-14171916D01*
X10520176Y-14067154D02*
X10529700Y-14048107D01*
X10548748Y-14038583D01*
X10577319Y-14038583D01*
X10596367Y-14048107D01*
X10605890Y-14067154D01*
X10605890Y-14171916D01*
X10701129Y-14171916D02*
X10701129Y-14038583D01*
X10701129Y-14057630D02*
X10710652Y-14048107D01*
X10729700Y-14038583D01*
X10758271Y-14038583D01*
X10777319Y-14048107D01*
X10786843Y-14067154D01*
X10786843Y-14171916D01*
X10786843Y-14067154D02*
X10796367Y-14048107D01*
X10815414Y-14038583D01*
X10843986Y-14038583D01*
X10863033Y-14048107D01*
X10872557Y-14067154D01*
X10872557Y-14171916D01*
X11263033Y-13962392D02*
X11091605Y-14219535D01*
X11520176Y-13971916D02*
X11539224Y-13971916D01*
X11558271Y-13981440D01*
X11567795Y-13990964D01*
X11577319Y-14010011D01*
X11586843Y-14048107D01*
X11586843Y-14095726D01*
X11577319Y-14133821D01*
X11567795Y-14152868D01*
X11558271Y-14162392D01*
X11539224Y-14171916D01*
X11520176Y-14171916D01*
X11501128Y-14162392D01*
X11491605Y-14152868D01*
X11482081Y-14133821D01*
X11472557Y-14095726D01*
X11472557Y-14048107D01*
X11482081Y-14010011D01*
X11491605Y-13990964D01*
X11501128Y-13981440D01*
X11520176Y-13971916D01*
X11672557Y-14152868D02*
X11682081Y-14162392D01*
X11672557Y-14171916D01*
X11663033Y-14162392D01*
X11672557Y-14152868D01*
X11672557Y-14171916D01*
X11805890Y-13971916D02*
X11824938Y-13971916D01*
X11843986Y-13981440D01*
X11853509Y-13990964D01*
X11863033Y-14010011D01*
X11872557Y-14048107D01*
X11872557Y-14095726D01*
X11863033Y-14133821D01*
X11853509Y-14152868D01*
X11843986Y-14162392D01*
X11824938Y-14171916D01*
X11805890Y-14171916D01*
X11786843Y-14162392D01*
X11777319Y-14152868D01*
X11767795Y-14133821D01*
X11758271Y-14095726D01*
X11758271Y-14048107D01*
X11767795Y-14010011D01*
X11777319Y-13990964D01*
X11786843Y-13981440D01*
X11805890Y-13971916D01*
X12053509Y-13971916D02*
X11958271Y-13971916D01*
X11948748Y-14067154D01*
X11958271Y-14057630D01*
X11977319Y-14048107D01*
X12024938Y-14048107D01*
X12043986Y-14057630D01*
X12053509Y-14067154D01*
X12063033Y-14086202D01*
X12063033Y-14133821D01*
X12053509Y-14152868D01*
X12043986Y-14162392D01*
X12024938Y-14171916D01*
X11977319Y-14171916D01*
X11958271Y-14162392D01*
X11948748Y-14152868D01*
X12158271Y-14171916D02*
X12196367Y-14171916D01*
X12215414Y-14162392D01*
X12224938Y-14152868D01*
X12243986Y-14124297D01*
X12253509Y-14086202D01*
X12253509Y-14010011D01*
X12243986Y-13990964D01*
X12234462Y-13981440D01*
X12215414Y-13971916D01*
X12177319Y-13971916D01*
X12158271Y-13981440D01*
X12148748Y-13990964D01*
X12139224Y-14010011D01*
X12139224Y-14057630D01*
X12148748Y-14076678D01*
X12158271Y-14086202D01*
X12177319Y-14095726D01*
X12215414Y-14095726D01*
X12234462Y-14086202D01*
X12243986Y-14076678D01*
X12253509Y-14057630D01*
X12443986Y-14171916D02*
X12329700Y-14171916D01*
X12386843Y-14171916D02*
X12386843Y-13971916D01*
X12367795Y-14000488D01*
X12348748Y-14019535D01*
X12329700Y-14029059D01*
X12520176Y-13971916D02*
X12520176Y-14010011D01*
X12596367Y-13971916D02*
X12596367Y-14010011D01*
X12891605Y-14248107D02*
X12882081Y-14238583D01*
X12863033Y-14210011D01*
X12853509Y-14190964D01*
X12843986Y-14162392D01*
X12834462Y-14114773D01*
X12834462Y-14076678D01*
X12843986Y-14029059D01*
X12853509Y-14000488D01*
X12863033Y-13981440D01*
X12882081Y-13952868D01*
X12891605Y-13943345D01*
X12948748Y-13971916D02*
X13072557Y-13971916D01*
X13005890Y-14048107D01*
X13034462Y-14048107D01*
X13053509Y-14057630D01*
X13063033Y-14067154D01*
X13072557Y-14086202D01*
X13072557Y-14133821D01*
X13063033Y-14152868D01*
X13053509Y-14162392D01*
X13034462Y-14171916D01*
X12977319Y-14171916D01*
X12958271Y-14162392D01*
X12948748Y-14152868D01*
X13310652Y-14171916D02*
X13310652Y-13971916D01*
X13396367Y-14171916D02*
X13396367Y-14067154D01*
X13386843Y-14048107D01*
X13367795Y-14038583D01*
X13339224Y-14038583D01*
X13320176Y-14048107D01*
X13310652Y-14057630D01*
X13520176Y-14171916D02*
X13501128Y-14162392D01*
X13491605Y-14152868D01*
X13482081Y-14133821D01*
X13482081Y-14076678D01*
X13491605Y-14057630D01*
X13501128Y-14048107D01*
X13520176Y-14038583D01*
X13548748Y-14038583D01*
X13567795Y-14048107D01*
X13577319Y-14057630D01*
X13586843Y-14076678D01*
X13586843Y-14133821D01*
X13577319Y-14152868D01*
X13567795Y-14162392D01*
X13548748Y-14171916D01*
X13520176Y-14171916D01*
X13701128Y-14171916D02*
X13682081Y-14162392D01*
X13672557Y-14143345D01*
X13672557Y-13971916D01*
X13853509Y-14162392D02*
X13834462Y-14171916D01*
X13796367Y-14171916D01*
X13777319Y-14162392D01*
X13767795Y-14143345D01*
X13767795Y-14067154D01*
X13777319Y-14048107D01*
X13796367Y-14038583D01*
X13834462Y-14038583D01*
X13853509Y-14048107D01*
X13863033Y-14067154D01*
X13863033Y-14086202D01*
X13767795Y-14105249D01*
X13939224Y-14162392D02*
X13958271Y-14171916D01*
X13996367Y-14171916D01*
X14015414Y-14162392D01*
X14024938Y-14143345D01*
X14024938Y-14133821D01*
X14015414Y-14114773D01*
X13996367Y-14105249D01*
X13967795Y-14105249D01*
X13948748Y-14095726D01*
X13939224Y-14076678D01*
X13939224Y-14067154D01*
X13948748Y-14048107D01*
X13967795Y-14038583D01*
X13996367Y-14038583D01*
X14015414Y-14048107D01*
X14091605Y-14248107D02*
X14101128Y-14238583D01*
X14120176Y-14210011D01*
X14129700Y-14190964D01*
X14139224Y-14162392D01*
X14148748Y-14114773D01*
X14148748Y-14076678D01*
X14139224Y-14029059D01*
X14129700Y-14000488D01*
X14120176Y-13981440D01*
X14101128Y-13952868D01*
X14091605Y-13943345D01*
X9119700Y-14251440D02*
X9319700Y-14451440D01*
X9319700Y-14251440D02*
X9119700Y-14451440D01*
X9319700Y-14351440D02*
G75*
G03*
X9319700Y-14351440I-100000J0D01*
G01*
X9567795Y-14260964D02*
X9577319Y-14251440D01*
X9596367Y-14241916D01*
X9643986Y-14241916D01*
X9663033Y-14251440D01*
X9672557Y-14260964D01*
X9682081Y-14280011D01*
X9682081Y-14299059D01*
X9672557Y-14327630D01*
X9558271Y-14441916D01*
X9682081Y-14441916D01*
X9767795Y-14422868D02*
X9777319Y-14432392D01*
X9767795Y-14441916D01*
X9758271Y-14432392D01*
X9767795Y-14422868D01*
X9767795Y-14441916D01*
X9901129Y-14241916D02*
X9920176Y-14241916D01*
X9939224Y-14251440D01*
X9948748Y-14260964D01*
X9958271Y-14280011D01*
X9967795Y-14318107D01*
X9967795Y-14365726D01*
X9958271Y-14403821D01*
X9948748Y-14422868D01*
X9939224Y-14432392D01*
X9920176Y-14441916D01*
X9901129Y-14441916D01*
X9882081Y-14432392D01*
X9872557Y-14422868D01*
X9863033Y-14403821D01*
X9853510Y-14365726D01*
X9853510Y-14318107D01*
X9863033Y-14280011D01*
X9872557Y-14260964D01*
X9882081Y-14251440D01*
X9901129Y-14241916D01*
X10091605Y-14241916D02*
X10110652Y-14241916D01*
X10129700Y-14251440D01*
X10139224Y-14260964D01*
X10148748Y-14280011D01*
X10158271Y-14318107D01*
X10158271Y-14365726D01*
X10148748Y-14403821D01*
X10139224Y-14422868D01*
X10129700Y-14432392D01*
X10110652Y-14441916D01*
X10091605Y-14441916D01*
X10072557Y-14432392D01*
X10063033Y-14422868D01*
X10053510Y-14403821D01*
X10043986Y-14365726D01*
X10043986Y-14318107D01*
X10053510Y-14280011D01*
X10063033Y-14260964D01*
X10072557Y-14251440D01*
X10091605Y-14241916D01*
X10282081Y-14241916D02*
X10301129Y-14241916D01*
X10320176Y-14251440D01*
X10329700Y-14260964D01*
X10339224Y-14280011D01*
X10348748Y-14318107D01*
X10348748Y-14365726D01*
X10339224Y-14403821D01*
X10329700Y-14422868D01*
X10320176Y-14432392D01*
X10301129Y-14441916D01*
X10282081Y-14441916D01*
X10263033Y-14432392D01*
X10253510Y-14422868D01*
X10243986Y-14403821D01*
X10234462Y-14365726D01*
X10234462Y-14318107D01*
X10243986Y-14280011D01*
X10253510Y-14260964D01*
X10263033Y-14251440D01*
X10282081Y-14241916D01*
X10434462Y-14441916D02*
X10434462Y-14308583D01*
X10434462Y-14327630D02*
X10443986Y-14318107D01*
X10463033Y-14308583D01*
X10491605Y-14308583D01*
X10510652Y-14318107D01*
X10520176Y-14337154D01*
X10520176Y-14441916D01*
X10520176Y-14337154D02*
X10529700Y-14318107D01*
X10548748Y-14308583D01*
X10577319Y-14308583D01*
X10596367Y-14318107D01*
X10605890Y-14337154D01*
X10605890Y-14441916D01*
X10701129Y-14441916D02*
X10701129Y-14308583D01*
X10701129Y-14327630D02*
X10710652Y-14318107D01*
X10729700Y-14308583D01*
X10758271Y-14308583D01*
X10777319Y-14318107D01*
X10786843Y-14337154D01*
X10786843Y-14441916D01*
X10786843Y-14337154D02*
X10796367Y-14318107D01*
X10815414Y-14308583D01*
X10843986Y-14308583D01*
X10863033Y-14318107D01*
X10872557Y-14337154D01*
X10872557Y-14441916D01*
X11263033Y-14232392D02*
X11091605Y-14489535D01*
X11520176Y-14241916D02*
X11539224Y-14241916D01*
X11558271Y-14251440D01*
X11567795Y-14260964D01*
X11577319Y-14280011D01*
X11586843Y-14318107D01*
X11586843Y-14365726D01*
X11577319Y-14403821D01*
X11567795Y-14422868D01*
X11558271Y-14432392D01*
X11539224Y-14441916D01*
X11520176Y-14441916D01*
X11501128Y-14432392D01*
X11491605Y-14422868D01*
X11482081Y-14403821D01*
X11472557Y-14365726D01*
X11472557Y-14318107D01*
X11482081Y-14280011D01*
X11491605Y-14260964D01*
X11501128Y-14251440D01*
X11520176Y-14241916D01*
X11672557Y-14422868D02*
X11682081Y-14432392D01*
X11672557Y-14441916D01*
X11663033Y-14432392D01*
X11672557Y-14422868D01*
X11672557Y-14441916D01*
X11805890Y-14241916D02*
X11824938Y-14241916D01*
X11843986Y-14251440D01*
X11853509Y-14260964D01*
X11863033Y-14280011D01*
X11872557Y-14318107D01*
X11872557Y-14365726D01*
X11863033Y-14403821D01*
X11853509Y-14422868D01*
X11843986Y-14432392D01*
X11824938Y-14441916D01*
X11805890Y-14441916D01*
X11786843Y-14432392D01*
X11777319Y-14422868D01*
X11767795Y-14403821D01*
X11758271Y-14365726D01*
X11758271Y-14318107D01*
X11767795Y-14280011D01*
X11777319Y-14260964D01*
X11786843Y-14251440D01*
X11805890Y-14241916D01*
X11939224Y-14241916D02*
X12072557Y-14241916D01*
X11986843Y-14441916D01*
X12177319Y-14327630D02*
X12158271Y-14318107D01*
X12148748Y-14308583D01*
X12139224Y-14289535D01*
X12139224Y-14280011D01*
X12148748Y-14260964D01*
X12158271Y-14251440D01*
X12177319Y-14241916D01*
X12215414Y-14241916D01*
X12234462Y-14251440D01*
X12243986Y-14260964D01*
X12253509Y-14280011D01*
X12253509Y-14289535D01*
X12243986Y-14308583D01*
X12234462Y-14318107D01*
X12215414Y-14327630D01*
X12177319Y-14327630D01*
X12158271Y-14337154D01*
X12148748Y-14346678D01*
X12139224Y-14365726D01*
X12139224Y-14403821D01*
X12148748Y-14422868D01*
X12158271Y-14432392D01*
X12177319Y-14441916D01*
X12215414Y-14441916D01*
X12234462Y-14432392D01*
X12243986Y-14422868D01*
X12253509Y-14403821D01*
X12253509Y-14365726D01*
X12243986Y-14346678D01*
X12234462Y-14337154D01*
X12215414Y-14327630D01*
X12320176Y-14241916D02*
X12453509Y-14241916D01*
X12367795Y-14441916D01*
X12520176Y-14241916D02*
X12520176Y-14280011D01*
X12596367Y-14241916D02*
X12596367Y-14280011D01*
X12891605Y-14518107D02*
X12882081Y-14508583D01*
X12863033Y-14480011D01*
X12853509Y-14460964D01*
X12843986Y-14432392D01*
X12834462Y-14384773D01*
X12834462Y-14346678D01*
X12843986Y-14299059D01*
X12853509Y-14270488D01*
X12863033Y-14251440D01*
X12882081Y-14222868D01*
X12891605Y-14213345D01*
X12958271Y-14260964D02*
X12967795Y-14251440D01*
X12986843Y-14241916D01*
X13034462Y-14241916D01*
X13053509Y-14251440D01*
X13063033Y-14260964D01*
X13072557Y-14280011D01*
X13072557Y-14299059D01*
X13063033Y-14327630D01*
X12948748Y-14441916D01*
X13072557Y-14441916D01*
X13310652Y-14441916D02*
X13310652Y-14241916D01*
X13396367Y-14441916D02*
X13396367Y-14337154D01*
X13386843Y-14318107D01*
X13367795Y-14308583D01*
X13339224Y-14308583D01*
X13320176Y-14318107D01*
X13310652Y-14327630D01*
X13520176Y-14441916D02*
X13501128Y-14432392D01*
X13491605Y-14422868D01*
X13482081Y-14403821D01*
X13482081Y-14346678D01*
X13491605Y-14327630D01*
X13501128Y-14318107D01*
X13520176Y-14308583D01*
X13548748Y-14308583D01*
X13567795Y-14318107D01*
X13577319Y-14327630D01*
X13586843Y-14346678D01*
X13586843Y-14403821D01*
X13577319Y-14422868D01*
X13567795Y-14432392D01*
X13548748Y-14441916D01*
X13520176Y-14441916D01*
X13701128Y-14441916D02*
X13682081Y-14432392D01*
X13672557Y-14413345D01*
X13672557Y-14241916D01*
X13853509Y-14432392D02*
X13834462Y-14441916D01*
X13796367Y-14441916D01*
X13777319Y-14432392D01*
X13767795Y-14413345D01*
X13767795Y-14337154D01*
X13777319Y-14318107D01*
X13796367Y-14308583D01*
X13834462Y-14308583D01*
X13853509Y-14318107D01*
X13863033Y-14337154D01*
X13863033Y-14356202D01*
X13767795Y-14375249D01*
X13939224Y-14432392D02*
X13958271Y-14441916D01*
X13996367Y-14441916D01*
X14015414Y-14432392D01*
X14024938Y-14413345D01*
X14024938Y-14403821D01*
X14015414Y-14384773D01*
X13996367Y-14375249D01*
X13967795Y-14375249D01*
X13948748Y-14365726D01*
X13939224Y-14346678D01*
X13939224Y-14337154D01*
X13948748Y-14318107D01*
X13967795Y-14308583D01*
X13996367Y-14308583D01*
X14015414Y-14318107D01*
X14091605Y-14518107D02*
X14101128Y-14508583D01*
X14120176Y-14480011D01*
X14129700Y-14460964D01*
X14139224Y-14432392D01*
X14148748Y-14384773D01*
X14148748Y-14346678D01*
X14139224Y-14299059D01*
X14129700Y-14270488D01*
X14120176Y-14251440D01*
X14101128Y-14222868D01*
X14091605Y-14213345D01*
M02*
