%TF.GenerationSoftware,KiCad,Pcbnew,6.0.7-f9a2dced07~116~ubuntu20.04.1*%
%TF.CreationDate,2023-02-02T12:22:44+01:00*%
%TF.ProjectId,MoleNet_V5.2.2,4d6f6c65-4e65-4745-9f56-352e322e322e,1*%
%TF.SameCoordinates,Original*%
%TF.FileFunction,Legend,Bot*%
%TF.FilePolarity,Positive*%
%FSLAX46Y46*%
G04 Gerber Fmt 4.6, Leading zero omitted, Abs format (unit mm)*
G04 Created by KiCad (PCBNEW 6.0.7-f9a2dced07~116~ubuntu20.04.1) date 2023-02-02 12:22:44*
%MOMM*%
%LPD*%
G01*
G04 APERTURE LIST*
G04 Aperture macros list*
%AMRoundRect*
0 Rectangle with rounded corners*
0 $1 Rounding radius*
0 $2 $3 $4 $5 $6 $7 $8 $9 X,Y pos of 4 corners*
0 Add a 4 corners polygon primitive as box body*
4,1,4,$2,$3,$4,$5,$6,$7,$8,$9,$2,$3,0*
0 Add four circle primitives for the rounded corners*
1,1,$1+$1,$2,$3*
1,1,$1+$1,$4,$5*
1,1,$1+$1,$6,$7*
1,1,$1+$1,$8,$9*
0 Add four rect primitives between the rounded corners*
20,1,$1+$1,$2,$3,$4,$5,0*
20,1,$1+$1,$4,$5,$6,$7,0*
20,1,$1+$1,$6,$7,$8,$9,0*
20,1,$1+$1,$8,$9,$2,$3,0*%
G04 Aperture macros list end*
%ADD10C,0.150000*%
%ADD11R,1.700000X1.700000*%
%ADD12O,1.700000X1.700000*%
%ADD13RoundRect,0.250000X-0.600000X0.600000X-0.600000X-0.600000X0.600000X-0.600000X0.600000X0.600000X0*%
%ADD14C,1.700000*%
%ADD15C,2.200000*%
%ADD16R,2.200000X2.200000*%
%ADD17O,2.200000X2.200000*%
%ADD18R,2.400000X2.400000*%
%ADD19C,2.400000*%
%ADD20R,4.000000X4.000000*%
%ADD21C,4.000000*%
%ADD22C,2.000000*%
%ADD23C,2.224000*%
G04 APERTURE END LIST*
D10*
X114507142Y-80100000D02*
X111507142Y-80100000D01*
X113650000Y-81100000D01*
X111507142Y-82100000D01*
X114507142Y-82100000D01*
X114507142Y-83957142D02*
X114364285Y-83671428D01*
X114221428Y-83528571D01*
X113935714Y-83385714D01*
X113078571Y-83385714D01*
X112792857Y-83528571D01*
X112650000Y-83671428D01*
X112507142Y-83957142D01*
X112507142Y-84385714D01*
X112650000Y-84671428D01*
X112792857Y-84814285D01*
X113078571Y-84957142D01*
X113935714Y-84957142D01*
X114221428Y-84814285D01*
X114364285Y-84671428D01*
X114507142Y-84385714D01*
X114507142Y-83957142D01*
X114507142Y-86671428D02*
X114364285Y-86385714D01*
X114078571Y-86242857D01*
X111507142Y-86242857D01*
X114364285Y-88957142D02*
X114507142Y-88671428D01*
X114507142Y-88100000D01*
X114364285Y-87814285D01*
X114078571Y-87671428D01*
X112935714Y-87671428D01*
X112650000Y-87814285D01*
X112507142Y-88100000D01*
X112507142Y-88671428D01*
X112650000Y-88957142D01*
X112935714Y-89100000D01*
X113221428Y-89100000D01*
X113507142Y-87671428D01*
X114507142Y-90385714D02*
X111507142Y-90385714D01*
X114507142Y-92100000D01*
X111507142Y-92100000D01*
X114364285Y-94671428D02*
X114507142Y-94385714D01*
X114507142Y-93814285D01*
X114364285Y-93528571D01*
X114078571Y-93385714D01*
X112935714Y-93385714D01*
X112650000Y-93528571D01*
X112507142Y-93814285D01*
X112507142Y-94385714D01*
X112650000Y-94671428D01*
X112935714Y-94814285D01*
X113221428Y-94814285D01*
X113507142Y-93385714D01*
X112507142Y-95671428D02*
X112507142Y-96814285D01*
X111507142Y-96100000D02*
X114078571Y-96100000D01*
X114364285Y-96242857D01*
X114507142Y-96528571D01*
X114507142Y-96814285D01*
X111507142Y-99671428D02*
X114507142Y-100671428D01*
X111507142Y-101671428D01*
X111507142Y-104100000D02*
X111507142Y-102671428D01*
X112935714Y-102528571D01*
X112792857Y-102671428D01*
X112650000Y-102957142D01*
X112650000Y-103671428D01*
X112792857Y-103957142D01*
X112935714Y-104100000D01*
X113221428Y-104242857D01*
X113935714Y-104242857D01*
X114221428Y-104100000D01*
X114364285Y-103957142D01*
X114507142Y-103671428D01*
X114507142Y-102957142D01*
X114364285Y-102671428D01*
X114221428Y-102528571D01*
X184461428Y-69911428D02*
X184604285Y-69768571D01*
X184747142Y-69340000D01*
X184747142Y-69054285D01*
X184604285Y-68625714D01*
X184318571Y-68340000D01*
X184032857Y-68197142D01*
X183461428Y-68054285D01*
X183032857Y-68054285D01*
X182461428Y-68197142D01*
X182175714Y-68340000D01*
X181890000Y-68625714D01*
X181747142Y-69054285D01*
X181747142Y-69340000D01*
X181890000Y-69768571D01*
X182032857Y-69911428D01*
X184747142Y-71625714D02*
X184604285Y-71340000D01*
X184461428Y-71197142D01*
X184175714Y-71054285D01*
X183318571Y-71054285D01*
X183032857Y-71197142D01*
X182890000Y-71340000D01*
X182747142Y-71625714D01*
X182747142Y-72054285D01*
X182890000Y-72340000D01*
X183032857Y-72482857D01*
X183318571Y-72625714D01*
X184175714Y-72625714D01*
X184461428Y-72482857D01*
X184604285Y-72340000D01*
X184747142Y-72054285D01*
X184747142Y-71625714D01*
X184747142Y-73911428D02*
X182747142Y-73911428D01*
X183032857Y-73911428D02*
X182890000Y-74054285D01*
X182747142Y-74340000D01*
X182747142Y-74768571D01*
X182890000Y-75054285D01*
X183175714Y-75197142D01*
X184747142Y-75197142D01*
X183175714Y-75197142D02*
X182890000Y-75340000D01*
X182747142Y-75625714D01*
X182747142Y-76054285D01*
X182890000Y-76340000D01*
X183175714Y-76482857D01*
X184747142Y-76482857D01*
X182747142Y-77911428D02*
X184747142Y-77911428D01*
X183032857Y-77911428D02*
X182890000Y-78054285D01*
X182747142Y-78340000D01*
X182747142Y-78768571D01*
X182890000Y-79054285D01*
X183175714Y-79197142D01*
X184747142Y-79197142D01*
X184604285Y-81768571D02*
X184747142Y-81482857D01*
X184747142Y-80911428D01*
X184604285Y-80625714D01*
X184318571Y-80482857D01*
X183175714Y-80482857D01*
X182890000Y-80625714D01*
X182747142Y-80911428D01*
X182747142Y-81482857D01*
X182890000Y-81768571D01*
X183175714Y-81911428D01*
X183461428Y-81911428D01*
X183747142Y-80482857D01*
X182747142Y-82768571D02*
X182747142Y-83911428D01*
X181747142Y-83197142D02*
X184318571Y-83197142D01*
X184604285Y-83340000D01*
X184747142Y-83625714D01*
X184747142Y-83911428D01*
X184604285Y-84768571D02*
X184747142Y-85054285D01*
X184747142Y-85625714D01*
X184604285Y-85911428D01*
X184318571Y-86054285D01*
X184175714Y-86054285D01*
X183890000Y-85911428D01*
X183747142Y-85625714D01*
X183747142Y-85197142D01*
X183604285Y-84911428D01*
X183318571Y-84768571D01*
X183175714Y-84768571D01*
X182890000Y-84911428D01*
X182747142Y-85197142D01*
X182747142Y-85625714D01*
X182890000Y-85911428D01*
X181747142Y-89625714D02*
X184175714Y-89625714D01*
X184461428Y-89768571D01*
X184604285Y-89911428D01*
X184747142Y-90197142D01*
X184747142Y-90768571D01*
X184604285Y-91054285D01*
X184461428Y-91197142D01*
X184175714Y-91340000D01*
X181747142Y-91340000D01*
X182747142Y-92768571D02*
X184747142Y-92768571D01*
X183032857Y-92768571D02*
X182890000Y-92911428D01*
X182747142Y-93197142D01*
X182747142Y-93625714D01*
X182890000Y-93911428D01*
X183175714Y-94054285D01*
X184747142Y-94054285D01*
X184747142Y-95482857D02*
X182747142Y-95482857D01*
X181747142Y-95482857D02*
X181890000Y-95340000D01*
X182032857Y-95482857D01*
X181890000Y-95625714D01*
X181747142Y-95482857D01*
X182032857Y-95482857D01*
X183175714Y-100197142D02*
X183318571Y-100625714D01*
X183461428Y-100768571D01*
X183747142Y-100911428D01*
X184175714Y-100911428D01*
X184461428Y-100768571D01*
X184604285Y-100625714D01*
X184747142Y-100340000D01*
X184747142Y-99197142D01*
X181747142Y-99197142D01*
X181747142Y-100197142D01*
X181890000Y-100482857D01*
X182032857Y-100625714D01*
X182318571Y-100768571D01*
X182604285Y-100768571D01*
X182890000Y-100625714D01*
X183032857Y-100482857D01*
X183175714Y-100197142D01*
X183175714Y-99197142D01*
X184747142Y-102197142D02*
X182747142Y-102197142D01*
X183318571Y-102197142D02*
X183032857Y-102340000D01*
X182890000Y-102482857D01*
X182747142Y-102768571D01*
X182747142Y-103054285D01*
X184604285Y-105197142D02*
X184747142Y-104911428D01*
X184747142Y-104340000D01*
X184604285Y-104054285D01*
X184318571Y-103911428D01*
X183175714Y-103911428D01*
X182890000Y-104054285D01*
X182747142Y-104340000D01*
X182747142Y-104911428D01*
X182890000Y-105197142D01*
X183175714Y-105340000D01*
X183461428Y-105340000D01*
X183747142Y-103911428D01*
X184747142Y-106625714D02*
X182747142Y-106625714D01*
X183032857Y-106625714D02*
X182890000Y-106768571D01*
X182747142Y-107054285D01*
X182747142Y-107482857D01*
X182890000Y-107768571D01*
X183175714Y-107911428D01*
X184747142Y-107911428D01*
X183175714Y-107911428D02*
X182890000Y-108054285D01*
X182747142Y-108340000D01*
X182747142Y-108768571D01*
X182890000Y-109054285D01*
X183175714Y-109197142D01*
X184747142Y-109197142D01*
X184604285Y-111768571D02*
X184747142Y-111482857D01*
X184747142Y-110911428D01*
X184604285Y-110625714D01*
X184318571Y-110482857D01*
X183175714Y-110482857D01*
X182890000Y-110625714D01*
X182747142Y-110911428D01*
X182747142Y-111482857D01*
X182890000Y-111768571D01*
X183175714Y-111911428D01*
X183461428Y-111911428D01*
X183747142Y-110482857D01*
X182747142Y-113197142D02*
X184747142Y-113197142D01*
X183032857Y-113197142D02*
X182890000Y-113340000D01*
X182747142Y-113625714D01*
X182747142Y-114054285D01*
X182890000Y-114340000D01*
X183175714Y-114482857D01*
X184747142Y-114482857D01*
%TO.C,G\u002A\u002A\u002A*%
G36*
X106230811Y-74841543D02*
G01*
X106354876Y-74956317D01*
X106482989Y-75066389D01*
X106609812Y-75166881D01*
X106730008Y-75252915D01*
X106736312Y-75257140D01*
X106798137Y-75298061D01*
X106849227Y-75330054D01*
X106895641Y-75356046D01*
X106943438Y-75378964D01*
X106998678Y-75401734D01*
X107067419Y-75427283D01*
X107155722Y-75458537D01*
X107162795Y-75461017D01*
X107229898Y-75484596D01*
X107290883Y-75506117D01*
X107339282Y-75523292D01*
X107368628Y-75533835D01*
X107412561Y-75549914D01*
X107412561Y-75912577D01*
X107412191Y-76008209D01*
X107411163Y-76094300D01*
X107409573Y-76167353D01*
X107407522Y-76223868D01*
X107405105Y-76260345D01*
X107402422Y-76273287D01*
X107399778Y-76273299D01*
X107366245Y-76273757D01*
X107308364Y-76274835D01*
X107227647Y-76276496D01*
X107125604Y-76278703D01*
X107003747Y-76281420D01*
X106863586Y-76284607D01*
X106706634Y-76288230D01*
X106534400Y-76292250D01*
X106348395Y-76296630D01*
X106150132Y-76301334D01*
X105941121Y-76306323D01*
X105722872Y-76311561D01*
X105496898Y-76317011D01*
X105264708Y-76322635D01*
X105027815Y-76328397D01*
X104787729Y-76334258D01*
X104545961Y-76340183D01*
X104304022Y-76346134D01*
X104063423Y-76352073D01*
X103825676Y-76357964D01*
X103592291Y-76363769D01*
X103364779Y-76369452D01*
X103144652Y-76374975D01*
X102933421Y-76380300D01*
X102732595Y-76385391D01*
X102543688Y-76390211D01*
X102368209Y-76394723D01*
X102207670Y-76398889D01*
X102063581Y-76402672D01*
X101937454Y-76406034D01*
X101830800Y-76408940D01*
X101745130Y-76411352D01*
X101681955Y-76413232D01*
X101642785Y-76414543D01*
X101629133Y-76415249D01*
X101628057Y-76427029D01*
X101629820Y-76427764D01*
X101651572Y-76435554D01*
X101696904Y-76451361D01*
X101764317Y-76474672D01*
X101852313Y-76504976D01*
X101959395Y-76541758D01*
X102084065Y-76584505D01*
X102224826Y-76632706D01*
X102380179Y-76685846D01*
X102548628Y-76743413D01*
X102728673Y-76804894D01*
X102918819Y-76869776D01*
X103117566Y-76937546D01*
X103323418Y-77007690D01*
X103388432Y-77029837D01*
X103593224Y-77099604D01*
X103790964Y-77166975D01*
X103980105Y-77231423D01*
X104159104Y-77292423D01*
X104326415Y-77349447D01*
X104480493Y-77401968D01*
X104619794Y-77449461D01*
X104742772Y-77491397D01*
X104847883Y-77527251D01*
X104933581Y-77556496D01*
X104998322Y-77578605D01*
X105040561Y-77593052D01*
X105058752Y-77599309D01*
X105070541Y-77603735D01*
X105090642Y-77615646D01*
X105085788Y-77625445D01*
X105082320Y-77626829D01*
X105056689Y-77636006D01*
X105007623Y-77653144D01*
X104936623Y-77677729D01*
X104845190Y-77709247D01*
X104734826Y-77747183D01*
X104607030Y-77791023D01*
X104463303Y-77840252D01*
X104305147Y-77894358D01*
X104134062Y-77952824D01*
X103951549Y-78015138D01*
X103759110Y-78080785D01*
X103558244Y-78149250D01*
X103350453Y-78220019D01*
X103255849Y-78252232D01*
X103051350Y-78321897D01*
X102854617Y-78388960D01*
X102667135Y-78452914D01*
X102490391Y-78513250D01*
X102325871Y-78569460D01*
X102175060Y-78621034D01*
X102039444Y-78667465D01*
X101920509Y-78708243D01*
X101819741Y-78742861D01*
X101738626Y-78770809D01*
X101678650Y-78791579D01*
X101641298Y-78804662D01*
X101628057Y-78809550D01*
X101629154Y-78821342D01*
X101629523Y-78821409D01*
X101647147Y-78822210D01*
X101690058Y-78823611D01*
X101756745Y-78825575D01*
X101845698Y-78828065D01*
X101955405Y-78831043D01*
X102084355Y-78834473D01*
X102231038Y-78838317D01*
X102393942Y-78842538D01*
X102571556Y-78847098D01*
X102762369Y-78851962D01*
X102964869Y-78857091D01*
X103177547Y-78862449D01*
X103398890Y-78867998D01*
X103627387Y-78873702D01*
X103861529Y-78879522D01*
X104099802Y-78885422D01*
X104340697Y-78891365D01*
X104582703Y-78897314D01*
X104824307Y-78903231D01*
X105064000Y-78909079D01*
X105300269Y-78914821D01*
X105531605Y-78920420D01*
X105756495Y-78925839D01*
X105973429Y-78931041D01*
X106180896Y-78935988D01*
X106377384Y-78940644D01*
X106561383Y-78944971D01*
X106731382Y-78948931D01*
X106885868Y-78952489D01*
X107023332Y-78955606D01*
X107142262Y-78958246D01*
X107241147Y-78960372D01*
X107318476Y-78961945D01*
X107372739Y-78962930D01*
X107402422Y-78963289D01*
X107402629Y-78963366D01*
X107405268Y-78978207D01*
X107407640Y-79016361D01*
X107409651Y-79074368D01*
X107411204Y-79148764D01*
X107412206Y-79236090D01*
X107412561Y-79332884D01*
X107412561Y-79702460D01*
X107321315Y-79717802D01*
X107311219Y-79719498D01*
X107249389Y-79729846D01*
X107177252Y-79741873D01*
X107108410Y-79753312D01*
X107095173Y-79755587D01*
X107007650Y-79773409D01*
X106902429Y-79798515D01*
X106786015Y-79829138D01*
X106664911Y-79863508D01*
X106545622Y-79899860D01*
X106434653Y-79936424D01*
X106374653Y-79958008D01*
X106141080Y-80059891D01*
X105918267Y-80186229D01*
X105707466Y-80336247D01*
X105509926Y-80509172D01*
X105508784Y-80510274D01*
X105469626Y-80545110D01*
X105446978Y-80558663D01*
X105441129Y-80551271D01*
X105452368Y-80523274D01*
X105480982Y-80475014D01*
X105516046Y-80428029D01*
X105578910Y-80359973D01*
X105659816Y-80284203D01*
X105755499Y-80203447D01*
X105862698Y-80120433D01*
X105978150Y-80037890D01*
X106098592Y-79958546D01*
X106142023Y-79930734D01*
X106183622Y-79903067D01*
X106211132Y-79883512D01*
X106220100Y-79875124D01*
X106218529Y-79874530D01*
X106197619Y-79876150D01*
X106157646Y-79883331D01*
X106104246Y-79894810D01*
X106043055Y-79909325D01*
X105979709Y-79925611D01*
X105919844Y-79942407D01*
X105904981Y-79946784D01*
X105834662Y-79967209D01*
X105756283Y-79989636D01*
X105684206Y-80009950D01*
X105665259Y-80015439D01*
X105599274Y-80036359D01*
X105519656Y-80063498D01*
X105434780Y-80093952D01*
X105353019Y-80124817D01*
X105255778Y-80162099D01*
X105163698Y-80195871D01*
X105093536Y-80219483D01*
X105043799Y-80233397D01*
X105012992Y-80238074D01*
X104999622Y-80233975D01*
X104999037Y-80232865D01*
X105004235Y-80214081D01*
X105029366Y-80188671D01*
X105069896Y-80160399D01*
X105121289Y-80133027D01*
X105141604Y-80123591D01*
X105193166Y-80099602D01*
X105254917Y-80070840D01*
X105317560Y-80041635D01*
X105373103Y-80016479D01*
X105453318Y-79982924D01*
X105540459Y-79949894D01*
X105639363Y-79915663D01*
X105754866Y-79878506D01*
X105891805Y-79836695D01*
X105920525Y-79828090D01*
X105999268Y-79804476D01*
X106074041Y-79782026D01*
X106137535Y-79762934D01*
X106182438Y-79749397D01*
X106186633Y-79748123D01*
X106228223Y-79734332D01*
X106244707Y-79725952D01*
X106235806Y-79722975D01*
X106201243Y-79725396D01*
X106140740Y-79733208D01*
X106054019Y-79746404D01*
X106031053Y-79750053D01*
X105950796Y-79762778D01*
X105857101Y-79777605D01*
X105759808Y-79792977D01*
X105668761Y-79807339D01*
X105484482Y-79839224D01*
X105230592Y-79892708D01*
X104990206Y-79954650D01*
X104769825Y-80023487D01*
X104763980Y-80025060D01*
X104767199Y-80020386D01*
X104790102Y-80006521D01*
X104820827Y-79991052D01*
X104886567Y-79962722D01*
X104970510Y-79930255D01*
X105067824Y-79895236D01*
X105173680Y-79859252D01*
X105283246Y-79823888D01*
X105391692Y-79790729D01*
X105494187Y-79761361D01*
X105585900Y-79737370D01*
X105662002Y-79720340D01*
X105685641Y-79715552D01*
X105744649Y-79702252D01*
X105799228Y-79688283D01*
X105843871Y-79675211D01*
X105873073Y-79664599D01*
X105881329Y-79658013D01*
X105880916Y-79657814D01*
X105863252Y-79656053D01*
X105822495Y-79654026D01*
X105762141Y-79651847D01*
X105685685Y-79649630D01*
X105596622Y-79647489D01*
X105498448Y-79645537D01*
X105488159Y-79645335D01*
X105440157Y-79644199D01*
X105368916Y-79642331D01*
X105276059Y-79639780D01*
X105163206Y-79636595D01*
X105031978Y-79632826D01*
X104883998Y-79628522D01*
X104720886Y-79623733D01*
X104544264Y-79618510D01*
X104355752Y-79612900D01*
X104156974Y-79606955D01*
X103949549Y-79600723D01*
X103735099Y-79594255D01*
X103515246Y-79587599D01*
X103291610Y-79580806D01*
X103065814Y-79573925D01*
X102839478Y-79567006D01*
X102614225Y-79560098D01*
X102391674Y-79553251D01*
X102173449Y-79546515D01*
X101961169Y-79539939D01*
X101756457Y-79533572D01*
X101560933Y-79527465D01*
X101376220Y-79521668D01*
X101203938Y-79516228D01*
X101045708Y-79511198D01*
X100903153Y-79506625D01*
X100777894Y-79502559D01*
X100671551Y-79499051D01*
X100585747Y-79496150D01*
X100522102Y-79493905D01*
X100482238Y-79492365D01*
X100467776Y-79491582D01*
X100467279Y-79486686D01*
X100466502Y-79458769D01*
X100465810Y-79408928D01*
X100465229Y-79340357D01*
X100464783Y-79256253D01*
X100464498Y-79159813D01*
X100464397Y-79054232D01*
X100464397Y-78617960D01*
X100744892Y-78522209D01*
X100792666Y-78505921D01*
X100868374Y-78480143D01*
X100965172Y-78447210D01*
X101080674Y-78407933D01*
X101212494Y-78363121D01*
X101358247Y-78313586D01*
X101515547Y-78260138D01*
X101682010Y-78203588D01*
X101855249Y-78144747D01*
X102032879Y-78084426D01*
X102212515Y-78023434D01*
X102247925Y-78011406D01*
X102417998Y-77953446D01*
X102579911Y-77897958D01*
X102731918Y-77845559D01*
X102872273Y-77796864D01*
X102999230Y-77752488D01*
X103111041Y-77713046D01*
X103205961Y-77679154D01*
X103282245Y-77651428D01*
X103338144Y-77630482D01*
X103371913Y-77616932D01*
X103381807Y-77611393D01*
X103379450Y-77610457D01*
X103356035Y-77602131D01*
X103309218Y-77585886D01*
X103240637Y-77562280D01*
X103151928Y-77531871D01*
X103044731Y-77495219D01*
X102920681Y-77452882D01*
X102781416Y-77405418D01*
X102628575Y-77353386D01*
X102463793Y-77297345D01*
X102288709Y-77237852D01*
X102104961Y-77175467D01*
X101914184Y-77110749D01*
X100464397Y-76619122D01*
X100464397Y-75746066D01*
X100521848Y-75746716D01*
X100528006Y-75746735D01*
X100564815Y-75746262D01*
X100625458Y-75745007D01*
X100708296Y-75743021D01*
X100811689Y-75740353D01*
X100933994Y-75737056D01*
X101073572Y-75733180D01*
X101228783Y-75728776D01*
X101397985Y-75723895D01*
X101579537Y-75718587D01*
X101771801Y-75712904D01*
X101973133Y-75706896D01*
X102181895Y-75700614D01*
X102396445Y-75694109D01*
X102615143Y-75687433D01*
X102836348Y-75680635D01*
X103058420Y-75673766D01*
X103279718Y-75666878D01*
X103498601Y-75660021D01*
X103713428Y-75653247D01*
X103922560Y-75646605D01*
X104124355Y-75640148D01*
X104317173Y-75633925D01*
X104499373Y-75627987D01*
X104669315Y-75622387D01*
X104825358Y-75617173D01*
X104965861Y-75612398D01*
X105089184Y-75608111D01*
X105193686Y-75604365D01*
X105277726Y-75601209D01*
X105339664Y-75598695D01*
X105377860Y-75596873D01*
X105390672Y-75595794D01*
X105379199Y-75588036D01*
X105351889Y-75578501D01*
X105334132Y-75572766D01*
X105291126Y-75556115D01*
X105231680Y-75531424D01*
X105160496Y-75500792D01*
X105082275Y-75466319D01*
X105001720Y-75430104D01*
X104923531Y-75394247D01*
X104852410Y-75360846D01*
X104793060Y-75332002D01*
X104750180Y-75309814D01*
X104730519Y-75298774D01*
X104691782Y-75275179D01*
X104667909Y-75257814D01*
X104663447Y-75249824D01*
X104663498Y-75249808D01*
X104679780Y-75253050D01*
X104717984Y-75264350D01*
X104774656Y-75282571D01*
X104846342Y-75306577D01*
X104929589Y-75335234D01*
X105020943Y-75367405D01*
X105098946Y-75394932D01*
X105257310Y-75448913D01*
X105395475Y-75492817D01*
X105516525Y-75527344D01*
X105623541Y-75553194D01*
X105719606Y-75571070D01*
X105807801Y-75581671D01*
X105891209Y-75585698D01*
X105972912Y-75583852D01*
X106094573Y-75577093D01*
X105925600Y-75503834D01*
X105915512Y-75499452D01*
X105621204Y-75363680D01*
X105337796Y-75217691D01*
X105067977Y-75063195D01*
X104814437Y-74901898D01*
X104579864Y-74735508D01*
X104366948Y-74565734D01*
X104178378Y-74394283D01*
X104161832Y-74378048D01*
X104100782Y-74316894D01*
X104058144Y-74271319D01*
X104032500Y-74239335D01*
X104022430Y-74218952D01*
X104026514Y-74208181D01*
X104043333Y-74205033D01*
X104043562Y-74205035D01*
X104069678Y-74212743D01*
X104115928Y-74234600D01*
X104180235Y-74269404D01*
X104260524Y-74315950D01*
X104354719Y-74373037D01*
X104460743Y-74439461D01*
X104576520Y-74514019D01*
X104643234Y-74557030D01*
X104831306Y-74673333D01*
X105020069Y-74783189D01*
X105204302Y-74883714D01*
X105378785Y-74972027D01*
X105538298Y-75045242D01*
X105546922Y-75048949D01*
X105640685Y-75088519D01*
X105729832Y-75124883D01*
X105811001Y-75156778D01*
X105880830Y-75182941D01*
X105935954Y-75202108D01*
X105973013Y-75213017D01*
X105988643Y-75214404D01*
X105984046Y-75208871D01*
X105961202Y-75189703D01*
X105922444Y-75159537D01*
X105871255Y-75121067D01*
X105811116Y-75076988D01*
X105804412Y-75072128D01*
X105751322Y-75033440D01*
X105704165Y-74998511D01*
X105659628Y-74964679D01*
X105614398Y-74929281D01*
X105565162Y-74889655D01*
X105508606Y-74843139D01*
X105441418Y-74787069D01*
X105360283Y-74718783D01*
X105261889Y-74635618D01*
X105231411Y-74609435D01*
X105124291Y-74511281D01*
X105021805Y-74408293D01*
X104927487Y-74304497D01*
X104844868Y-74203916D01*
X104777483Y-74110574D01*
X104728863Y-74028495D01*
X104711218Y-73989135D01*
X104698206Y-73947719D01*
X104695473Y-73918625D01*
X104704200Y-73907641D01*
X104711808Y-73912881D01*
X104736301Y-73934172D01*
X104774161Y-73968971D01*
X104822031Y-74014181D01*
X104876552Y-74066702D01*
X104918915Y-74107739D01*
X104967977Y-74154582D01*
X105013064Y-74196405D01*
X105057797Y-74236290D01*
X105105799Y-74277318D01*
X105160692Y-74322569D01*
X105226099Y-74375126D01*
X105305640Y-74438070D01*
X105402938Y-74514480D01*
X105440013Y-74543364D01*
X105515892Y-74601514D01*
X105592141Y-74658825D01*
X105665647Y-74713059D01*
X105733300Y-74761979D01*
X105791986Y-74803347D01*
X105838594Y-74834925D01*
X105870012Y-74854476D01*
X105883127Y-74859762D01*
X105883294Y-74859488D01*
X105878163Y-74845123D01*
X105871133Y-74831711D01*
X106034826Y-74831711D01*
X106035996Y-74840113D01*
X106051073Y-74865664D01*
X106078775Y-74907960D01*
X106088389Y-74922278D01*
X106139389Y-74992309D01*
X106191976Y-75052440D01*
X106251849Y-75108065D01*
X106324708Y-75164577D01*
X106416252Y-75227372D01*
X106452316Y-75251175D01*
X106510987Y-75290063D01*
X106559963Y-75322735D01*
X106594945Y-75346316D01*
X106611629Y-75357932D01*
X106620041Y-75363470D01*
X106628527Y-75364091D01*
X106621400Y-75355274D01*
X106598137Y-75333941D01*
X106564317Y-75305775D01*
X106548243Y-75292719D01*
X106482812Y-75237485D01*
X106404615Y-75168968D01*
X106318619Y-75091620D01*
X106229790Y-75009892D01*
X106143095Y-74928237D01*
X106127567Y-74913434D01*
X106079330Y-74867967D01*
X106048844Y-74840861D01*
X106034826Y-74831711D01*
X105871133Y-74831711D01*
X105862127Y-74814530D01*
X105838386Y-74773856D01*
X105776407Y-74661564D01*
X105709715Y-74519072D01*
X105642962Y-74354754D01*
X105577285Y-74171239D01*
X105558273Y-74113597D01*
X105527640Y-74014787D01*
X105502314Y-73925187D01*
X105483075Y-73848038D01*
X105470702Y-73786583D01*
X105465976Y-73744063D01*
X105469675Y-73723722D01*
X105470637Y-73722844D01*
X105487814Y-73724079D01*
X105511053Y-73749404D01*
X105539259Y-73796989D01*
X105571336Y-73865005D01*
X105606187Y-73951622D01*
X105609950Y-73961454D01*
X105657076Y-74067909D01*
X105719435Y-74186284D01*
X105793284Y-74310261D01*
X105874879Y-74433518D01*
X105960477Y-74549738D01*
X106016173Y-74617393D01*
X106034826Y-74637836D01*
X106116131Y-74726942D01*
X106230811Y-74841543D01*
G37*
G36*
X107412561Y-104282202D02*
G01*
X106790741Y-104282202D01*
X106790741Y-101592154D01*
X104857691Y-101592154D01*
X104857691Y-103809078D01*
X104235871Y-103809078D01*
X104235871Y-101592154D01*
X102600214Y-101592154D01*
X102600214Y-104282202D01*
X101978394Y-104282202D01*
X101978394Y-100889227D01*
X107412561Y-100889227D01*
X107412561Y-104282202D01*
G37*
G36*
X104850247Y-80756311D02*
G01*
X104987148Y-80760017D01*
X105108579Y-80766863D01*
X105220591Y-80777433D01*
X105329234Y-80792311D01*
X105440560Y-80812079D01*
X105560618Y-80837323D01*
X105669637Y-80863923D01*
X105889590Y-80931864D01*
X106099918Y-81015914D01*
X106296611Y-81114172D01*
X106475660Y-81224737D01*
X106633055Y-81345709D01*
X106711932Y-81413892D01*
X106903412Y-81415343D01*
X106922449Y-81415495D01*
X106993603Y-81416457D01*
X107044907Y-81418547D01*
X107082241Y-81422671D01*
X107111486Y-81429736D01*
X107138525Y-81440649D01*
X107169240Y-81456315D01*
X107203884Y-81473217D01*
X107252690Y-81492939D01*
X107290900Y-81503856D01*
X107317299Y-81511152D01*
X107336269Y-81527297D01*
X107329886Y-81545864D01*
X107297659Y-81562585D01*
X107295815Y-81563172D01*
X107244193Y-81580786D01*
X107185803Y-81602477D01*
X107126007Y-81626022D01*
X107070167Y-81649198D01*
X107023643Y-81669783D01*
X106991797Y-81685554D01*
X106979990Y-81694288D01*
X106983357Y-81703519D01*
X106999218Y-81731259D01*
X107024146Y-81769943D01*
X107053749Y-81813207D01*
X107083632Y-81854684D01*
X107109404Y-81888008D01*
X107126670Y-81906816D01*
X107143727Y-81914161D01*
X107182996Y-81921086D01*
X107233224Y-81923713D01*
X107339747Y-81931158D01*
X107455015Y-81953343D01*
X107566712Y-81987897D01*
X107667185Y-82032432D01*
X107748782Y-82084561D01*
X107762816Y-82094969D01*
X107803918Y-82119807D01*
X107839176Y-82134254D01*
X107859157Y-82139943D01*
X107917214Y-82163239D01*
X107974219Y-82193739D01*
X108017484Y-82224987D01*
X108041369Y-82252896D01*
X108046046Y-82281640D01*
X108032514Y-82321189D01*
X108026465Y-82333306D01*
X108016466Y-82345462D01*
X107999653Y-82354803D01*
X107971057Y-82363117D01*
X107925712Y-82372193D01*
X107858649Y-82383823D01*
X107821154Y-82391085D01*
X107767139Y-82402764D01*
X107702398Y-82417496D01*
X107632230Y-82433999D01*
X107561937Y-82450991D01*
X107496820Y-82467191D01*
X107442180Y-82481316D01*
X107403317Y-82492085D01*
X107385534Y-82498216D01*
X107385108Y-82499150D01*
X107386738Y-82517597D01*
X107393309Y-82554528D01*
X107403379Y-82603579D01*
X107415505Y-82658387D01*
X107428246Y-82712591D01*
X107440160Y-82759827D01*
X107449804Y-82793733D01*
X107455736Y-82807946D01*
X107467244Y-82812074D01*
X107498145Y-82821996D01*
X107540932Y-82835228D01*
X107588678Y-82854663D01*
X107638841Y-82884243D01*
X107681973Y-82918166D01*
X107712049Y-82951645D01*
X107723041Y-82979893D01*
X107719475Y-83000999D01*
X107698889Y-83027646D01*
X107657564Y-83045051D01*
X107592691Y-83054830D01*
X107499665Y-83062629D01*
X107499909Y-83422522D01*
X107499698Y-83519652D01*
X107498172Y-83639870D01*
X107494737Y-83743142D01*
X107488873Y-83835398D01*
X107480062Y-83922567D01*
X107467786Y-84010579D01*
X107451524Y-84105365D01*
X107430759Y-84212854D01*
X107395999Y-84386454D01*
X107463896Y-84530523D01*
X107478296Y-84561332D01*
X107521541Y-84658525D01*
X107551484Y-84735385D01*
X107568656Y-84794115D01*
X107573586Y-84836915D01*
X107566804Y-84865986D01*
X107548839Y-84883529D01*
X107538579Y-84887472D01*
X107518944Y-84885602D01*
X107491686Y-84870457D01*
X107450835Y-84839346D01*
X107414005Y-84809956D01*
X107366771Y-84772901D01*
X107328861Y-84743830D01*
X107278957Y-84706378D01*
X107251462Y-84760272D01*
X107223967Y-84814167D01*
X107275695Y-84926870D01*
X107293923Y-84967201D01*
X107320364Y-85030348D01*
X107337403Y-85080655D01*
X107347294Y-85125331D01*
X107352293Y-85171583D01*
X107352563Y-85176521D01*
X107348674Y-85213743D01*
X107331698Y-85239850D01*
X107299057Y-85255565D01*
X107248175Y-85261612D01*
X107176473Y-85258714D01*
X107081374Y-85247594D01*
X106973231Y-85232536D01*
X106811017Y-85393529D01*
X106754688Y-85447558D01*
X106564153Y-85605819D01*
X106355667Y-85744019D01*
X106129124Y-85862213D01*
X105884420Y-85960460D01*
X105621449Y-86038816D01*
X105514569Y-86064483D01*
X105405379Y-86087288D01*
X105299980Y-86104870D01*
X105192214Y-86117963D01*
X105075925Y-86127304D01*
X104944958Y-86133626D01*
X104793157Y-86137664D01*
X104653925Y-86139552D01*
X104523087Y-86139151D01*
X104407340Y-86135812D01*
X104300514Y-86129144D01*
X104196438Y-86118752D01*
X104088941Y-86104241D01*
X103971852Y-86085218D01*
X103809217Y-86057124D01*
X103698404Y-86092129D01*
X103573709Y-86123438D01*
X103417259Y-86145343D01*
X103252768Y-86152408D01*
X103088171Y-86144335D01*
X102931401Y-86120828D01*
X102831736Y-86096807D01*
X102676122Y-86048462D01*
X102517482Y-85987713D01*
X102363331Y-85917785D01*
X102221182Y-85841906D01*
X102098550Y-85763300D01*
X102018688Y-85703060D01*
X101894070Y-85592109D01*
X101784088Y-85468802D01*
X101681753Y-85325802D01*
X101668391Y-85305337D01*
X101628476Y-85245481D01*
X101592582Y-85193434D01*
X101564204Y-85154199D01*
X101546838Y-85132775D01*
X101527907Y-85106358D01*
X101518788Y-85076975D01*
X101516485Y-85059866D01*
X101507335Y-85026735D01*
X101494481Y-84991359D01*
X101481466Y-84963196D01*
X101471837Y-84951707D01*
X101463379Y-84956377D01*
X101434947Y-84974041D01*
X101389550Y-85002987D01*
X101330291Y-85041220D01*
X101260270Y-85086748D01*
X101182591Y-85137577D01*
X101133699Y-85169611D01*
X101049009Y-85224867D01*
X100968154Y-85277350D01*
X100895817Y-85324033D01*
X100836681Y-85361888D01*
X100795431Y-85387885D01*
X100745674Y-85419979D01*
X100714747Y-85443737D01*
X100700980Y-85461261D01*
X100700932Y-85475751D01*
X100701966Y-85478496D01*
X100710305Y-85509812D01*
X100717589Y-85549871D01*
X100718132Y-85553952D01*
X100717606Y-85589016D01*
X100705658Y-85600529D01*
X100684135Y-85588409D01*
X100654887Y-85552579D01*
X100646095Y-85540553D01*
X100623252Y-85516458D01*
X100606788Y-85508738D01*
X100605318Y-85509251D01*
X100584957Y-85519873D01*
X100547411Y-85541614D01*
X100497478Y-85571645D01*
X100439954Y-85607137D01*
X100373671Y-85649683D01*
X100326773Y-85683617D01*
X100299262Y-85710498D01*
X100288910Y-85733277D01*
X100293492Y-85754903D01*
X100310782Y-85778328D01*
X100320945Y-85790127D01*
X100325307Y-85802961D01*
X100310094Y-85811517D01*
X100288314Y-85811259D01*
X100256691Y-85791522D01*
X100253542Y-85788594D01*
X100228343Y-85769629D01*
X100204564Y-85765448D01*
X100174752Y-85776826D01*
X100131457Y-85804536D01*
X100108154Y-85821082D01*
X100084658Y-85842235D01*
X100076733Y-85861538D01*
X100079603Y-85886551D01*
X100082213Y-85914129D01*
X100068399Y-85949555D01*
X100051857Y-85977623D01*
X100039160Y-86015578D01*
X100033954Y-86032472D01*
X100010680Y-86066269D01*
X99966687Y-86101154D01*
X99934640Y-86121348D01*
X99902643Y-86135169D01*
X99867408Y-86139822D01*
X99817138Y-86138232D01*
X99777974Y-86135107D01*
X99742303Y-86127982D01*
X99716878Y-86114063D01*
X99692098Y-86089617D01*
X99689837Y-86087072D01*
X99670205Y-86061825D01*
X99659205Y-86036225D01*
X99654399Y-86001389D01*
X99653348Y-85948434D01*
X99658187Y-85871061D01*
X99675273Y-85808254D01*
X99706467Y-85762620D01*
X99753602Y-85730164D01*
X99769044Y-85722997D01*
X99801810Y-85712553D01*
X99837219Y-85711128D01*
X99887031Y-85717617D01*
X99915814Y-85722184D01*
X99949189Y-85724854D01*
X99976304Y-85719901D01*
X100006809Y-85704965D01*
X100050354Y-85677689D01*
X100055444Y-85674416D01*
X100095464Y-85648542D01*
X100124778Y-85629340D01*
X100137352Y-85620757D01*
X100137130Y-85613595D01*
X100130715Y-85586873D01*
X100118870Y-85547896D01*
X100106971Y-85506362D01*
X100104435Y-85477665D01*
X100112338Y-85459343D01*
X100116157Y-85455186D01*
X100140245Y-85446400D01*
X100166713Y-85464005D01*
X100194891Y-85507605D01*
X100202367Y-85521800D01*
X100218540Y-85549148D01*
X100227884Y-85560009D01*
X100237137Y-85556096D01*
X100265277Y-85540143D01*
X100306673Y-85514975D01*
X100356137Y-85483931D01*
X100408486Y-85450345D01*
X100458532Y-85417553D01*
X100501090Y-85388891D01*
X100530975Y-85367695D01*
X100543001Y-85357300D01*
X100542216Y-85343256D01*
X100531767Y-85316280D01*
X100526044Y-85304414D01*
X100523204Y-85283137D01*
X100540059Y-85280249D01*
X100576449Y-85295822D01*
X100621073Y-85319854D01*
X100816471Y-85201158D01*
X100830213Y-85192795D01*
X100889886Y-85156221D01*
X100959121Y-85113472D01*
X101034301Y-85066814D01*
X101111807Y-85018512D01*
X101188023Y-84970833D01*
X101259331Y-84926043D01*
X101322115Y-84886409D01*
X101372756Y-84854195D01*
X101407638Y-84831669D01*
X101423143Y-84821096D01*
X101422768Y-84812671D01*
X101415965Y-84783019D01*
X101403307Y-84737411D01*
X101386262Y-84681406D01*
X101375623Y-84646982D01*
X101361354Y-84597152D01*
X101348413Y-84545907D01*
X101335957Y-84489022D01*
X101323139Y-84422269D01*
X101309115Y-84341421D01*
X101293037Y-84242252D01*
X101274061Y-84120535D01*
X101266177Y-84063771D01*
X101254182Y-83946075D01*
X101246407Y-83822304D01*
X101242979Y-83698993D01*
X101244025Y-83582675D01*
X101249671Y-83479885D01*
X101260044Y-83397157D01*
X101275460Y-83324739D01*
X101301814Y-83225911D01*
X101333431Y-83125521D01*
X101367296Y-83033011D01*
X101400391Y-82957827D01*
X101476269Y-82824924D01*
X101584637Y-82673469D01*
X101713209Y-82525392D01*
X101858514Y-82384650D01*
X102017080Y-82255197D01*
X102038059Y-82239463D01*
X102087865Y-82200612D01*
X102123083Y-82168824D01*
X102149363Y-82137757D01*
X102172351Y-82101072D01*
X102197695Y-82052430D01*
X102225811Y-81998199D01*
X102351418Y-81792321D01*
X102498880Y-81601391D01*
X102666428Y-81427518D01*
X102852293Y-81272806D01*
X102915599Y-81223066D01*
X102976877Y-81165710D01*
X103017035Y-81114184D01*
X103037744Y-81083499D01*
X103073453Y-81047639D01*
X103110335Y-81035207D01*
X103152315Y-81044172D01*
X103163169Y-81047985D01*
X103184445Y-81050309D01*
X103212028Y-81045141D01*
X103251928Y-81031051D01*
X103310153Y-81006610D01*
X103464247Y-80945653D01*
X103698621Y-80871890D01*
X103948392Y-80813652D01*
X104208835Y-80772172D01*
X104210053Y-80772022D01*
X104274403Y-80766211D01*
X104361068Y-80761465D01*
X104465453Y-80757940D01*
X104582960Y-80755793D01*
X104708995Y-80755179D01*
X104850247Y-80756311D01*
G37*
G36*
X99718071Y-84494669D02*
G01*
X99826254Y-84501357D01*
X99917077Y-84512782D01*
X99951957Y-84518978D01*
X100008896Y-84530304D01*
X100044149Y-84540295D01*
X100061187Y-84550624D01*
X100063480Y-84562962D01*
X100054496Y-84578981D01*
X100042256Y-84591921D01*
X100025330Y-84597429D01*
X99996501Y-84596073D01*
X99948491Y-84588507D01*
X99940416Y-84587173D01*
X99865763Y-84579137D01*
X99773243Y-84574778D01*
X99670726Y-84574034D01*
X99566084Y-84576844D01*
X99467189Y-84583148D01*
X99381913Y-84592885D01*
X99297294Y-84607936D01*
X99207203Y-84631450D01*
X99125230Y-84663431D01*
X99046589Y-84706572D01*
X98966494Y-84763565D01*
X98880158Y-84837102D01*
X98782795Y-84929876D01*
X98713332Y-85000428D01*
X98607417Y-85118212D01*
X98522083Y-85229102D01*
X98455062Y-85336501D01*
X98404089Y-85443813D01*
X98366898Y-85554440D01*
X98359606Y-85585083D01*
X98346176Y-85672820D01*
X98338064Y-85776270D01*
X98335349Y-85887840D01*
X98338108Y-85999938D01*
X98346419Y-86104971D01*
X98360358Y-86195347D01*
X98407556Y-86378034D01*
X98470246Y-86542266D01*
X98550067Y-86690138D01*
X98648977Y-86825273D01*
X98768934Y-86951292D01*
X98827262Y-87003534D01*
X98989679Y-87126951D01*
X99160022Y-87226523D01*
X99336441Y-87302056D01*
X99517085Y-87353356D01*
X99700104Y-87380230D01*
X99883648Y-87382484D01*
X100065866Y-87359924D01*
X100244907Y-87312357D01*
X100418921Y-87239589D01*
X100586057Y-87141427D01*
X100640604Y-87101408D01*
X100738730Y-87013992D01*
X100825480Y-86916572D01*
X100895976Y-86814941D01*
X100945340Y-86714889D01*
X100959512Y-86680216D01*
X100973865Y-86660414D01*
X100993321Y-86657958D01*
X101025414Y-86668482D01*
X101042691Y-86676784D01*
X101052078Y-86688633D01*
X101052061Y-86707878D01*
X101041779Y-86738617D01*
X101020367Y-86784946D01*
X100986963Y-86850962D01*
X100948009Y-86918437D01*
X100893860Y-86991518D01*
X100822931Y-87068972D01*
X100804803Y-87087005D01*
X100659516Y-87210332D01*
X100499018Y-87311342D01*
X100323272Y-87390054D01*
X100132238Y-87446487D01*
X99925876Y-87480656D01*
X99855330Y-87486022D01*
X99679290Y-87481434D01*
X99499887Y-87452856D01*
X99320452Y-87401572D01*
X99144313Y-87328869D01*
X98974802Y-87236034D01*
X98815248Y-87124353D01*
X98668981Y-86995112D01*
X98632797Y-86957977D01*
X98509616Y-86809092D01*
X98409538Y-86647945D01*
X98332248Y-86473718D01*
X98277431Y-86285593D01*
X98244772Y-86082750D01*
X98233955Y-85864371D01*
X98235546Y-85787499D01*
X98249431Y-85639222D01*
X98278936Y-85501591D01*
X98325671Y-85371239D01*
X98391249Y-85244799D01*
X98477282Y-85118906D01*
X98585383Y-84990192D01*
X98717163Y-84855291D01*
X98766822Y-84808174D01*
X98864088Y-84722111D01*
X98952532Y-84654296D01*
X99036732Y-84602083D01*
X99121264Y-84562824D01*
X99210702Y-84533872D01*
X99309624Y-84512581D01*
X99380882Y-84503059D01*
X99486233Y-84495517D01*
X99601680Y-84492721D01*
X99718071Y-84494669D01*
G37*
G36*
X104736031Y-80037976D02*
G01*
X104729272Y-80044735D01*
X104722513Y-80037976D01*
X104729272Y-80031217D01*
X104736031Y-80037976D01*
G37*
G36*
X107412561Y-90804927D02*
G01*
X106790741Y-90804927D01*
X106790741Y-87966183D01*
X101978394Y-87966183D01*
X101978394Y-87263256D01*
X107412561Y-87263256D01*
X107412561Y-90804927D01*
G37*
G36*
X101102861Y-85641636D02*
G01*
X101113253Y-85654634D01*
X101113098Y-85657693D01*
X101107292Y-85668152D01*
X101105123Y-85667530D01*
X101092976Y-85654634D01*
X101090864Y-85649398D01*
X101098937Y-85641116D01*
X101102861Y-85641636D01*
G37*
G36*
X106696869Y-91536807D02*
G01*
X106805840Y-91562209D01*
X106915677Y-91579858D01*
X107035047Y-91591345D01*
X107172619Y-91598260D01*
X107412561Y-91606537D01*
X107412561Y-95103596D01*
X106790741Y-95103596D01*
X106790741Y-92413548D01*
X104857691Y-92413548D01*
X104857691Y-94630472D01*
X104235871Y-94630472D01*
X104235871Y-92413548D01*
X102600214Y-92413548D01*
X102600214Y-95103596D01*
X101978394Y-95103596D01*
X101978394Y-91710621D01*
X105648484Y-91707625D01*
X105457056Y-91659782D01*
X106526247Y-91659782D01*
X106531367Y-91665784D01*
X106539184Y-91667944D01*
X106557277Y-91664717D01*
X106557067Y-91660102D01*
X106539534Y-91657617D01*
X106526247Y-91659782D01*
X105457056Y-91659782D01*
X105418681Y-91650191D01*
X105397394Y-91644858D01*
X105232082Y-91602326D01*
X105088941Y-91563143D01*
X104964007Y-91526017D01*
X104853316Y-91489652D01*
X104752904Y-91452756D01*
X104658806Y-91414032D01*
X104567058Y-91372188D01*
X104476264Y-91326609D01*
X104402588Y-91284351D01*
X104351870Y-91248412D01*
X104325034Y-91219452D01*
X104323005Y-91198129D01*
X104323151Y-91197894D01*
X104334003Y-91189244D01*
X104353861Y-91187173D01*
X104385926Y-91192425D01*
X104433394Y-91205743D01*
X104499464Y-91227871D01*
X104587335Y-91259551D01*
X104679040Y-91291659D01*
X104810758Y-91334022D01*
X104957771Y-91378016D01*
X105113847Y-91421899D01*
X105272755Y-91463928D01*
X105428262Y-91502361D01*
X105574136Y-91535456D01*
X105600291Y-91540933D01*
X105693016Y-91558689D01*
X105797655Y-91576694D01*
X105909397Y-91594298D01*
X106023430Y-91610851D01*
X106134942Y-91625704D01*
X106239122Y-91638204D01*
X106331158Y-91647704D01*
X106406239Y-91653552D01*
X106459554Y-91655098D01*
X106462214Y-91655042D01*
X106486184Y-91653852D01*
X106489395Y-91651053D01*
X106469902Y-91645559D01*
X106425759Y-91636290D01*
X106407689Y-91632555D01*
X106316491Y-91611807D01*
X106208532Y-91584858D01*
X106089976Y-91553447D01*
X105966982Y-91519311D01*
X105845712Y-91484191D01*
X105732328Y-91449822D01*
X105632990Y-91417945D01*
X105553859Y-91390296D01*
X105540051Y-91385072D01*
X105448522Y-91347158D01*
X105349370Y-91301260D01*
X105246658Y-91249695D01*
X105144450Y-91194780D01*
X105046812Y-91138831D01*
X104957809Y-91084167D01*
X104881503Y-91033102D01*
X104821960Y-90987955D01*
X104783245Y-90951041D01*
X104772961Y-90937869D01*
X104754465Y-90905753D01*
X104749490Y-90881873D01*
X104759905Y-90872516D01*
X104763001Y-90873448D01*
X104785564Y-90884210D01*
X104825412Y-90905121D01*
X104878058Y-90933791D01*
X104939016Y-90967835D01*
X105031436Y-91019124D01*
X105173672Y-91094606D01*
X105310840Y-91163365D01*
X105438594Y-91223313D01*
X105552591Y-91272366D01*
X105648484Y-91308437D01*
X105650603Y-91309151D01*
X105710148Y-91328235D01*
X105789301Y-91352247D01*
X105881783Y-91379408D01*
X105981315Y-91407936D01*
X106081620Y-91436052D01*
X106176417Y-91461975D01*
X106259428Y-91483923D01*
X106324376Y-91500117D01*
X106325409Y-91500339D01*
X106325009Y-91496782D01*
X106303543Y-91483019D01*
X106263924Y-91460698D01*
X106209066Y-91431464D01*
X106141885Y-91396967D01*
X106090606Y-91370549D01*
X106003763Y-91323945D01*
X105918326Y-91276099D01*
X105841949Y-91231331D01*
X105782283Y-91193960D01*
X105761174Y-91179768D01*
X105699575Y-91135766D01*
X105640741Y-91090299D01*
X105586698Y-91045422D01*
X105539470Y-91003190D01*
X105501085Y-90965659D01*
X105473568Y-90934883D01*
X105458944Y-90912918D01*
X105459239Y-90901820D01*
X105476479Y-90903642D01*
X105512689Y-90920442D01*
X105538730Y-90936281D01*
X105582352Y-90965417D01*
X105635505Y-91002598D01*
X105691882Y-91043493D01*
X105851921Y-91154083D01*
X106064115Y-91280154D01*
X106281904Y-91388229D01*
X106498162Y-91474498D01*
X106539534Y-91488416D01*
X106580094Y-91502060D01*
X106696869Y-91536807D01*
G37*
G36*
X99702248Y-85375334D02*
G01*
X99705813Y-85383554D01*
X99701123Y-85397422D01*
X99691711Y-85417436D01*
X99671822Y-85443471D01*
X99637213Y-85451867D01*
X99582736Y-85459257D01*
X99511883Y-85481091D01*
X99434751Y-85513910D01*
X99358607Y-85554225D01*
X99290714Y-85598549D01*
X99238339Y-85643392D01*
X99205787Y-85682156D01*
X99172997Y-85742787D01*
X99155271Y-85814699D01*
X99150313Y-85904714D01*
X99150784Y-85928217D01*
X99166618Y-86057631D01*
X99205515Y-86173885D01*
X99268502Y-86279323D01*
X99356602Y-86376286D01*
X99443807Y-86446449D01*
X99563074Y-86515200D01*
X99690022Y-86561835D01*
X99820852Y-86585388D01*
X99951764Y-86584898D01*
X100078960Y-86559401D01*
X100156516Y-86525522D01*
X100233351Y-86470083D01*
X100295311Y-86400996D01*
X100336381Y-86323767D01*
X100342443Y-86307129D01*
X100359337Y-86265738D01*
X100373413Y-86244916D01*
X100388612Y-86240578D01*
X100408874Y-86248642D01*
X100416224Y-86253020D01*
X100432335Y-86271110D01*
X100434610Y-86297789D01*
X100422642Y-86337678D01*
X100396029Y-86395403D01*
X100363594Y-86451379D01*
X100292829Y-86534032D01*
X100203698Y-86597565D01*
X100095575Y-86642379D01*
X99967834Y-86668872D01*
X99940477Y-86671790D01*
X99802993Y-86670638D01*
X99665192Y-86644453D01*
X99530793Y-86594546D01*
X99403515Y-86522228D01*
X99287076Y-86428810D01*
X99241314Y-86382001D01*
X99164608Y-86278652D01*
X99110603Y-86163908D01*
X99078350Y-86035450D01*
X99066899Y-85890960D01*
X99066783Y-85867794D01*
X99068215Y-85811860D01*
X99073721Y-85770128D01*
X99085087Y-85732980D01*
X99104101Y-85690803D01*
X99107689Y-85683691D01*
X99163521Y-85604328D01*
X99244179Y-85532401D01*
X99348262Y-85469181D01*
X99376382Y-85454114D01*
X99411052Y-85432925D01*
X99430169Y-85417706D01*
X99438670Y-85411536D01*
X99469555Y-85400309D01*
X99511390Y-85392035D01*
X99534752Y-85388982D01*
X99606679Y-85379587D01*
X99656215Y-85373848D01*
X99686893Y-85372265D01*
X99702248Y-85375334D01*
G37*
G36*
X107412561Y-96685182D02*
G01*
X105313918Y-96684911D01*
X105305225Y-96684910D01*
X105058137Y-96684789D01*
X104811755Y-96684507D01*
X104568106Y-96684073D01*
X104329215Y-96683499D01*
X104097106Y-96682793D01*
X103873805Y-96681965D01*
X103661338Y-96681025D01*
X103461729Y-96679983D01*
X103277005Y-96678848D01*
X103109190Y-96677629D01*
X102960309Y-96676338D01*
X102832388Y-96674983D01*
X102727452Y-96673574D01*
X102647526Y-96672121D01*
X102606338Y-96671215D01*
X102411830Y-96667014D01*
X102242456Y-96663512D01*
X102096635Y-96660697D01*
X101972784Y-96658557D01*
X101869320Y-96657083D01*
X101784662Y-96656261D01*
X101717229Y-96656081D01*
X101665436Y-96656530D01*
X101627703Y-96657599D01*
X101602448Y-96659274D01*
X101588088Y-96661545D01*
X101583041Y-96664399D01*
X101586895Y-96666443D01*
X101613042Y-96676864D01*
X101662925Y-96695637D01*
X101735416Y-96722357D01*
X101829387Y-96756622D01*
X101943711Y-96798028D01*
X102077260Y-96846172D01*
X102228908Y-96900650D01*
X102397526Y-96961060D01*
X102581986Y-97026998D01*
X102781162Y-97098060D01*
X102993926Y-97173844D01*
X103219150Y-97253947D01*
X103455706Y-97337964D01*
X103702468Y-97425493D01*
X103958308Y-97516130D01*
X104222097Y-97609472D01*
X104492710Y-97705116D01*
X107405802Y-98734105D01*
X107412930Y-99618551D01*
X100464397Y-99618551D01*
X100464397Y-98913000D01*
X103056441Y-98921076D01*
X103288756Y-98921828D01*
X103553084Y-98922751D01*
X103811820Y-98923724D01*
X104063430Y-98924741D01*
X104306385Y-98925791D01*
X104539151Y-98926867D01*
X104760198Y-98927960D01*
X104967995Y-98929062D01*
X105161008Y-98930164D01*
X105337707Y-98931257D01*
X105496561Y-98932334D01*
X105636036Y-98933386D01*
X105754603Y-98934404D01*
X105850729Y-98935379D01*
X105922883Y-98936305D01*
X105969533Y-98937171D01*
X106030125Y-98938479D01*
X106113992Y-98939551D01*
X106185679Y-98939579D01*
X106241475Y-98938601D01*
X106277671Y-98936657D01*
X106290555Y-98933786D01*
X106286670Y-98931821D01*
X106260466Y-98921505D01*
X106210522Y-98902819D01*
X106137969Y-98876167D01*
X106043937Y-98841953D01*
X105929554Y-98800582D01*
X105795952Y-98752457D01*
X105644258Y-98697983D01*
X105475604Y-98637563D01*
X105291118Y-98571603D01*
X105091929Y-98500505D01*
X104879169Y-98424674D01*
X104653966Y-98344513D01*
X104417449Y-98260428D01*
X104170749Y-98172822D01*
X103914995Y-98082100D01*
X103651316Y-97988664D01*
X103380843Y-97892920D01*
X100471156Y-96863457D01*
X100467592Y-96422856D01*
X100464027Y-95982255D01*
X107412561Y-95982255D01*
X107412561Y-96685182D01*
G37*
G36*
X102600214Y-106620786D02*
G01*
X107412561Y-106620786D01*
X107412523Y-107316954D01*
X107328056Y-107341702D01*
X107279116Y-107357546D01*
X107204088Y-107384740D01*
X107116363Y-107418650D01*
X107022292Y-107456651D01*
X106928231Y-107496122D01*
X106840532Y-107534436D01*
X106765548Y-107568971D01*
X106709634Y-107597102D01*
X106705065Y-107599592D01*
X106591688Y-107664766D01*
X106465982Y-107742585D01*
X106334015Y-107828893D01*
X106201854Y-107919533D01*
X106075567Y-108010347D01*
X105961223Y-108097178D01*
X105864887Y-108175869D01*
X105831671Y-108204981D01*
X105746234Y-108284626D01*
X105650192Y-108380477D01*
X105541723Y-108494381D01*
X105419008Y-108628184D01*
X105382366Y-108668737D01*
X105413049Y-108614666D01*
X105447514Y-108556833D01*
X105546294Y-108412864D01*
X105663900Y-108265912D01*
X105796883Y-108118987D01*
X105941793Y-107975100D01*
X106095180Y-107837263D01*
X106253596Y-107708487D01*
X106413589Y-107591782D01*
X106571712Y-107490160D01*
X106724513Y-107406632D01*
X106868543Y-107344209D01*
X106919160Y-107325618D01*
X106869810Y-107324666D01*
X106842037Y-107326702D01*
X106782860Y-107338162D01*
X106705829Y-107358442D01*
X106614977Y-107386124D01*
X106514341Y-107419791D01*
X106407957Y-107458025D01*
X106299859Y-107499407D01*
X106194083Y-107542521D01*
X106094664Y-107585948D01*
X106005640Y-107628270D01*
X105969215Y-107646611D01*
X105896497Y-107684269D01*
X105832359Y-107719689D01*
X105773244Y-107755443D01*
X105715599Y-107794106D01*
X105655871Y-107838251D01*
X105590505Y-107890453D01*
X105515946Y-107953283D01*
X105428642Y-108029317D01*
X105325038Y-108121128D01*
X105284780Y-108156957D01*
X105222874Y-108211994D01*
X105166277Y-108262246D01*
X105119948Y-108303312D01*
X105088843Y-108330792D01*
X105027398Y-108384863D01*
X105060704Y-108337550D01*
X105129078Y-108245517D01*
X105232937Y-108119989D01*
X105346154Y-107996748D01*
X105464308Y-107880104D01*
X105582977Y-107774369D01*
X105697738Y-107683852D01*
X105804170Y-107612864D01*
X105853346Y-107583216D01*
X105895951Y-107556524D01*
X105924069Y-107537711D01*
X105933262Y-107529637D01*
X105932667Y-107529566D01*
X105915717Y-107534859D01*
X105878776Y-107548645D01*
X105826047Y-107569233D01*
X105761735Y-107594929D01*
X105690043Y-107624044D01*
X105615175Y-107654884D01*
X105541336Y-107685758D01*
X105472729Y-107714974D01*
X105450291Y-107725615D01*
X105394309Y-107756686D01*
X105326179Y-107798558D01*
X105250963Y-107847726D01*
X105173721Y-107900681D01*
X105099513Y-107953916D01*
X105033401Y-108003923D01*
X104980446Y-108047195D01*
X104945708Y-108080226D01*
X104921376Y-108103560D01*
X104892391Y-108124398D01*
X104883911Y-108126531D01*
X104887097Y-108115090D01*
X104904389Y-108090479D01*
X104933009Y-108056193D01*
X104970178Y-108015725D01*
X105013118Y-107972569D01*
X105042902Y-107941942D01*
X105075412Y-107903938D01*
X105095633Y-107874664D01*
X105118334Y-107844588D01*
X105164949Y-107801231D01*
X105230563Y-107750338D01*
X105312132Y-107693780D01*
X105406612Y-107633423D01*
X105510960Y-107571139D01*
X105622132Y-107508796D01*
X105737084Y-107448262D01*
X105852772Y-107391408D01*
X105966153Y-107340101D01*
X105972451Y-107337101D01*
X105977054Y-107331321D01*
X105963395Y-107327627D01*
X105928552Y-107325553D01*
X105869603Y-107324628D01*
X105805957Y-107325759D01*
X105735690Y-107331854D01*
X105659816Y-107344345D01*
X105568397Y-107364546D01*
X105488212Y-107384579D01*
X105368995Y-107419167D01*
X105264206Y-107457438D01*
X105165949Y-107502805D01*
X105066326Y-107558679D01*
X104957437Y-107628472D01*
X104944422Y-107637099D01*
X104903936Y-107662526D01*
X104874317Y-107678976D01*
X104861231Y-107683223D01*
X104863972Y-107673216D01*
X104886251Y-107651555D01*
X104925664Y-107621314D01*
X104978603Y-107584756D01*
X105041458Y-107544142D01*
X105110619Y-107501733D01*
X105182475Y-107459792D01*
X105253419Y-107420579D01*
X105319840Y-107386356D01*
X105378128Y-107359385D01*
X105459235Y-107324824D01*
X104029724Y-107324268D01*
X102600214Y-107323713D01*
X102600214Y-108797157D01*
X101978394Y-108797157D01*
X101978394Y-105120307D01*
X102600214Y-105120307D01*
X102600214Y-106620786D01*
G37*
G36*
X169708185Y-90320618D02*
G01*
X169765330Y-90840713D01*
X169899040Y-91428370D01*
X170102512Y-92004371D01*
X170372215Y-92560421D01*
X170704615Y-93088225D01*
X171096179Y-93579489D01*
X171473877Y-93961837D01*
X171967019Y-94363008D01*
X172504022Y-94704935D01*
X173078811Y-94984293D01*
X173685311Y-95197759D01*
X174317448Y-95342009D01*
X174472297Y-95366047D01*
X174679300Y-95392653D01*
X174865316Y-95410842D01*
X175003268Y-95417628D01*
X175242350Y-95417832D01*
X175242350Y-96499357D01*
X174837932Y-96472266D01*
X174451599Y-96438119D01*
X173877602Y-96350482D01*
X173337552Y-96217322D01*
X172811061Y-96033229D01*
X172277741Y-95792791D01*
X172164891Y-95735280D01*
X171562066Y-95378681D01*
X171002539Y-94962241D01*
X170491258Y-94490932D01*
X170033172Y-93969725D01*
X169633227Y-93403590D01*
X169296373Y-92797500D01*
X169109103Y-92388172D01*
X168913004Y-91874981D01*
X168771563Y-91379229D01*
X168680544Y-90885405D01*
X168635712Y-90377997D01*
X168613120Y-89871145D01*
X169683983Y-89871145D01*
X169708185Y-90320618D01*
G37*
G36*
X176712161Y-85976026D02*
G01*
X177188081Y-86117060D01*
X177638224Y-86324915D01*
X178053652Y-86597597D01*
X178319968Y-86821826D01*
X178656312Y-87179588D01*
X178930575Y-87576437D01*
X179146982Y-88018815D01*
X179309756Y-88513163D01*
X179310638Y-88517293D01*
X179316205Y-88587502D01*
X179320240Y-88719375D01*
X179322564Y-88899889D01*
X179322996Y-89116015D01*
X179321358Y-89354729D01*
X179318838Y-89549187D01*
X179314036Y-89773651D01*
X179306703Y-89944743D01*
X179295562Y-90076114D01*
X179279335Y-90181418D01*
X179256745Y-90274307D01*
X179226515Y-90368434D01*
X179198158Y-90449087D01*
X179123440Y-90646201D01*
X179050388Y-90807218D01*
X178965327Y-90960272D01*
X178854578Y-91133494D01*
X178691413Y-91359795D01*
X178349005Y-91738947D01*
X177962876Y-92058118D01*
X177538412Y-92314797D01*
X177080999Y-92506475D01*
X176596024Y-92630641D01*
X176088873Y-92684786D01*
X175564933Y-92666399D01*
X175145977Y-92600875D01*
X174695187Y-92470775D01*
X174278832Y-92278656D01*
X173886832Y-92019727D01*
X173509109Y-91689197D01*
X173433894Y-91613732D01*
X173169062Y-91314920D01*
X172960036Y-91012774D01*
X172793274Y-90685438D01*
X172655234Y-90311054D01*
X172627021Y-90220078D01*
X172594850Y-90103939D01*
X172572549Y-89995083D01*
X172558312Y-89876753D01*
X172550332Y-89732192D01*
X172546801Y-89544643D01*
X172546537Y-89471065D01*
X173723946Y-89471065D01*
X173768861Y-89756386D01*
X173792167Y-89838970D01*
X173947431Y-90232321D01*
X174161294Y-90578078D01*
X174430139Y-90872833D01*
X174750348Y-91113176D01*
X175118306Y-91295696D01*
X175530394Y-91416984D01*
X175617904Y-91434448D01*
X175819372Y-91465894D01*
X175992330Y-91473817D01*
X176169149Y-91458311D01*
X176382197Y-91419471D01*
X176445789Y-91405531D01*
X176861401Y-91276649D01*
X177224133Y-91093968D01*
X177532507Y-90858826D01*
X177785040Y-90572561D01*
X177980251Y-90236513D01*
X178116661Y-89852018D01*
X178162002Y-89632208D01*
X178186649Y-89244129D01*
X178144251Y-88862063D01*
X178038244Y-88496415D01*
X177872070Y-88157588D01*
X177649166Y-87855986D01*
X177372972Y-87602015D01*
X177296096Y-87545956D01*
X176987805Y-87358631D01*
X176673399Y-87232827D01*
X176333825Y-87162372D01*
X175950030Y-87141096D01*
X175723973Y-87148401D01*
X175411221Y-87189900D01*
X175130014Y-87274897D01*
X174857374Y-87411142D01*
X174570322Y-87606385D01*
X174419136Y-87736031D01*
X174226193Y-87940313D01*
X174052110Y-88164229D01*
X173920836Y-88379277D01*
X173854377Y-88532495D01*
X173769675Y-88832201D01*
X173725208Y-89154031D01*
X173723946Y-89471065D01*
X172546537Y-89471065D01*
X172545913Y-89297350D01*
X172546273Y-89062693D01*
X172549028Y-88875258D01*
X172556166Y-88731033D01*
X172569668Y-88612975D01*
X172591513Y-88504043D01*
X172623682Y-88387196D01*
X172668156Y-88245392D01*
X172725841Y-88078857D01*
X172907269Y-87677667D01*
X173140567Y-87313396D01*
X173433938Y-86974433D01*
X173795584Y-86649163D01*
X174048480Y-86460647D01*
X174411835Y-86247383D01*
X174801813Y-86086958D01*
X175239651Y-85969376D01*
X175718728Y-85902404D01*
X175950030Y-85903053D01*
X176219398Y-85903809D01*
X176712161Y-85976026D01*
G37*
G36*
X171403939Y-89871419D02*
G01*
X171559838Y-89876610D01*
X171662045Y-89893222D01*
X171721903Y-89927761D01*
X171750754Y-89986729D01*
X171759940Y-90076633D01*
X171760803Y-90203976D01*
X171772306Y-90383556D01*
X171833169Y-90701043D01*
X171940237Y-91040375D01*
X172086596Y-91383900D01*
X172265331Y-91713971D01*
X172469527Y-92012937D01*
X172727737Y-92308260D01*
X173101031Y-92638300D01*
X173516843Y-92914550D01*
X173960874Y-93126336D01*
X174128939Y-93185186D01*
X174352671Y-93249803D01*
X174578400Y-93302923D01*
X174781777Y-93338920D01*
X174938452Y-93352169D01*
X174993837Y-93353161D01*
X175108609Y-93361444D01*
X175181841Y-93375388D01*
X175188167Y-93378279D01*
X175211266Y-93403404D01*
X175226886Y-93457307D01*
X175236375Y-93551912D01*
X175241081Y-93699145D01*
X175242350Y-93910930D01*
X175242350Y-94423253D01*
X175053852Y-94423253D01*
X174889350Y-94417249D01*
X174574174Y-94382190D01*
X174237852Y-94320792D01*
X173909689Y-94238802D01*
X173618993Y-94141963D01*
X173516581Y-94100386D01*
X173083293Y-93890062D01*
X172664700Y-93633738D01*
X172276254Y-93342724D01*
X171933407Y-93028331D01*
X171651610Y-92701868D01*
X171625149Y-92666752D01*
X171565078Y-92588888D01*
X171532025Y-92548856D01*
X171508641Y-92523076D01*
X171426700Y-92407880D01*
X171328473Y-92243378D01*
X171222439Y-92045837D01*
X171117079Y-91831522D01*
X171020873Y-91616699D01*
X170942299Y-91417634D01*
X170909723Y-91323202D01*
X170802917Y-90948932D01*
X170720928Y-90556502D01*
X170672696Y-90186732D01*
X170646730Y-89871145D01*
X171183007Y-89871145D01*
X171403939Y-89871419D01*
G37*
%TD*%
%LPC*%
D11*
%TO.C,J8*%
X166141400Y-103489600D03*
D12*
X168681400Y-103489600D03*
X166141400Y-106029600D03*
X168681400Y-106029600D03*
X166141400Y-108569600D03*
X168681400Y-108569600D03*
X166141400Y-111109600D03*
X168681400Y-111109600D03*
%TD*%
D13*
%TO.C,J1*%
X175361600Y-64144500D03*
D14*
X175361600Y-66684500D03*
X172821600Y-64144500D03*
X172821600Y-66684500D03*
X170281600Y-64144500D03*
X170281600Y-66684500D03*
X167741600Y-64144500D03*
X167741600Y-66684500D03*
X165201600Y-64144500D03*
X165201600Y-66684500D03*
%TD*%
D15*
%TO.C,REF\u002A\u002A*%
X195107000Y-61974400D03*
%TD*%
%TO.C,REF\u002A\u002A*%
X195102400Y-120573800D03*
%TD*%
D11*
%TO.C,J9*%
X158692600Y-82379400D03*
D12*
X161232600Y-82379400D03*
X158692600Y-84919400D03*
X161232600Y-84919400D03*
X158692600Y-87459400D03*
X161232600Y-87459400D03*
X158692600Y-89999400D03*
X161232600Y-89999400D03*
X158692600Y-92539400D03*
X161232600Y-92539400D03*
X158692600Y-95079400D03*
X161232600Y-95079400D03*
X158692600Y-97619400D03*
X161232600Y-97619400D03*
X158692600Y-100159400D03*
X161232600Y-100159400D03*
%TD*%
D16*
%TO.C,D3*%
X141660800Y-102362000D03*
D17*
X141660800Y-112522000D03*
%TD*%
D11*
%TO.C,J10*%
X129032000Y-110129400D03*
D12*
X129032000Y-112669400D03*
X126492000Y-110129400D03*
X126492000Y-112669400D03*
X123952000Y-110129400D03*
X123952000Y-112669400D03*
X121412000Y-110129400D03*
X121412000Y-112669400D03*
X118872000Y-110129400D03*
X118872000Y-112669400D03*
X116332000Y-110129400D03*
X116332000Y-112669400D03*
X113792000Y-110129400D03*
X113792000Y-112669400D03*
X111252000Y-110129400D03*
X111252000Y-112669400D03*
X108712000Y-110129400D03*
X108712000Y-112669400D03*
X106172000Y-110129400D03*
X106172000Y-112669400D03*
X103632000Y-110129400D03*
X103632000Y-112669400D03*
%TD*%
D18*
%TO.C,J14*%
X100258800Y-68935600D03*
D19*
X100258800Y-72435600D03*
%TD*%
D18*
%TO.C,J17*%
X131343400Y-64770000D03*
D19*
X127843400Y-64770000D03*
X124343400Y-64770000D03*
%TD*%
D11*
%TO.C,J3*%
X103682800Y-120980200D03*
D12*
X103682800Y-118440200D03*
X106222800Y-120980200D03*
X106222800Y-118440200D03*
X108762800Y-120980200D03*
X108762800Y-118440200D03*
X111302800Y-120980200D03*
X111302800Y-118440200D03*
X113842800Y-120980200D03*
X113842800Y-118440200D03*
%TD*%
D11*
%TO.C,J13*%
X109529800Y-62077600D03*
D12*
X112069800Y-62077600D03*
X114609800Y-62077600D03*
X117149800Y-62077600D03*
%TD*%
D15*
%TO.C,REF\u002A\u002A*%
X96499600Y-61950600D03*
%TD*%
D11*
%TO.C,J2*%
X121261133Y-120980200D03*
D12*
X121261133Y-118440200D03*
X123801133Y-120980200D03*
X123801133Y-118440200D03*
X126341133Y-120980200D03*
X126341133Y-118440200D03*
X128881133Y-120980200D03*
X128881133Y-118440200D03*
%TD*%
D11*
%TO.C,J12*%
X136289466Y-120980200D03*
D12*
X136289466Y-118440200D03*
X138829466Y-120980200D03*
X138829466Y-118440200D03*
X141369466Y-120980200D03*
X141369466Y-118440200D03*
X143909466Y-120980200D03*
X143909466Y-118440200D03*
%TD*%
D20*
%TO.C,C3*%
X149087200Y-104837600D03*
D21*
X154087200Y-104837600D03*
%TD*%
D22*
%TO.C,SW2*%
X189185400Y-69784400D03*
X195685400Y-69784400D03*
X189185400Y-74284400D03*
X195685400Y-74284400D03*
%TD*%
D23*
%TO.C,SW1*%
X192511600Y-90221800D03*
X192511600Y-85521800D03*
X192451600Y-80821800D03*
%TD*%
D15*
%TO.C,REF\u002A\u002A*%
X96499600Y-120548400D03*
%TD*%
D11*
%TO.C,J16*%
X195331000Y-109397800D03*
D12*
X195331000Y-106857800D03*
X195331000Y-104317800D03*
X195331000Y-101777800D03*
X195331000Y-99237800D03*
X195331000Y-96697800D03*
%TD*%
D11*
%TO.C,J4*%
X151317800Y-120980200D03*
D12*
X151317800Y-118440200D03*
X153857800Y-120980200D03*
X153857800Y-118440200D03*
X156397800Y-120980200D03*
X156397800Y-118440200D03*
X158937800Y-120980200D03*
X158937800Y-118440200D03*
X161477800Y-120980200D03*
X161477800Y-118440200D03*
X164017800Y-120980200D03*
X164017800Y-118440200D03*
X166557800Y-120980200D03*
X166557800Y-118440200D03*
X169097800Y-120980200D03*
X169097800Y-118440200D03*
%TD*%
D11*
%TO.C,J5*%
X148869400Y-74244200D03*
D12*
X148869400Y-71704200D03*
X151409400Y-74244200D03*
X151409400Y-71704200D03*
X153949400Y-74244200D03*
X153949400Y-71704200D03*
%TD*%
M02*
