%TF.GenerationSoftware,KiCad,Pcbnew,6.0.7-f9a2dced07~116~ubuntu20.04.1*%
%TF.CreationDate,2023-02-02T12:22:44+01:00*%
%TF.ProjectId,MoleNet_V5.2.2,4d6f6c65-4e65-4745-9f56-352e322e322e,1*%
%TF.SameCoordinates,Original*%
%TF.FileFunction,Legend,Top*%
%TF.FilePolarity,Positive*%
%FSLAX46Y46*%
G04 Gerber Fmt 4.6, Leading zero omitted, Abs format (unit mm)*
G04 Created by KiCad (PCBNEW 6.0.7-f9a2dced07~116~ubuntu20.04.1) date 2023-02-02 12:22:44*
%MOMM*%
%LPD*%
G01*
G04 APERTURE LIST*
G04 Aperture macros list*
%AMRoundRect*
0 Rectangle with rounded corners*
0 $1 Rounding radius*
0 $2 $3 $4 $5 $6 $7 $8 $9 X,Y pos of 4 corners*
0 Add a 4 corners polygon primitive as box body*
4,1,4,$2,$3,$4,$5,$6,$7,$8,$9,$2,$3,0*
0 Add four circle primitives for the rounded corners*
1,1,$1+$1,$2,$3*
1,1,$1+$1,$4,$5*
1,1,$1+$1,$6,$7*
1,1,$1+$1,$8,$9*
0 Add four rect primitives between the rounded corners*
20,1,$1+$1,$2,$3,$4,$5,0*
20,1,$1+$1,$4,$5,$6,$7,0*
20,1,$1+$1,$6,$7,$8,$9,0*
20,1,$1+$1,$8,$9,$2,$3,0*%
G04 Aperture macros list end*
%ADD10C,0.150000*%
%ADD11C,0.125000*%
%ADD12C,0.120000*%
%ADD13RoundRect,0.155000X0.155000X-0.212500X0.155000X0.212500X-0.155000X0.212500X-0.155000X-0.212500X0*%
%ADD14RoundRect,0.250000X-0.475000X0.337500X-0.475000X-0.337500X0.475000X-0.337500X0.475000X0.337500X0*%
%ADD15RoundRect,0.250000X-0.450000X0.350000X-0.450000X-0.350000X0.450000X-0.350000X0.450000X0.350000X0*%
%ADD16R,2.400000X2.000000*%
%ADD17R,1.700000X1.700000*%
%ADD18O,1.700000X1.700000*%
%ADD19RoundRect,0.250000X-0.600000X0.600000X-0.600000X-0.600000X0.600000X-0.600000X0.600000X0.600000X0*%
%ADD20C,1.700000*%
%ADD21RoundRect,0.155000X0.212500X0.155000X-0.212500X0.155000X-0.212500X-0.155000X0.212500X-0.155000X0*%
%ADD22RoundRect,0.160000X0.197500X0.160000X-0.197500X0.160000X-0.197500X-0.160000X0.197500X-0.160000X0*%
%ADD23RoundRect,0.250000X-0.450000X0.325000X-0.450000X-0.325000X0.450000X-0.325000X0.450000X0.325000X0*%
%ADD24RoundRect,0.250000X-0.475000X0.250000X-0.475000X-0.250000X0.475000X-0.250000X0.475000X0.250000X0*%
%ADD25C,2.200000*%
%ADD26RoundRect,0.250000X-0.350000X-0.450000X0.350000X-0.450000X0.350000X0.450000X-0.350000X0.450000X0*%
%ADD27RoundRect,0.250000X0.337500X0.475000X-0.337500X0.475000X-0.337500X-0.475000X0.337500X-0.475000X0*%
%ADD28RoundRect,0.250000X0.350000X-0.275000X0.350000X0.275000X-0.350000X0.275000X-0.350000X-0.275000X0*%
%ADD29RoundRect,0.250000X0.450000X-0.350000X0.450000X0.350000X-0.450000X0.350000X-0.450000X-0.350000X0*%
%ADD30R,2.200000X2.200000*%
%ADD31O,2.200000X2.200000*%
%ADD32RoundRect,0.250000X0.350000X0.450000X-0.350000X0.450000X-0.350000X-0.450000X0.350000X-0.450000X0*%
%ADD33RoundRect,0.155000X-0.212500X-0.155000X0.212500X-0.155000X0.212500X0.155000X-0.212500X0.155000X0*%
%ADD34R,2.000000X1.000000*%
%ADD35R,1.000000X1.000000*%
%ADD36R,2.200000X1.050000*%
%ADD37R,2.400000X2.400000*%
%ADD38C,2.400000*%
%ADD39RoundRect,0.155000X-0.155000X0.212500X-0.155000X-0.212500X0.155000X-0.212500X0.155000X0.212500X0*%
%ADD40R,4.000000X4.000000*%
%ADD41C,4.000000*%
%ADD42R,1.800000X1.000000*%
%ADD43RoundRect,0.150000X0.512500X0.150000X-0.512500X0.150000X-0.512500X-0.150000X0.512500X-0.150000X0*%
%ADD44R,1.100000X0.850000*%
%ADD45R,1.100000X0.750000*%
%ADD46R,1.000000X1.200000*%
%ADD47R,1.350000X1.900000*%
%ADD48R,1.800000X1.170000*%
%ADD49R,1.350000X1.550000*%
%ADD50RoundRect,0.150000X0.150000X-0.587500X0.150000X0.587500X-0.150000X0.587500X-0.150000X-0.587500X0*%
%ADD51RoundRect,0.075000X0.700000X0.075000X-0.700000X0.075000X-0.700000X-0.075000X0.700000X-0.075000X0*%
%ADD52RoundRect,0.075000X0.075000X0.700000X-0.075000X0.700000X-0.075000X-0.700000X0.075000X-0.700000X0*%
%ADD53R,1.900000X0.800000*%
%ADD54C,2.000000*%
%ADD55C,2.224000*%
%ADD56R,2.000000X1.500000*%
%ADD57R,2.000000X3.800000*%
G04 APERTURE END LIST*
D10*
X190997619Y-76902380D02*
X190664285Y-76426190D01*
X190426190Y-76902380D02*
X190426190Y-75902380D01*
X190807142Y-75902380D01*
X190902380Y-75950000D01*
X190950000Y-75997619D01*
X190997619Y-76092857D01*
X190997619Y-76235714D01*
X190950000Y-76330952D01*
X190902380Y-76378571D01*
X190807142Y-76426190D01*
X190426190Y-76426190D01*
X191426190Y-76378571D02*
X191759523Y-76378571D01*
X191902380Y-76902380D02*
X191426190Y-76902380D01*
X191426190Y-75902380D01*
X191902380Y-75902380D01*
X192283333Y-76854761D02*
X192426190Y-76902380D01*
X192664285Y-76902380D01*
X192759523Y-76854761D01*
X192807142Y-76807142D01*
X192854761Y-76711904D01*
X192854761Y-76616666D01*
X192807142Y-76521428D01*
X192759523Y-76473809D01*
X192664285Y-76426190D01*
X192473809Y-76378571D01*
X192378571Y-76330952D01*
X192330952Y-76283333D01*
X192283333Y-76188095D01*
X192283333Y-76092857D01*
X192330952Y-75997619D01*
X192378571Y-75950000D01*
X192473809Y-75902380D01*
X192711904Y-75902380D01*
X192854761Y-75950000D01*
X193283333Y-76378571D02*
X193616666Y-76378571D01*
X193759523Y-76902380D02*
X193283333Y-76902380D01*
X193283333Y-75902380D01*
X193759523Y-75902380D01*
X194045238Y-75902380D02*
X194616666Y-75902380D01*
X194330952Y-76902380D02*
X194330952Y-75902380D01*
X196566666Y-81303333D02*
X196566666Y-81170000D01*
X196600000Y-81103333D01*
X196666666Y-81036666D01*
X196800000Y-81003333D01*
X197033333Y-81003333D01*
X197166666Y-81036666D01*
X197233333Y-81103333D01*
X197266666Y-81170000D01*
X197266666Y-81303333D01*
X197233333Y-81370000D01*
X197166666Y-81436666D01*
X197033333Y-81470000D01*
X196800000Y-81470000D01*
X196666666Y-81436666D01*
X196600000Y-81370000D01*
X196566666Y-81303333D01*
X197266666Y-80703333D02*
X196566666Y-80703333D01*
X197266666Y-80303333D01*
X196566666Y-80303333D01*
D11*
X132701428Y-84232380D02*
X132772857Y-84256190D01*
X132891904Y-84256190D01*
X132939523Y-84232380D01*
X132963333Y-84208571D01*
X132987142Y-84160952D01*
X132987142Y-84113333D01*
X132963333Y-84065714D01*
X132939523Y-84041904D01*
X132891904Y-84018095D01*
X132796666Y-83994285D01*
X132749047Y-83970476D01*
X132725238Y-83946666D01*
X132701428Y-83899047D01*
X132701428Y-83851428D01*
X132725238Y-83803809D01*
X132749047Y-83780000D01*
X132796666Y-83756190D01*
X132915714Y-83756190D01*
X132987142Y-83780000D01*
X133130000Y-83756190D02*
X133415714Y-83756190D01*
X133272857Y-84256190D02*
X133272857Y-83756190D01*
X133582380Y-84256190D02*
X133582380Y-83756190D01*
X133749047Y-84113333D01*
X133915714Y-83756190D01*
X133915714Y-84256190D01*
X134106190Y-83756190D02*
X134415714Y-83756190D01*
X134249047Y-83946666D01*
X134320476Y-83946666D01*
X134368095Y-83970476D01*
X134391904Y-83994285D01*
X134415714Y-84041904D01*
X134415714Y-84160952D01*
X134391904Y-84208571D01*
X134368095Y-84232380D01*
X134320476Y-84256190D01*
X134177619Y-84256190D01*
X134130000Y-84232380D01*
X134106190Y-84208571D01*
X134606190Y-83803809D02*
X134630000Y-83780000D01*
X134677619Y-83756190D01*
X134796666Y-83756190D01*
X134844285Y-83780000D01*
X134868095Y-83803809D01*
X134891904Y-83851428D01*
X134891904Y-83899047D01*
X134868095Y-83970476D01*
X134582380Y-84256190D01*
X134891904Y-84256190D01*
X135272857Y-83994285D02*
X135106190Y-83994285D01*
X135106190Y-84256190D02*
X135106190Y-83756190D01*
X135344285Y-83756190D01*
X135749047Y-83922857D02*
X135749047Y-84256190D01*
X135630000Y-83732380D02*
X135510952Y-84089523D01*
X135820476Y-84089523D01*
X136272857Y-84256190D02*
X135987142Y-84256190D01*
X136130000Y-84256190D02*
X136130000Y-83756190D01*
X136082380Y-83827619D01*
X136034761Y-83875238D01*
X135987142Y-83899047D01*
X136749047Y-84256190D02*
X136463333Y-84256190D01*
X136606190Y-84256190D02*
X136606190Y-83756190D01*
X136558571Y-83827619D01*
X136510952Y-83875238D01*
X136463333Y-83899047D01*
X137249047Y-84256190D02*
X137082380Y-84018095D01*
X136963333Y-84256190D02*
X136963333Y-83756190D01*
X137153809Y-83756190D01*
X137201428Y-83780000D01*
X137225238Y-83803809D01*
X137249047Y-83851428D01*
X137249047Y-83922857D01*
X137225238Y-83970476D01*
X137201428Y-83994285D01*
X137153809Y-84018095D01*
X136963333Y-84018095D01*
X137463333Y-83994285D02*
X137630000Y-83994285D01*
X137701428Y-84256190D02*
X137463333Y-84256190D01*
X137463333Y-83756190D01*
X137701428Y-83756190D01*
X137844285Y-83756190D02*
X138130000Y-83756190D01*
X137987142Y-84256190D02*
X137987142Y-83756190D01*
X138510952Y-83756190D02*
X138415714Y-83756190D01*
X138368095Y-83780000D01*
X138344285Y-83803809D01*
X138296666Y-83875238D01*
X138272857Y-83970476D01*
X138272857Y-84160952D01*
X138296666Y-84208571D01*
X138320476Y-84232380D01*
X138368095Y-84256190D01*
X138463333Y-84256190D01*
X138510952Y-84232380D01*
X138534761Y-84208571D01*
X138558571Y-84160952D01*
X138558571Y-84041904D01*
X138534761Y-83994285D01*
X138510952Y-83970476D01*
X138463333Y-83946666D01*
X138368095Y-83946666D01*
X138320476Y-83970476D01*
X138296666Y-83994285D01*
X138272857Y-84041904D01*
D10*
%TO.C,C10*%
X146727842Y-95847457D02*
X146775461Y-95895076D01*
X146823080Y-96037933D01*
X146823080Y-96133171D01*
X146775461Y-96276028D01*
X146680223Y-96371266D01*
X146584985Y-96418885D01*
X146394509Y-96466504D01*
X146251652Y-96466504D01*
X146061176Y-96418885D01*
X145965938Y-96371266D01*
X145870700Y-96276028D01*
X145823080Y-96133171D01*
X145823080Y-96037933D01*
X145870700Y-95895076D01*
X145918319Y-95847457D01*
X146823080Y-94895076D02*
X146823080Y-95466504D01*
X146823080Y-95180790D02*
X145823080Y-95180790D01*
X145965938Y-95276028D01*
X146061176Y-95371266D01*
X146108795Y-95466504D01*
X145823080Y-94276028D02*
X145823080Y-94180790D01*
X145870700Y-94085552D01*
X145918319Y-94037933D01*
X146013557Y-93990314D01*
X146204033Y-93942695D01*
X146442128Y-93942695D01*
X146632604Y-93990314D01*
X146727842Y-94037933D01*
X146775461Y-94085552D01*
X146823080Y-94180790D01*
X146823080Y-94276028D01*
X146775461Y-94371266D01*
X146727842Y-94418885D01*
X146632604Y-94466504D01*
X146442128Y-94514123D01*
X146204033Y-94514123D01*
X146013557Y-94466504D01*
X145918319Y-94418885D01*
X145870700Y-94371266D01*
X145823080Y-94276028D01*
%TO.C,C12*%
X118437142Y-81402857D02*
X118484761Y-81450476D01*
X118532380Y-81593333D01*
X118532380Y-81688571D01*
X118484761Y-81831428D01*
X118389523Y-81926666D01*
X118294285Y-81974285D01*
X118103809Y-82021904D01*
X117960952Y-82021904D01*
X117770476Y-81974285D01*
X117675238Y-81926666D01*
X117580000Y-81831428D01*
X117532380Y-81688571D01*
X117532380Y-81593333D01*
X117580000Y-81450476D01*
X117627619Y-81402857D01*
X118532380Y-80450476D02*
X118532380Y-81021904D01*
X118532380Y-80736190D02*
X117532380Y-80736190D01*
X117675238Y-80831428D01*
X117770476Y-80926666D01*
X117818095Y-81021904D01*
X117627619Y-80069523D02*
X117580000Y-80021904D01*
X117532380Y-79926666D01*
X117532380Y-79688571D01*
X117580000Y-79593333D01*
X117627619Y-79545714D01*
X117722857Y-79498095D01*
X117818095Y-79498095D01*
X117960952Y-79545714D01*
X118532380Y-80117142D01*
X118532380Y-79498095D01*
%TO.C,R3*%
X156352380Y-67646666D02*
X155876190Y-67980000D01*
X156352380Y-68218095D02*
X155352380Y-68218095D01*
X155352380Y-67837142D01*
X155400000Y-67741904D01*
X155447619Y-67694285D01*
X155542857Y-67646666D01*
X155685714Y-67646666D01*
X155780952Y-67694285D01*
X155828571Y-67741904D01*
X155876190Y-67837142D01*
X155876190Y-68218095D01*
X155352380Y-67313333D02*
X155352380Y-66694285D01*
X155733333Y-67027619D01*
X155733333Y-66884761D01*
X155780952Y-66789523D01*
X155828571Y-66741904D01*
X155923809Y-66694285D01*
X156161904Y-66694285D01*
X156257142Y-66741904D01*
X156304761Y-66789523D01*
X156352380Y-66884761D01*
X156352380Y-67170476D01*
X156304761Y-67265714D01*
X156257142Y-67313333D01*
%TO.C,Y1*%
X154146190Y-91296190D02*
X154622380Y-91296190D01*
X153622380Y-91629523D02*
X154146190Y-91296190D01*
X153622380Y-90962857D01*
X154622380Y-90105714D02*
X154622380Y-90677142D01*
X154622380Y-90391428D02*
X153622380Y-90391428D01*
X153765238Y-90486666D01*
X153860476Y-90581904D01*
X153908095Y-90677142D01*
%TO.C,J8*%
X167078066Y-100611980D02*
X167078066Y-101326266D01*
X167030447Y-101469123D01*
X166935209Y-101564361D01*
X166792352Y-101611980D01*
X166697114Y-101611980D01*
X167697114Y-101040552D02*
X167601876Y-100992933D01*
X167554257Y-100945314D01*
X167506638Y-100850076D01*
X167506638Y-100802457D01*
X167554257Y-100707219D01*
X167601876Y-100659600D01*
X167697114Y-100611980D01*
X167887590Y-100611980D01*
X167982828Y-100659600D01*
X168030447Y-100707219D01*
X168078066Y-100802457D01*
X168078066Y-100850076D01*
X168030447Y-100945314D01*
X167982828Y-100992933D01*
X167887590Y-101040552D01*
X167697114Y-101040552D01*
X167601876Y-101088171D01*
X167554257Y-101135790D01*
X167506638Y-101231028D01*
X167506638Y-101421504D01*
X167554257Y-101516742D01*
X167601876Y-101564361D01*
X167697114Y-101611980D01*
X167887590Y-101611980D01*
X167982828Y-101564361D01*
X168030447Y-101516742D01*
X168078066Y-101421504D01*
X168078066Y-101231028D01*
X168030447Y-101135790D01*
X167982828Y-101088171D01*
X167887590Y-101040552D01*
%TO.C,J1*%
X181476666Y-64882380D02*
X181476666Y-65596666D01*
X181429047Y-65739523D01*
X181333809Y-65834761D01*
X181190952Y-65882380D01*
X181095714Y-65882380D01*
X182476666Y-65882380D02*
X181905238Y-65882380D01*
X182190952Y-65882380D02*
X182190952Y-64882380D01*
X182095714Y-65025238D01*
X182000476Y-65120476D01*
X181905238Y-65168095D01*
%TO.C,C17*%
X127695942Y-82557857D02*
X127743561Y-82605476D01*
X127791180Y-82748333D01*
X127791180Y-82843571D01*
X127743561Y-82986428D01*
X127648323Y-83081666D01*
X127553085Y-83129285D01*
X127362609Y-83176904D01*
X127219752Y-83176904D01*
X127029276Y-83129285D01*
X126934038Y-83081666D01*
X126838800Y-82986428D01*
X126791180Y-82843571D01*
X126791180Y-82748333D01*
X126838800Y-82605476D01*
X126886419Y-82557857D01*
X127791180Y-81605476D02*
X127791180Y-82176904D01*
X127791180Y-81891190D02*
X126791180Y-81891190D01*
X126934038Y-81986428D01*
X127029276Y-82081666D01*
X127076895Y-82176904D01*
X126791180Y-81272142D02*
X126791180Y-80605476D01*
X127791180Y-81034047D01*
%TO.C,C2*%
X131393333Y-81977142D02*
X131345714Y-82024761D01*
X131202857Y-82072380D01*
X131107619Y-82072380D01*
X130964761Y-82024761D01*
X130869523Y-81929523D01*
X130821904Y-81834285D01*
X130774285Y-81643809D01*
X130774285Y-81500952D01*
X130821904Y-81310476D01*
X130869523Y-81215238D01*
X130964761Y-81120000D01*
X131107619Y-81072380D01*
X131202857Y-81072380D01*
X131345714Y-81120000D01*
X131393333Y-81167619D01*
X131774285Y-81167619D02*
X131821904Y-81120000D01*
X131917142Y-81072380D01*
X132155238Y-81072380D01*
X132250476Y-81120000D01*
X132298095Y-81167619D01*
X132345714Y-81262857D01*
X132345714Y-81358095D01*
X132298095Y-81500952D01*
X131726666Y-82072380D01*
X132345714Y-82072380D01*
%TO.C,R9*%
X112612380Y-92626666D02*
X112136190Y-92960000D01*
X112612380Y-93198095D02*
X111612380Y-93198095D01*
X111612380Y-92817142D01*
X111660000Y-92721904D01*
X111707619Y-92674285D01*
X111802857Y-92626666D01*
X111945714Y-92626666D01*
X112040952Y-92674285D01*
X112088571Y-92721904D01*
X112136190Y-92817142D01*
X112136190Y-93198095D01*
X112612380Y-92150476D02*
X112612380Y-91960000D01*
X112564761Y-91864761D01*
X112517142Y-91817142D01*
X112374285Y-91721904D01*
X112183809Y-91674285D01*
X111802857Y-91674285D01*
X111707619Y-91721904D01*
X111660000Y-91769523D01*
X111612380Y-91864761D01*
X111612380Y-92055238D01*
X111660000Y-92150476D01*
X111707619Y-92198095D01*
X111802857Y-92245714D01*
X112040952Y-92245714D01*
X112136190Y-92198095D01*
X112183809Y-92150476D01*
X112231428Y-92055238D01*
X112231428Y-91864761D01*
X112183809Y-91769523D01*
X112136190Y-91721904D01*
X112040952Y-91674285D01*
%TO.C,D2*%
X151912380Y-61188095D02*
X150912380Y-61188095D01*
X150912380Y-60950000D01*
X150960000Y-60807142D01*
X151055238Y-60711904D01*
X151150476Y-60664285D01*
X151340952Y-60616666D01*
X151483809Y-60616666D01*
X151674285Y-60664285D01*
X151769523Y-60711904D01*
X151864761Y-60807142D01*
X151912380Y-60950000D01*
X151912380Y-61188095D01*
X151007619Y-60235714D02*
X150960000Y-60188095D01*
X150912380Y-60092857D01*
X150912380Y-59854761D01*
X150960000Y-59759523D01*
X151007619Y-59711904D01*
X151102857Y-59664285D01*
X151198095Y-59664285D01*
X151340952Y-59711904D01*
X151912380Y-60283333D01*
X151912380Y-59664285D01*
%TO.C,C1*%
X183037142Y-70916666D02*
X183084761Y-70964285D01*
X183132380Y-71107142D01*
X183132380Y-71202380D01*
X183084761Y-71345238D01*
X182989523Y-71440476D01*
X182894285Y-71488095D01*
X182703809Y-71535714D01*
X182560952Y-71535714D01*
X182370476Y-71488095D01*
X182275238Y-71440476D01*
X182180000Y-71345238D01*
X182132380Y-71202380D01*
X182132380Y-71107142D01*
X182180000Y-70964285D01*
X182227619Y-70916666D01*
X183132380Y-69964285D02*
X183132380Y-70535714D01*
X183132380Y-70250000D02*
X182132380Y-70250000D01*
X182275238Y-70345238D01*
X182370476Y-70440476D01*
X182418095Y-70535714D01*
%TO.C,R5*%
X144664133Y-102153980D02*
X144330800Y-101677790D01*
X144092704Y-102153980D02*
X144092704Y-101153980D01*
X144473657Y-101153980D01*
X144568895Y-101201600D01*
X144616514Y-101249219D01*
X144664133Y-101344457D01*
X144664133Y-101487314D01*
X144616514Y-101582552D01*
X144568895Y-101630171D01*
X144473657Y-101677790D01*
X144092704Y-101677790D01*
X145568895Y-101153980D02*
X145092704Y-101153980D01*
X145045085Y-101630171D01*
X145092704Y-101582552D01*
X145187942Y-101534933D01*
X145426038Y-101534933D01*
X145521276Y-101582552D01*
X145568895Y-101630171D01*
X145616514Y-101725409D01*
X145616514Y-101963504D01*
X145568895Y-102058742D01*
X145521276Y-102106361D01*
X145426038Y-102153980D01*
X145187942Y-102153980D01*
X145092704Y-102106361D01*
X145045085Y-102058742D01*
%TO.C,R7*%
X112722380Y-94856666D02*
X112246190Y-95190000D01*
X112722380Y-95428095D02*
X111722380Y-95428095D01*
X111722380Y-95047142D01*
X111770000Y-94951904D01*
X111817619Y-94904285D01*
X111912857Y-94856666D01*
X112055714Y-94856666D01*
X112150952Y-94904285D01*
X112198571Y-94951904D01*
X112246190Y-95047142D01*
X112246190Y-95428095D01*
X111722380Y-94523333D02*
X111722380Y-93856666D01*
X112722380Y-94285238D01*
%TO.C,R1*%
X184150133Y-84324180D02*
X183816800Y-83847990D01*
X183578704Y-84324180D02*
X183578704Y-83324180D01*
X183959657Y-83324180D01*
X184054895Y-83371800D01*
X184102514Y-83419419D01*
X184150133Y-83514657D01*
X184150133Y-83657514D01*
X184102514Y-83752752D01*
X184054895Y-83800371D01*
X183959657Y-83847990D01*
X183578704Y-83847990D01*
X185102514Y-84324180D02*
X184531085Y-84324180D01*
X184816800Y-84324180D02*
X184816800Y-83324180D01*
X184721561Y-83467038D01*
X184626323Y-83562276D01*
X184531085Y-83609895D01*
%TO.C,C20*%
X108967142Y-67537142D02*
X108919523Y-67584761D01*
X108776666Y-67632380D01*
X108681428Y-67632380D01*
X108538571Y-67584761D01*
X108443333Y-67489523D01*
X108395714Y-67394285D01*
X108348095Y-67203809D01*
X108348095Y-67060952D01*
X108395714Y-66870476D01*
X108443333Y-66775238D01*
X108538571Y-66680000D01*
X108681428Y-66632380D01*
X108776666Y-66632380D01*
X108919523Y-66680000D01*
X108967142Y-66727619D01*
X109348095Y-66727619D02*
X109395714Y-66680000D01*
X109490952Y-66632380D01*
X109729047Y-66632380D01*
X109824285Y-66680000D01*
X109871904Y-66727619D01*
X109919523Y-66822857D01*
X109919523Y-66918095D01*
X109871904Y-67060952D01*
X109300476Y-67632380D01*
X109919523Y-67632380D01*
X110538571Y-66632380D02*
X110633809Y-66632380D01*
X110729047Y-66680000D01*
X110776666Y-66727619D01*
X110824285Y-66822857D01*
X110871904Y-67013333D01*
X110871904Y-67251428D01*
X110824285Y-67441904D01*
X110776666Y-67537142D01*
X110729047Y-67584761D01*
X110633809Y-67632380D01*
X110538571Y-67632380D01*
X110443333Y-67584761D01*
X110395714Y-67537142D01*
X110348095Y-67441904D01*
X110300476Y-67251428D01*
X110300476Y-67013333D01*
X110348095Y-66822857D01*
X110395714Y-66727619D01*
X110443333Y-66680000D01*
X110538571Y-66632380D01*
%TO.C,C22*%
X109327142Y-77082857D02*
X109374761Y-77130476D01*
X109422380Y-77273333D01*
X109422380Y-77368571D01*
X109374761Y-77511428D01*
X109279523Y-77606666D01*
X109184285Y-77654285D01*
X108993809Y-77701904D01*
X108850952Y-77701904D01*
X108660476Y-77654285D01*
X108565238Y-77606666D01*
X108470000Y-77511428D01*
X108422380Y-77368571D01*
X108422380Y-77273333D01*
X108470000Y-77130476D01*
X108517619Y-77082857D01*
X108517619Y-76701904D02*
X108470000Y-76654285D01*
X108422380Y-76559047D01*
X108422380Y-76320952D01*
X108470000Y-76225714D01*
X108517619Y-76178095D01*
X108612857Y-76130476D01*
X108708095Y-76130476D01*
X108850952Y-76178095D01*
X109422380Y-76749523D01*
X109422380Y-76130476D01*
X108517619Y-75749523D02*
X108470000Y-75701904D01*
X108422380Y-75606666D01*
X108422380Y-75368571D01*
X108470000Y-75273333D01*
X108517619Y-75225714D01*
X108612857Y-75178095D01*
X108708095Y-75178095D01*
X108850952Y-75225714D01*
X109422380Y-75797142D01*
X109422380Y-75178095D01*
%TO.C,C15*%
X127690942Y-78083557D02*
X127738561Y-78131176D01*
X127786180Y-78274033D01*
X127786180Y-78369271D01*
X127738561Y-78512128D01*
X127643323Y-78607366D01*
X127548085Y-78654985D01*
X127357609Y-78702604D01*
X127214752Y-78702604D01*
X127024276Y-78654985D01*
X126929038Y-78607366D01*
X126833800Y-78512128D01*
X126786180Y-78369271D01*
X126786180Y-78274033D01*
X126833800Y-78131176D01*
X126881419Y-78083557D01*
X127786180Y-77131176D02*
X127786180Y-77702604D01*
X127786180Y-77416890D02*
X126786180Y-77416890D01*
X126929038Y-77512128D01*
X127024276Y-77607366D01*
X127071895Y-77702604D01*
X126786180Y-76226414D02*
X126786180Y-76702604D01*
X127262371Y-76750223D01*
X127214752Y-76702604D01*
X127167133Y-76607366D01*
X127167133Y-76369271D01*
X127214752Y-76274033D01*
X127262371Y-76226414D01*
X127357609Y-76178795D01*
X127595704Y-76178795D01*
X127690942Y-76226414D01*
X127738561Y-76274033D01*
X127786180Y-76369271D01*
X127786180Y-76607366D01*
X127738561Y-76702604D01*
X127690942Y-76750223D01*
%TO.C,C18*%
X109227142Y-80032857D02*
X109274761Y-80080476D01*
X109322380Y-80223333D01*
X109322380Y-80318571D01*
X109274761Y-80461428D01*
X109179523Y-80556666D01*
X109084285Y-80604285D01*
X108893809Y-80651904D01*
X108750952Y-80651904D01*
X108560476Y-80604285D01*
X108465238Y-80556666D01*
X108370000Y-80461428D01*
X108322380Y-80318571D01*
X108322380Y-80223333D01*
X108370000Y-80080476D01*
X108417619Y-80032857D01*
X109322380Y-79080476D02*
X109322380Y-79651904D01*
X109322380Y-79366190D02*
X108322380Y-79366190D01*
X108465238Y-79461428D01*
X108560476Y-79556666D01*
X108608095Y-79651904D01*
X108750952Y-78509047D02*
X108703333Y-78604285D01*
X108655714Y-78651904D01*
X108560476Y-78699523D01*
X108512857Y-78699523D01*
X108417619Y-78651904D01*
X108370000Y-78604285D01*
X108322380Y-78509047D01*
X108322380Y-78318571D01*
X108370000Y-78223333D01*
X108417619Y-78175714D01*
X108512857Y-78128095D01*
X108560476Y-78128095D01*
X108655714Y-78175714D01*
X108703333Y-78223333D01*
X108750952Y-78318571D01*
X108750952Y-78509047D01*
X108798571Y-78604285D01*
X108846190Y-78651904D01*
X108941428Y-78699523D01*
X109131904Y-78699523D01*
X109227142Y-78651904D01*
X109274761Y-78604285D01*
X109322380Y-78509047D01*
X109322380Y-78318571D01*
X109274761Y-78223333D01*
X109227142Y-78175714D01*
X109131904Y-78128095D01*
X108941428Y-78128095D01*
X108846190Y-78175714D01*
X108798571Y-78223333D01*
X108750952Y-78318571D01*
%TO.C,R10*%
X116217142Y-88512380D02*
X115883809Y-88036190D01*
X115645714Y-88512380D02*
X115645714Y-87512380D01*
X116026666Y-87512380D01*
X116121904Y-87560000D01*
X116169523Y-87607619D01*
X116217142Y-87702857D01*
X116217142Y-87845714D01*
X116169523Y-87940952D01*
X116121904Y-87988571D01*
X116026666Y-88036190D01*
X115645714Y-88036190D01*
X117169523Y-88512380D02*
X116598095Y-88512380D01*
X116883809Y-88512380D02*
X116883809Y-87512380D01*
X116788571Y-87655238D01*
X116693333Y-87750476D01*
X116598095Y-87798095D01*
X117788571Y-87512380D02*
X117883809Y-87512380D01*
X117979047Y-87560000D01*
X118026666Y-87607619D01*
X118074285Y-87702857D01*
X118121904Y-87893333D01*
X118121904Y-88131428D01*
X118074285Y-88321904D01*
X118026666Y-88417142D01*
X117979047Y-88464761D01*
X117883809Y-88512380D01*
X117788571Y-88512380D01*
X117693333Y-88464761D01*
X117645714Y-88417142D01*
X117598095Y-88321904D01*
X117550476Y-88131428D01*
X117550476Y-87893333D01*
X117598095Y-87702857D01*
X117645714Y-87607619D01*
X117693333Y-87560000D01*
X117788571Y-87512380D01*
%TO.C,C16*%
X122666742Y-82557857D02*
X122714361Y-82605476D01*
X122761980Y-82748333D01*
X122761980Y-82843571D01*
X122714361Y-82986428D01*
X122619123Y-83081666D01*
X122523885Y-83129285D01*
X122333409Y-83176904D01*
X122190552Y-83176904D01*
X122000076Y-83129285D01*
X121904838Y-83081666D01*
X121809600Y-82986428D01*
X121761980Y-82843571D01*
X121761980Y-82748333D01*
X121809600Y-82605476D01*
X121857219Y-82557857D01*
X122761980Y-81605476D02*
X122761980Y-82176904D01*
X122761980Y-81891190D02*
X121761980Y-81891190D01*
X121904838Y-81986428D01*
X122000076Y-82081666D01*
X122047695Y-82176904D01*
X121761980Y-80748333D02*
X121761980Y-80938809D01*
X121809600Y-81034047D01*
X121857219Y-81081666D01*
X122000076Y-81176904D01*
X122190552Y-81224523D01*
X122571504Y-81224523D01*
X122666742Y-81176904D01*
X122714361Y-81129285D01*
X122761980Y-81034047D01*
X122761980Y-80843571D01*
X122714361Y-80748333D01*
X122666742Y-80700714D01*
X122571504Y-80653095D01*
X122333409Y-80653095D01*
X122238171Y-80700714D01*
X122190552Y-80748333D01*
X122142933Y-80843571D01*
X122142933Y-81034047D01*
X122190552Y-81129285D01*
X122238171Y-81176904D01*
X122333409Y-81224523D01*
%TO.C,C11*%
X114477142Y-78012857D02*
X114524761Y-78060476D01*
X114572380Y-78203333D01*
X114572380Y-78298571D01*
X114524761Y-78441428D01*
X114429523Y-78536666D01*
X114334285Y-78584285D01*
X114143809Y-78631904D01*
X114000952Y-78631904D01*
X113810476Y-78584285D01*
X113715238Y-78536666D01*
X113620000Y-78441428D01*
X113572380Y-78298571D01*
X113572380Y-78203333D01*
X113620000Y-78060476D01*
X113667619Y-78012857D01*
X114572380Y-77060476D02*
X114572380Y-77631904D01*
X114572380Y-77346190D02*
X113572380Y-77346190D01*
X113715238Y-77441428D01*
X113810476Y-77536666D01*
X113858095Y-77631904D01*
X114572380Y-76108095D02*
X114572380Y-76679523D01*
X114572380Y-76393809D02*
X113572380Y-76393809D01*
X113715238Y-76489047D01*
X113810476Y-76584285D01*
X113858095Y-76679523D01*
%TO.C,J9*%
X159629266Y-79501780D02*
X159629266Y-80216066D01*
X159581647Y-80358923D01*
X159486409Y-80454161D01*
X159343552Y-80501780D01*
X159248314Y-80501780D01*
X160153076Y-80501780D02*
X160343552Y-80501780D01*
X160438790Y-80454161D01*
X160486409Y-80406542D01*
X160581647Y-80263685D01*
X160629266Y-80073209D01*
X160629266Y-79692257D01*
X160581647Y-79597019D01*
X160534028Y-79549400D01*
X160438790Y-79501780D01*
X160248314Y-79501780D01*
X160153076Y-79549400D01*
X160105457Y-79597019D01*
X160057838Y-79692257D01*
X160057838Y-79930352D01*
X160105457Y-80025590D01*
X160153076Y-80073209D01*
X160248314Y-80120828D01*
X160438790Y-80120828D01*
X160534028Y-80073209D01*
X160581647Y-80025590D01*
X160629266Y-79930352D01*
%TO.C,FB1*%
X112526666Y-81778571D02*
X112193333Y-81778571D01*
X112193333Y-82302380D02*
X112193333Y-81302380D01*
X112669523Y-81302380D01*
X113383809Y-81778571D02*
X113526666Y-81826190D01*
X113574285Y-81873809D01*
X113621904Y-81969047D01*
X113621904Y-82111904D01*
X113574285Y-82207142D01*
X113526666Y-82254761D01*
X113431428Y-82302380D01*
X113050476Y-82302380D01*
X113050476Y-81302380D01*
X113383809Y-81302380D01*
X113479047Y-81350000D01*
X113526666Y-81397619D01*
X113574285Y-81492857D01*
X113574285Y-81588095D01*
X113526666Y-81683333D01*
X113479047Y-81730952D01*
X113383809Y-81778571D01*
X113050476Y-81778571D01*
X114574285Y-82302380D02*
X114002857Y-82302380D01*
X114288571Y-82302380D02*
X114288571Y-81302380D01*
X114193333Y-81445238D01*
X114098095Y-81540476D01*
X114002857Y-81588095D01*
%TO.C,C14*%
X123507142Y-74432857D02*
X123554761Y-74480476D01*
X123602380Y-74623333D01*
X123602380Y-74718571D01*
X123554761Y-74861428D01*
X123459523Y-74956666D01*
X123364285Y-75004285D01*
X123173809Y-75051904D01*
X123030952Y-75051904D01*
X122840476Y-75004285D01*
X122745238Y-74956666D01*
X122650000Y-74861428D01*
X122602380Y-74718571D01*
X122602380Y-74623333D01*
X122650000Y-74480476D01*
X122697619Y-74432857D01*
X123602380Y-73480476D02*
X123602380Y-74051904D01*
X123602380Y-73766190D02*
X122602380Y-73766190D01*
X122745238Y-73861428D01*
X122840476Y-73956666D01*
X122888095Y-74051904D01*
X122935714Y-72623333D02*
X123602380Y-72623333D01*
X122554761Y-72861428D02*
X123269047Y-73099523D01*
X123269047Y-72480476D01*
%TO.C,R4*%
X151203333Y-70202380D02*
X150870000Y-69726190D01*
X150631904Y-70202380D02*
X150631904Y-69202380D01*
X151012857Y-69202380D01*
X151108095Y-69250000D01*
X151155714Y-69297619D01*
X151203333Y-69392857D01*
X151203333Y-69535714D01*
X151155714Y-69630952D01*
X151108095Y-69678571D01*
X151012857Y-69726190D01*
X150631904Y-69726190D01*
X152060476Y-69535714D02*
X152060476Y-70202380D01*
X151822380Y-69154761D02*
X151584285Y-69869047D01*
X152203333Y-69869047D01*
%TO.C,R12*%
X142802380Y-71042857D02*
X142326190Y-71376190D01*
X142802380Y-71614285D02*
X141802380Y-71614285D01*
X141802380Y-71233333D01*
X141850000Y-71138095D01*
X141897619Y-71090476D01*
X141992857Y-71042857D01*
X142135714Y-71042857D01*
X142230952Y-71090476D01*
X142278571Y-71138095D01*
X142326190Y-71233333D01*
X142326190Y-71614285D01*
X142802380Y-70090476D02*
X142802380Y-70661904D01*
X142802380Y-70376190D02*
X141802380Y-70376190D01*
X141945238Y-70471428D01*
X142040476Y-70566666D01*
X142088095Y-70661904D01*
X141897619Y-69709523D02*
X141850000Y-69661904D01*
X141802380Y-69566666D01*
X141802380Y-69328571D01*
X141850000Y-69233333D01*
X141897619Y-69185714D01*
X141992857Y-69138095D01*
X142088095Y-69138095D01*
X142230952Y-69185714D01*
X142802380Y-69757142D01*
X142802380Y-69138095D01*
%TO.C,R6*%
X144933333Y-92152380D02*
X144600000Y-91676190D01*
X144361904Y-92152380D02*
X144361904Y-91152380D01*
X144742857Y-91152380D01*
X144838095Y-91200000D01*
X144885714Y-91247619D01*
X144933333Y-91342857D01*
X144933333Y-91485714D01*
X144885714Y-91580952D01*
X144838095Y-91628571D01*
X144742857Y-91676190D01*
X144361904Y-91676190D01*
X145790476Y-91152380D02*
X145600000Y-91152380D01*
X145504761Y-91200000D01*
X145457142Y-91247619D01*
X145361904Y-91390476D01*
X145314285Y-91580952D01*
X145314285Y-91961904D01*
X145361904Y-92057142D01*
X145409523Y-92104761D01*
X145504761Y-92152380D01*
X145695238Y-92152380D01*
X145790476Y-92104761D01*
X145838095Y-92057142D01*
X145885714Y-91961904D01*
X145885714Y-91723809D01*
X145838095Y-91628571D01*
X145790476Y-91580952D01*
X145695238Y-91533333D01*
X145504761Y-91533333D01*
X145409523Y-91580952D01*
X145361904Y-91628571D01*
X145314285Y-91723809D01*
%TO.C,D4*%
X147382380Y-64278095D02*
X146382380Y-64278095D01*
X146382380Y-64040000D01*
X146430000Y-63897142D01*
X146525238Y-63801904D01*
X146620476Y-63754285D01*
X146810952Y-63706666D01*
X146953809Y-63706666D01*
X147144285Y-63754285D01*
X147239523Y-63801904D01*
X147334761Y-63897142D01*
X147382380Y-64040000D01*
X147382380Y-64278095D01*
X146715714Y-62849523D02*
X147382380Y-62849523D01*
X146334761Y-63087619D02*
X147049047Y-63325714D01*
X147049047Y-62706666D01*
%TO.C,C4*%
X147575542Y-91911466D02*
X147623161Y-91959085D01*
X147670780Y-92101942D01*
X147670780Y-92197180D01*
X147623161Y-92340038D01*
X147527923Y-92435276D01*
X147432685Y-92482895D01*
X147242209Y-92530514D01*
X147099352Y-92530514D01*
X146908876Y-92482895D01*
X146813638Y-92435276D01*
X146718400Y-92340038D01*
X146670780Y-92197180D01*
X146670780Y-92101942D01*
X146718400Y-91959085D01*
X146766019Y-91911466D01*
X147004114Y-91054323D02*
X147670780Y-91054323D01*
X146623161Y-91292419D02*
X147337447Y-91530514D01*
X147337447Y-90911466D01*
%TO.C,D3*%
X139695180Y-108180095D02*
X138695180Y-108180095D01*
X138695180Y-107942000D01*
X138742800Y-107799142D01*
X138838038Y-107703904D01*
X138933276Y-107656285D01*
X139123752Y-107608666D01*
X139266609Y-107608666D01*
X139457085Y-107656285D01*
X139552323Y-107703904D01*
X139647561Y-107799142D01*
X139695180Y-107942000D01*
X139695180Y-108180095D01*
X138695180Y-107275333D02*
X138695180Y-106656285D01*
X139076133Y-106989619D01*
X139076133Y-106846761D01*
X139123752Y-106751523D01*
X139171371Y-106703904D01*
X139266609Y-106656285D01*
X139504704Y-106656285D01*
X139599942Y-106703904D01*
X139647561Y-106751523D01*
X139695180Y-106846761D01*
X139695180Y-107132476D01*
X139647561Y-107227714D01*
X139599942Y-107275333D01*
X140101580Y-102623904D02*
X139101580Y-102623904D01*
X140101580Y-102052476D02*
X139530152Y-102481047D01*
X139101580Y-102052476D02*
X139673009Y-102623904D01*
%TO.C,R13*%
X132527142Y-70242380D02*
X132193809Y-69766190D01*
X131955714Y-70242380D02*
X131955714Y-69242380D01*
X132336666Y-69242380D01*
X132431904Y-69290000D01*
X132479523Y-69337619D01*
X132527142Y-69432857D01*
X132527142Y-69575714D01*
X132479523Y-69670952D01*
X132431904Y-69718571D01*
X132336666Y-69766190D01*
X131955714Y-69766190D01*
X133479523Y-70242380D02*
X132908095Y-70242380D01*
X133193809Y-70242380D02*
X133193809Y-69242380D01*
X133098571Y-69385238D01*
X133003333Y-69480476D01*
X132908095Y-69528095D01*
X133812857Y-69242380D02*
X134431904Y-69242380D01*
X134098571Y-69623333D01*
X134241428Y-69623333D01*
X134336666Y-69670952D01*
X134384285Y-69718571D01*
X134431904Y-69813809D01*
X134431904Y-70051904D01*
X134384285Y-70147142D01*
X134336666Y-70194761D01*
X134241428Y-70242380D01*
X133955714Y-70242380D01*
X133860476Y-70194761D01*
X133812857Y-70147142D01*
%TO.C,J10*%
X131230476Y-110582380D02*
X131230476Y-111296666D01*
X131182857Y-111439523D01*
X131087619Y-111534761D01*
X130944761Y-111582380D01*
X130849523Y-111582380D01*
X132230476Y-111582380D02*
X131659047Y-111582380D01*
X131944761Y-111582380D02*
X131944761Y-110582380D01*
X131849523Y-110725238D01*
X131754285Y-110820476D01*
X131659047Y-110868095D01*
X132849523Y-110582380D02*
X132944761Y-110582380D01*
X133040000Y-110630000D01*
X133087619Y-110677619D01*
X133135238Y-110772857D01*
X133182857Y-110963333D01*
X133182857Y-111201428D01*
X133135238Y-111391904D01*
X133087619Y-111487142D01*
X133040000Y-111534761D01*
X132944761Y-111582380D01*
X132849523Y-111582380D01*
X132754285Y-111534761D01*
X132706666Y-111487142D01*
X132659047Y-111391904D01*
X132611428Y-111201428D01*
X132611428Y-110963333D01*
X132659047Y-110772857D01*
X132706666Y-110677619D01*
X132754285Y-110630000D01*
X132849523Y-110582380D01*
%TO.C,C9*%
X112707142Y-97076666D02*
X112754761Y-97124285D01*
X112802380Y-97267142D01*
X112802380Y-97362380D01*
X112754761Y-97505238D01*
X112659523Y-97600476D01*
X112564285Y-97648095D01*
X112373809Y-97695714D01*
X112230952Y-97695714D01*
X112040476Y-97648095D01*
X111945238Y-97600476D01*
X111850000Y-97505238D01*
X111802380Y-97362380D01*
X111802380Y-97267142D01*
X111850000Y-97124285D01*
X111897619Y-97076666D01*
X112802380Y-96600476D02*
X112802380Y-96410000D01*
X112754761Y-96314761D01*
X112707142Y-96267142D01*
X112564285Y-96171904D01*
X112373809Y-96124285D01*
X111992857Y-96124285D01*
X111897619Y-96171904D01*
X111850000Y-96219523D01*
X111802380Y-96314761D01*
X111802380Y-96505238D01*
X111850000Y-96600476D01*
X111897619Y-96648095D01*
X111992857Y-96695714D01*
X112230952Y-96695714D01*
X112326190Y-96648095D01*
X112373809Y-96600476D01*
X112421428Y-96505238D01*
X112421428Y-96314761D01*
X112373809Y-96219523D01*
X112326190Y-96171904D01*
X112230952Y-96124285D01*
%TO.C,U3*%
X180700695Y-97541980D02*
X180700695Y-98351504D01*
X180748314Y-98446742D01*
X180795933Y-98494361D01*
X180891171Y-98541980D01*
X181081647Y-98541980D01*
X181176885Y-98494361D01*
X181224504Y-98446742D01*
X181272123Y-98351504D01*
X181272123Y-97541980D01*
X181653076Y-97541980D02*
X182272123Y-97541980D01*
X181938790Y-97922933D01*
X182081647Y-97922933D01*
X182176885Y-97970552D01*
X182224504Y-98018171D01*
X182272123Y-98113409D01*
X182272123Y-98351504D01*
X182224504Y-98446742D01*
X182176885Y-98494361D01*
X182081647Y-98541980D01*
X181795933Y-98541980D01*
X181700695Y-98494361D01*
X181653076Y-98446742D01*
%TO.C,J6*%
X191916666Y-115542380D02*
X191916666Y-116256666D01*
X191869047Y-116399523D01*
X191773809Y-116494761D01*
X191630952Y-116542380D01*
X191535714Y-116542380D01*
X192821428Y-115542380D02*
X192630952Y-115542380D01*
X192535714Y-115590000D01*
X192488095Y-115637619D01*
X192392857Y-115780476D01*
X192345238Y-115970952D01*
X192345238Y-116351904D01*
X192392857Y-116447142D01*
X192440476Y-116494761D01*
X192535714Y-116542380D01*
X192726190Y-116542380D01*
X192821428Y-116494761D01*
X192869047Y-116447142D01*
X192916666Y-116351904D01*
X192916666Y-116113809D01*
X192869047Y-116018571D01*
X192821428Y-115970952D01*
X192726190Y-115923333D01*
X192535714Y-115923333D01*
X192440476Y-115970952D01*
X192392857Y-116018571D01*
X192345238Y-116113809D01*
%TO.C,J14*%
X99250476Y-65432380D02*
X99250476Y-66146666D01*
X99202857Y-66289523D01*
X99107619Y-66384761D01*
X98964761Y-66432380D01*
X98869523Y-66432380D01*
X100250476Y-66432380D02*
X99679047Y-66432380D01*
X99964761Y-66432380D02*
X99964761Y-65432380D01*
X99869523Y-65575238D01*
X99774285Y-65670476D01*
X99679047Y-65718095D01*
X101107619Y-65765714D02*
X101107619Y-66432380D01*
X100869523Y-65384761D02*
X100631428Y-66099047D01*
X101250476Y-66099047D01*
%TO.C,J17*%
X134064476Y-62952380D02*
X134064476Y-63666666D01*
X134016857Y-63809523D01*
X133921619Y-63904761D01*
X133778761Y-63952380D01*
X133683523Y-63952380D01*
X135064476Y-63952380D02*
X134493047Y-63952380D01*
X134778761Y-63952380D02*
X134778761Y-62952380D01*
X134683523Y-63095238D01*
X134588285Y-63190476D01*
X134493047Y-63238095D01*
X135397809Y-62952380D02*
X136064476Y-62952380D01*
X135635904Y-63952380D01*
%TO.C,C13*%
X121097142Y-74452857D02*
X121144761Y-74500476D01*
X121192380Y-74643333D01*
X121192380Y-74738571D01*
X121144761Y-74881428D01*
X121049523Y-74976666D01*
X120954285Y-75024285D01*
X120763809Y-75071904D01*
X120620952Y-75071904D01*
X120430476Y-75024285D01*
X120335238Y-74976666D01*
X120240000Y-74881428D01*
X120192380Y-74738571D01*
X120192380Y-74643333D01*
X120240000Y-74500476D01*
X120287619Y-74452857D01*
X121192380Y-73500476D02*
X121192380Y-74071904D01*
X121192380Y-73786190D02*
X120192380Y-73786190D01*
X120335238Y-73881428D01*
X120430476Y-73976666D01*
X120478095Y-74071904D01*
X120192380Y-73167142D02*
X120192380Y-72548095D01*
X120573333Y-72881428D01*
X120573333Y-72738571D01*
X120620952Y-72643333D01*
X120668571Y-72595714D01*
X120763809Y-72548095D01*
X121001904Y-72548095D01*
X121097142Y-72595714D01*
X121144761Y-72643333D01*
X121192380Y-72738571D01*
X121192380Y-73024285D01*
X121144761Y-73119523D01*
X121097142Y-73167142D01*
%TO.C,J3*%
X100866666Y-119162380D02*
X100866666Y-119876666D01*
X100819047Y-120019523D01*
X100723809Y-120114761D01*
X100580952Y-120162380D01*
X100485714Y-120162380D01*
X101247619Y-119162380D02*
X101866666Y-119162380D01*
X101533333Y-119543333D01*
X101676190Y-119543333D01*
X101771428Y-119590952D01*
X101819047Y-119638571D01*
X101866666Y-119733809D01*
X101866666Y-119971904D01*
X101819047Y-120067142D01*
X101771428Y-120114761D01*
X101676190Y-120162380D01*
X101390476Y-120162380D01*
X101295238Y-120114761D01*
X101247619Y-120067142D01*
%TO.C,J13*%
X105160476Y-61502380D02*
X105160476Y-62216666D01*
X105112857Y-62359523D01*
X105017619Y-62454761D01*
X104874761Y-62502380D01*
X104779523Y-62502380D01*
X106160476Y-62502380D02*
X105589047Y-62502380D01*
X105874761Y-62502380D02*
X105874761Y-61502380D01*
X105779523Y-61645238D01*
X105684285Y-61740476D01*
X105589047Y-61788095D01*
X106493809Y-61502380D02*
X107112857Y-61502380D01*
X106779523Y-61883333D01*
X106922380Y-61883333D01*
X107017619Y-61930952D01*
X107065238Y-61978571D01*
X107112857Y-62073809D01*
X107112857Y-62311904D01*
X107065238Y-62407142D01*
X107017619Y-62454761D01*
X106922380Y-62502380D01*
X106636666Y-62502380D01*
X106541428Y-62454761D01*
X106493809Y-62407142D01*
%TO.C,C19*%
X105787142Y-67477142D02*
X105739523Y-67524761D01*
X105596666Y-67572380D01*
X105501428Y-67572380D01*
X105358571Y-67524761D01*
X105263333Y-67429523D01*
X105215714Y-67334285D01*
X105168095Y-67143809D01*
X105168095Y-67000952D01*
X105215714Y-66810476D01*
X105263333Y-66715238D01*
X105358571Y-66620000D01*
X105501428Y-66572380D01*
X105596666Y-66572380D01*
X105739523Y-66620000D01*
X105787142Y-66667619D01*
X106739523Y-67572380D02*
X106168095Y-67572380D01*
X106453809Y-67572380D02*
X106453809Y-66572380D01*
X106358571Y-66715238D01*
X106263333Y-66810476D01*
X106168095Y-66858095D01*
X107215714Y-67572380D02*
X107406190Y-67572380D01*
X107501428Y-67524761D01*
X107549047Y-67477142D01*
X107644285Y-67334285D01*
X107691904Y-67143809D01*
X107691904Y-66762857D01*
X107644285Y-66667619D01*
X107596666Y-66620000D01*
X107501428Y-66572380D01*
X107310952Y-66572380D01*
X107215714Y-66620000D01*
X107168095Y-66667619D01*
X107120476Y-66762857D01*
X107120476Y-67000952D01*
X107168095Y-67096190D01*
X107215714Y-67143809D01*
X107310952Y-67191428D01*
X107501428Y-67191428D01*
X107596666Y-67143809D01*
X107644285Y-67096190D01*
X107691904Y-67000952D01*
%TO.C,J2*%
X118376666Y-119222380D02*
X118376666Y-119936666D01*
X118329047Y-120079523D01*
X118233809Y-120174761D01*
X118090952Y-120222380D01*
X117995714Y-120222380D01*
X118805238Y-119317619D02*
X118852857Y-119270000D01*
X118948095Y-119222380D01*
X119186190Y-119222380D01*
X119281428Y-119270000D01*
X119329047Y-119317619D01*
X119376666Y-119412857D01*
X119376666Y-119508095D01*
X119329047Y-119650952D01*
X118757619Y-120222380D01*
X119376666Y-120222380D01*
%TO.C,C7*%
X146717142Y-97657266D02*
X146764761Y-97704885D01*
X146812380Y-97847742D01*
X146812380Y-97942980D01*
X146764761Y-98085838D01*
X146669523Y-98181076D01*
X146574285Y-98228695D01*
X146383809Y-98276314D01*
X146240952Y-98276314D01*
X146050476Y-98228695D01*
X145955238Y-98181076D01*
X145860000Y-98085838D01*
X145812380Y-97942980D01*
X145812380Y-97847742D01*
X145860000Y-97704885D01*
X145907619Y-97657266D01*
X145812380Y-97323933D02*
X145812380Y-96657266D01*
X146812380Y-97085838D01*
%TO.C,J12*%
X132370476Y-119102380D02*
X132370476Y-119816666D01*
X132322857Y-119959523D01*
X132227619Y-120054761D01*
X132084761Y-120102380D01*
X131989523Y-120102380D01*
X133370476Y-120102380D02*
X132799047Y-120102380D01*
X133084761Y-120102380D02*
X133084761Y-119102380D01*
X132989523Y-119245238D01*
X132894285Y-119340476D01*
X132799047Y-119388095D01*
X133751428Y-119197619D02*
X133799047Y-119150000D01*
X133894285Y-119102380D01*
X134132380Y-119102380D01*
X134227619Y-119150000D01*
X134275238Y-119197619D01*
X134322857Y-119292857D01*
X134322857Y-119388095D01*
X134275238Y-119530952D01*
X133703809Y-120102380D01*
X134322857Y-120102380D01*
%TO.C,C3*%
X151714533Y-101384742D02*
X151666914Y-101432361D01*
X151524057Y-101479980D01*
X151428819Y-101479980D01*
X151285961Y-101432361D01*
X151190723Y-101337123D01*
X151143104Y-101241885D01*
X151095485Y-101051409D01*
X151095485Y-100908552D01*
X151143104Y-100718076D01*
X151190723Y-100622838D01*
X151285961Y-100527600D01*
X151428819Y-100479980D01*
X151524057Y-100479980D01*
X151666914Y-100527600D01*
X151714533Y-100575219D01*
X152047866Y-100479980D02*
X152666914Y-100479980D01*
X152333580Y-100860933D01*
X152476438Y-100860933D01*
X152571676Y-100908552D01*
X152619295Y-100956171D01*
X152666914Y-101051409D01*
X152666914Y-101289504D01*
X152619295Y-101384742D01*
X152571676Y-101432361D01*
X152476438Y-101479980D01*
X152190723Y-101479980D01*
X152095485Y-101432361D01*
X152047866Y-101384742D01*
%TO.C,Y2*%
X151816190Y-96906190D02*
X152292380Y-96906190D01*
X151292380Y-97239523D02*
X151816190Y-96906190D01*
X151292380Y-96572857D01*
X151387619Y-96287142D02*
X151340000Y-96239523D01*
X151292380Y-96144285D01*
X151292380Y-95906190D01*
X151340000Y-95810952D01*
X151387619Y-95763333D01*
X151482857Y-95715714D01*
X151578095Y-95715714D01*
X151720952Y-95763333D01*
X152292380Y-96334761D01*
X152292380Y-95715714D01*
%TO.C,U2*%
X137139695Y-74318580D02*
X137139695Y-75128104D01*
X137187314Y-75223342D01*
X137234933Y-75270961D01*
X137330171Y-75318580D01*
X137520647Y-75318580D01*
X137615885Y-75270961D01*
X137663504Y-75223342D01*
X137711123Y-75128104D01*
X137711123Y-74318580D01*
X138139695Y-74413819D02*
X138187314Y-74366200D01*
X138282552Y-74318580D01*
X138520647Y-74318580D01*
X138615885Y-74366200D01*
X138663504Y-74413819D01*
X138711123Y-74509057D01*
X138711123Y-74604295D01*
X138663504Y-74747152D01*
X138092076Y-75318580D01*
X138711123Y-75318580D01*
%TO.C,R14*%
X128237142Y-70252380D02*
X127903809Y-69776190D01*
X127665714Y-70252380D02*
X127665714Y-69252380D01*
X128046666Y-69252380D01*
X128141904Y-69300000D01*
X128189523Y-69347619D01*
X128237142Y-69442857D01*
X128237142Y-69585714D01*
X128189523Y-69680952D01*
X128141904Y-69728571D01*
X128046666Y-69776190D01*
X127665714Y-69776190D01*
X129189523Y-70252380D02*
X128618095Y-70252380D01*
X128903809Y-70252380D02*
X128903809Y-69252380D01*
X128808571Y-69395238D01*
X128713333Y-69490476D01*
X128618095Y-69538095D01*
X130046666Y-69585714D02*
X130046666Y-70252380D01*
X129808571Y-69204761D02*
X129570476Y-69919047D01*
X130189523Y-69919047D01*
%TO.C,C5*%
X146867942Y-109285066D02*
X146915561Y-109332685D01*
X146963180Y-109475542D01*
X146963180Y-109570780D01*
X146915561Y-109713638D01*
X146820323Y-109808876D01*
X146725085Y-109856495D01*
X146534609Y-109904114D01*
X146391752Y-109904114D01*
X146201276Y-109856495D01*
X146106038Y-109808876D01*
X146010800Y-109713638D01*
X145963180Y-109570780D01*
X145963180Y-109475542D01*
X146010800Y-109332685D01*
X146058419Y-109285066D01*
X145963180Y-108380304D02*
X145963180Y-108856495D01*
X146439371Y-108904114D01*
X146391752Y-108856495D01*
X146344133Y-108761257D01*
X146344133Y-108523161D01*
X146391752Y-108427923D01*
X146439371Y-108380304D01*
X146534609Y-108332685D01*
X146772704Y-108332685D01*
X146867942Y-108380304D01*
X146915561Y-108427923D01*
X146963180Y-108523161D01*
X146963180Y-108761257D01*
X146915561Y-108856495D01*
X146867942Y-108904114D01*
%TO.C,J11*%
X95960180Y-92063923D02*
X96674466Y-92063923D01*
X96817323Y-92111542D01*
X96912561Y-92206780D01*
X96960180Y-92349638D01*
X96960180Y-92444876D01*
X96960180Y-91063923D02*
X96960180Y-91635352D01*
X96960180Y-91349638D02*
X95960180Y-91349638D01*
X96103038Y-91444876D01*
X96198276Y-91540114D01*
X96245895Y-91635352D01*
X96960180Y-90111542D02*
X96960180Y-90682971D01*
X96960180Y-90397257D02*
X95960180Y-90397257D01*
X96103038Y-90492495D01*
X96198276Y-90587733D01*
X96245895Y-90682971D01*
%TO.C,R8*%
X147422380Y-67606666D02*
X146946190Y-67940000D01*
X147422380Y-68178095D02*
X146422380Y-68178095D01*
X146422380Y-67797142D01*
X146470000Y-67701904D01*
X146517619Y-67654285D01*
X146612857Y-67606666D01*
X146755714Y-67606666D01*
X146850952Y-67654285D01*
X146898571Y-67701904D01*
X146946190Y-67797142D01*
X146946190Y-68178095D01*
X146850952Y-67035238D02*
X146803333Y-67130476D01*
X146755714Y-67178095D01*
X146660476Y-67225714D01*
X146612857Y-67225714D01*
X146517619Y-67178095D01*
X146470000Y-67130476D01*
X146422380Y-67035238D01*
X146422380Y-66844761D01*
X146470000Y-66749523D01*
X146517619Y-66701904D01*
X146612857Y-66654285D01*
X146660476Y-66654285D01*
X146755714Y-66701904D01*
X146803333Y-66749523D01*
X146850952Y-66844761D01*
X146850952Y-67035238D01*
X146898571Y-67130476D01*
X146946190Y-67178095D01*
X147041428Y-67225714D01*
X147231904Y-67225714D01*
X147327142Y-67178095D01*
X147374761Y-67130476D01*
X147422380Y-67035238D01*
X147422380Y-66844761D01*
X147374761Y-66749523D01*
X147327142Y-66701904D01*
X147231904Y-66654285D01*
X147041428Y-66654285D01*
X146946190Y-66701904D01*
X146898571Y-66749523D01*
X146850952Y-66844761D01*
%TO.C,D5*%
X129731904Y-78482380D02*
X129731904Y-77482380D01*
X129970000Y-77482380D01*
X130112857Y-77530000D01*
X130208095Y-77625238D01*
X130255714Y-77720476D01*
X130303333Y-77910952D01*
X130303333Y-78053809D01*
X130255714Y-78244285D01*
X130208095Y-78339523D01*
X130112857Y-78434761D01*
X129970000Y-78482380D01*
X129731904Y-78482380D01*
X131208095Y-77482380D02*
X130731904Y-77482380D01*
X130684285Y-77958571D01*
X130731904Y-77910952D01*
X130827142Y-77863333D01*
X131065238Y-77863333D01*
X131160476Y-77910952D01*
X131208095Y-77958571D01*
X131255714Y-78053809D01*
X131255714Y-78291904D01*
X131208095Y-78387142D01*
X131160476Y-78434761D01*
X131065238Y-78482380D01*
X130827142Y-78482380D01*
X130731904Y-78434761D01*
X130684285Y-78387142D01*
%TO.C,U1*%
X134898095Y-98222380D02*
X134898095Y-99031904D01*
X134945714Y-99127142D01*
X134993333Y-99174761D01*
X135088571Y-99222380D01*
X135279047Y-99222380D01*
X135374285Y-99174761D01*
X135421904Y-99127142D01*
X135469523Y-99031904D01*
X135469523Y-98222380D01*
X136469523Y-99222380D02*
X135898095Y-99222380D01*
X136183809Y-99222380D02*
X136183809Y-98222380D01*
X136088571Y-98365238D01*
X135993333Y-98460476D01*
X135898095Y-98508095D01*
%TO.C,Q1*%
X138517561Y-66500619D02*
X138422323Y-66453000D01*
X138327085Y-66357761D01*
X138184228Y-66214904D01*
X138088990Y-66167285D01*
X137993752Y-66167285D01*
X138041371Y-66405380D02*
X137946133Y-66357761D01*
X137850895Y-66262523D01*
X137803276Y-66072047D01*
X137803276Y-65738714D01*
X137850895Y-65548238D01*
X137946133Y-65453000D01*
X138041371Y-65405380D01*
X138231847Y-65405380D01*
X138327085Y-65453000D01*
X138422323Y-65548238D01*
X138469942Y-65738714D01*
X138469942Y-66072047D01*
X138422323Y-66262523D01*
X138327085Y-66357761D01*
X138231847Y-66405380D01*
X138041371Y-66405380D01*
X139422323Y-66405380D02*
X138850895Y-66405380D01*
X139136609Y-66405380D02*
X139136609Y-65405380D01*
X139041371Y-65548238D01*
X138946133Y-65643476D01*
X138850895Y-65691095D01*
%TO.C,D1*%
X156402380Y-64218095D02*
X155402380Y-64218095D01*
X155402380Y-63980000D01*
X155450000Y-63837142D01*
X155545238Y-63741904D01*
X155640476Y-63694285D01*
X155830952Y-63646666D01*
X155973809Y-63646666D01*
X156164285Y-63694285D01*
X156259523Y-63741904D01*
X156354761Y-63837142D01*
X156402380Y-63980000D01*
X156402380Y-64218095D01*
X156402380Y-62694285D02*
X156402380Y-63265714D01*
X156402380Y-62980000D02*
X155402380Y-62980000D01*
X155545238Y-63075238D01*
X155640476Y-63170476D01*
X155688095Y-63265714D01*
%TO.C,R2*%
X183072380Y-75356666D02*
X182596190Y-75690000D01*
X183072380Y-75928095D02*
X182072380Y-75928095D01*
X182072380Y-75547142D01*
X182120000Y-75451904D01*
X182167619Y-75404285D01*
X182262857Y-75356666D01*
X182405714Y-75356666D01*
X182500952Y-75404285D01*
X182548571Y-75451904D01*
X182596190Y-75547142D01*
X182596190Y-75928095D01*
X182167619Y-74975714D02*
X182120000Y-74928095D01*
X182072380Y-74832857D01*
X182072380Y-74594761D01*
X182120000Y-74499523D01*
X182167619Y-74451904D01*
X182262857Y-74404285D01*
X182358095Y-74404285D01*
X182500952Y-74451904D01*
X183072380Y-75023333D01*
X183072380Y-74404285D01*
%TO.C,R11*%
X116297142Y-86352380D02*
X115963809Y-85876190D01*
X115725714Y-86352380D02*
X115725714Y-85352380D01*
X116106666Y-85352380D01*
X116201904Y-85400000D01*
X116249523Y-85447619D01*
X116297142Y-85542857D01*
X116297142Y-85685714D01*
X116249523Y-85780952D01*
X116201904Y-85828571D01*
X116106666Y-85876190D01*
X115725714Y-85876190D01*
X117249523Y-86352380D02*
X116678095Y-86352380D01*
X116963809Y-86352380D02*
X116963809Y-85352380D01*
X116868571Y-85495238D01*
X116773333Y-85590476D01*
X116678095Y-85638095D01*
X118201904Y-86352380D02*
X117630476Y-86352380D01*
X117916190Y-86352380D02*
X117916190Y-85352380D01*
X117820952Y-85495238D01*
X117725714Y-85590476D01*
X117630476Y-85638095D01*
%TO.C,SW2*%
X191102066Y-68189161D02*
X191244923Y-68236780D01*
X191483019Y-68236780D01*
X191578257Y-68189161D01*
X191625876Y-68141542D01*
X191673495Y-68046304D01*
X191673495Y-67951066D01*
X191625876Y-67855828D01*
X191578257Y-67808209D01*
X191483019Y-67760590D01*
X191292542Y-67712971D01*
X191197304Y-67665352D01*
X191149685Y-67617733D01*
X191102066Y-67522495D01*
X191102066Y-67427257D01*
X191149685Y-67332019D01*
X191197304Y-67284400D01*
X191292542Y-67236780D01*
X191530638Y-67236780D01*
X191673495Y-67284400D01*
X192006828Y-67236780D02*
X192244923Y-68236780D01*
X192435400Y-67522495D01*
X192625876Y-68236780D01*
X192863971Y-67236780D01*
X193197304Y-67332019D02*
X193244923Y-67284400D01*
X193340161Y-67236780D01*
X193578257Y-67236780D01*
X193673495Y-67284400D01*
X193721114Y-67332019D01*
X193768733Y-67427257D01*
X193768733Y-67522495D01*
X193721114Y-67665352D01*
X193149685Y-68236780D01*
X193768733Y-68236780D01*
%TO.C,C8*%
X112477142Y-90456666D02*
X112524761Y-90504285D01*
X112572380Y-90647142D01*
X112572380Y-90742380D01*
X112524761Y-90885238D01*
X112429523Y-90980476D01*
X112334285Y-91028095D01*
X112143809Y-91075714D01*
X112000952Y-91075714D01*
X111810476Y-91028095D01*
X111715238Y-90980476D01*
X111620000Y-90885238D01*
X111572380Y-90742380D01*
X111572380Y-90647142D01*
X111620000Y-90504285D01*
X111667619Y-90456666D01*
X112000952Y-89885238D02*
X111953333Y-89980476D01*
X111905714Y-90028095D01*
X111810476Y-90075714D01*
X111762857Y-90075714D01*
X111667619Y-90028095D01*
X111620000Y-89980476D01*
X111572380Y-89885238D01*
X111572380Y-89694761D01*
X111620000Y-89599523D01*
X111667619Y-89551904D01*
X111762857Y-89504285D01*
X111810476Y-89504285D01*
X111905714Y-89551904D01*
X111953333Y-89599523D01*
X112000952Y-89694761D01*
X112000952Y-89885238D01*
X112048571Y-89980476D01*
X112096190Y-90028095D01*
X112191428Y-90075714D01*
X112381904Y-90075714D01*
X112477142Y-90028095D01*
X112524761Y-89980476D01*
X112572380Y-89885238D01*
X112572380Y-89694761D01*
X112524761Y-89599523D01*
X112477142Y-89551904D01*
X112381904Y-89504285D01*
X112191428Y-89504285D01*
X112096190Y-89551904D01*
X112048571Y-89599523D01*
X112000952Y-89694761D01*
%TO.C,C6*%
X147407142Y-89746666D02*
X147454761Y-89794285D01*
X147502380Y-89937142D01*
X147502380Y-90032380D01*
X147454761Y-90175238D01*
X147359523Y-90270476D01*
X147264285Y-90318095D01*
X147073809Y-90365714D01*
X146930952Y-90365714D01*
X146740476Y-90318095D01*
X146645238Y-90270476D01*
X146550000Y-90175238D01*
X146502380Y-90032380D01*
X146502380Y-89937142D01*
X146550000Y-89794285D01*
X146597619Y-89746666D01*
X146502380Y-88889523D02*
X146502380Y-89080000D01*
X146550000Y-89175238D01*
X146597619Y-89222857D01*
X146740476Y-89318095D01*
X146930952Y-89365714D01*
X147311904Y-89365714D01*
X147407142Y-89318095D01*
X147454761Y-89270476D01*
X147502380Y-89175238D01*
X147502380Y-88984761D01*
X147454761Y-88889523D01*
X147407142Y-88841904D01*
X147311904Y-88794285D01*
X147073809Y-88794285D01*
X146978571Y-88841904D01*
X146930952Y-88889523D01*
X146883333Y-88984761D01*
X146883333Y-89175238D01*
X146930952Y-89270476D01*
X146978571Y-89318095D01*
X147073809Y-89365714D01*
%TO.C,SW1*%
X197364761Y-86803333D02*
X197412380Y-86660476D01*
X197412380Y-86422380D01*
X197364761Y-86327142D01*
X197317142Y-86279523D01*
X197221904Y-86231904D01*
X197126666Y-86231904D01*
X197031428Y-86279523D01*
X196983809Y-86327142D01*
X196936190Y-86422380D01*
X196888571Y-86612857D01*
X196840952Y-86708095D01*
X196793333Y-86755714D01*
X196698095Y-86803333D01*
X196602857Y-86803333D01*
X196507619Y-86755714D01*
X196460000Y-86708095D01*
X196412380Y-86612857D01*
X196412380Y-86374761D01*
X196460000Y-86231904D01*
X196412380Y-85898571D02*
X197412380Y-85660476D01*
X196698095Y-85470000D01*
X197412380Y-85279523D01*
X196412380Y-85041428D01*
X197412380Y-84136666D02*
X197412380Y-84708095D01*
X197412380Y-84422380D02*
X196412380Y-84422380D01*
X196555238Y-84517619D01*
X196650476Y-84612857D01*
X196698095Y-84708095D01*
%TO.C,U4*%
X115062095Y-66224780D02*
X115062095Y-67034304D01*
X115109714Y-67129542D01*
X115157333Y-67177161D01*
X115252571Y-67224780D01*
X115443047Y-67224780D01*
X115538285Y-67177161D01*
X115585904Y-67129542D01*
X115633523Y-67034304D01*
X115633523Y-66224780D01*
X116538285Y-66558114D02*
X116538285Y-67224780D01*
X116300190Y-66177161D02*
X116062095Y-66891447D01*
X116681142Y-66891447D01*
%TO.C,J16*%
X194420476Y-93722380D02*
X194420476Y-94436666D01*
X194372857Y-94579523D01*
X194277619Y-94674761D01*
X194134761Y-94722380D01*
X194039523Y-94722380D01*
X195420476Y-94722380D02*
X194849047Y-94722380D01*
X195134761Y-94722380D02*
X195134761Y-93722380D01*
X195039523Y-93865238D01*
X194944285Y-93960476D01*
X194849047Y-94008095D01*
X196277619Y-93722380D02*
X196087142Y-93722380D01*
X195991904Y-93770000D01*
X195944285Y-93817619D01*
X195849047Y-93960476D01*
X195801428Y-94150952D01*
X195801428Y-94531904D01*
X195849047Y-94627142D01*
X195896666Y-94674761D01*
X195991904Y-94722380D01*
X196182380Y-94722380D01*
X196277619Y-94674761D01*
X196325238Y-94627142D01*
X196372857Y-94531904D01*
X196372857Y-94293809D01*
X196325238Y-94198571D01*
X196277619Y-94150952D01*
X196182380Y-94103333D01*
X195991904Y-94103333D01*
X195896666Y-94150952D01*
X195849047Y-94198571D01*
X195801428Y-94293809D01*
%TO.C,J4*%
X148654466Y-119162580D02*
X148654466Y-119876866D01*
X148606847Y-120019723D01*
X148511609Y-120114961D01*
X148368752Y-120162580D01*
X148273514Y-120162580D01*
X149559228Y-119495914D02*
X149559228Y-120162580D01*
X149321133Y-119114961D02*
X149083038Y-119829247D01*
X149702085Y-119829247D01*
%TO.C,J5*%
X145991780Y-73307533D02*
X146706066Y-73307533D01*
X146848923Y-73355152D01*
X146944161Y-73450390D01*
X146991780Y-73593247D01*
X146991780Y-73688485D01*
X145991780Y-72355152D02*
X145991780Y-72831342D01*
X146467971Y-72878961D01*
X146420352Y-72831342D01*
X146372733Y-72736104D01*
X146372733Y-72498009D01*
X146420352Y-72402771D01*
X146467971Y-72355152D01*
X146563209Y-72307533D01*
X146801304Y-72307533D01*
X146896542Y-72355152D01*
X146944161Y-72402771D01*
X146991780Y-72498009D01*
X146991780Y-72736104D01*
X146944161Y-72831342D01*
X146896542Y-72878961D01*
D12*
%TO.C,C10*%
X147890700Y-95320435D02*
X147890700Y-95088765D01*
X147170700Y-95320435D02*
X147170700Y-95088765D01*
%TO.C,C12*%
X118845000Y-77179448D02*
X118845000Y-77701952D01*
X117375000Y-77179448D02*
X117375000Y-77701952D01*
%TO.C,R3*%
X154798700Y-67209936D02*
X154798700Y-67664064D01*
X153328700Y-67209936D02*
X153328700Y-67664064D01*
%TO.C,Y1*%
X149482400Y-88105000D02*
X149482400Y-93855000D01*
X149482400Y-93855000D02*
X153082400Y-93855000D01*
X153082400Y-93855000D02*
X153082400Y-88105000D01*
%TO.C,J8*%
X164811400Y-103489600D02*
X164811400Y-102159600D01*
X164811400Y-104759600D02*
X164811400Y-112439600D01*
X167411400Y-104759600D02*
X167411400Y-102159600D01*
X167411400Y-102159600D02*
X170011400Y-102159600D01*
X164811400Y-102159600D02*
X166141400Y-102159600D01*
X164811400Y-112439600D02*
X170011400Y-112439600D01*
X164811400Y-104759600D02*
X167411400Y-104759600D01*
X170011400Y-102159600D02*
X170011400Y-112439600D01*
%TO.C,J1*%
X159991600Y-60854500D02*
X180571600Y-60854500D01*
X179271600Y-68664500D02*
X161291600Y-68664500D01*
X161291600Y-68664500D02*
X161291600Y-62164500D01*
X161291600Y-62164500D02*
X168231600Y-62164500D01*
X172331600Y-60854500D02*
X172331600Y-62164500D01*
X168231600Y-62164500D02*
X168231600Y-60854500D01*
X180571600Y-69974500D02*
X159991600Y-69974500D01*
X159991600Y-69974500D02*
X159991600Y-60854500D01*
X180571600Y-60854500D02*
X180571600Y-69974500D01*
X175861600Y-59464500D02*
X174861600Y-59464500D01*
X168231600Y-62164500D02*
X168231600Y-62164500D01*
X175361600Y-60464500D02*
X175861600Y-59464500D01*
X172331600Y-62164500D02*
X179271600Y-62164500D01*
X179271600Y-62164500D02*
X179271600Y-68664500D01*
X174861600Y-59464500D02*
X175361600Y-60464500D01*
%TO.C,C17*%
X126393800Y-81653748D02*
X126393800Y-82176252D01*
X124923800Y-81653748D02*
X124923800Y-82176252D01*
%TO.C,C2*%
X131687835Y-82774200D02*
X131456165Y-82774200D01*
X131687835Y-83494200D02*
X131456165Y-83494200D01*
%TO.C,R9*%
X114366021Y-92861400D02*
X114030779Y-92861400D01*
X114366021Y-92101400D02*
X114030779Y-92101400D01*
%TO.C,D2*%
X152394800Y-61614600D02*
X150474800Y-61614600D01*
X150474800Y-61614600D02*
X150474800Y-64474600D01*
X152394800Y-64474600D02*
X152394800Y-61614600D01*
%TO.C,C1*%
X185144000Y-70477748D02*
X185144000Y-71000252D01*
X183674000Y-70477748D02*
X183674000Y-71000252D01*
%TO.C,R5*%
X144095800Y-104014536D02*
X144095800Y-104468664D01*
X145565800Y-104014536D02*
X145565800Y-104468664D01*
%TO.C,R7*%
X114366021Y-94325480D02*
X114030779Y-94325480D01*
X114366021Y-95085480D02*
X114030779Y-95085480D01*
%TO.C,R1*%
X184089736Y-86256800D02*
X184543864Y-86256800D01*
X184089736Y-84786800D02*
X184543864Y-84786800D01*
%TO.C,C20*%
X110290200Y-69737248D02*
X110290200Y-70259752D01*
X108820200Y-69737248D02*
X108820200Y-70259752D01*
%TO.C,C22*%
X111890352Y-75693600D02*
X111367848Y-75693600D01*
X111890352Y-77163600D02*
X111367848Y-77163600D01*
%TO.C,C15*%
X126388800Y-77179448D02*
X126388800Y-77701952D01*
X124918800Y-77179448D02*
X124918800Y-77701952D01*
%TO.C,C18*%
X111890352Y-80110000D02*
X111367848Y-80110000D01*
X111890352Y-78640000D02*
X111367848Y-78640000D01*
%TO.C,R10*%
X114366021Y-87673240D02*
X114030779Y-87673240D01*
X114366021Y-88433240D02*
X114030779Y-88433240D01*
%TO.C,C16*%
X121364600Y-81653748D02*
X121364600Y-82176252D01*
X119894600Y-81653748D02*
X119894600Y-82176252D01*
%TO.C,C11*%
X116330400Y-77179448D02*
X116330400Y-77701952D01*
X114860400Y-77179448D02*
X114860400Y-77701952D01*
%TO.C,J9*%
X159962600Y-83649400D02*
X159962600Y-81049400D01*
X157362600Y-81049400D02*
X158692600Y-81049400D01*
X157362600Y-82379400D02*
X157362600Y-81049400D01*
X157362600Y-83649400D02*
X157362600Y-101489400D01*
X157362600Y-101489400D02*
X162562600Y-101489400D01*
X162562600Y-81049400D02*
X162562600Y-101489400D01*
X157362600Y-83649400D02*
X159962600Y-83649400D01*
X159962600Y-81049400D02*
X162562600Y-81049400D01*
%TO.C,FB1*%
X115040400Y-82325242D02*
X115040400Y-81504758D01*
X116160400Y-82325242D02*
X116160400Y-81504758D01*
%TO.C,C14*%
X122404200Y-77179448D02*
X122404200Y-77701952D01*
X123874200Y-77179448D02*
X123874200Y-77701952D01*
%TO.C,R4*%
X150674400Y-67209936D02*
X150674400Y-67664064D01*
X152144400Y-67209936D02*
X152144400Y-67664064D01*
%TO.C,R12*%
X143265000Y-70627064D02*
X143265000Y-70172936D01*
X144735000Y-70627064D02*
X144735000Y-70172936D01*
%TO.C,R6*%
X146161821Y-93267800D02*
X145826579Y-93267800D01*
X146161821Y-92507800D02*
X145826579Y-92507800D01*
%TO.C,D4*%
X149804000Y-61614600D02*
X147884000Y-61614600D01*
X147884000Y-61614600D02*
X147884000Y-64474600D01*
X149804000Y-64474600D02*
X149804000Y-61614600D01*
%TO.C,C4*%
X147976000Y-92063835D02*
X147976000Y-91832165D01*
X148696000Y-92063835D02*
X148696000Y-91832165D01*
%TO.C,D3*%
X143130800Y-104722000D02*
X140190800Y-104722000D01*
X143130800Y-105622000D02*
X140190800Y-105622000D01*
X143130800Y-110162000D02*
X143130800Y-104722000D01*
X140190800Y-104722000D02*
X140190800Y-110162000D01*
X141660800Y-103702000D02*
X141660800Y-104722000D01*
X143130800Y-105502000D02*
X140190800Y-105502000D01*
X140190800Y-110162000D02*
X143130800Y-110162000D01*
X143130800Y-105742000D02*
X140190800Y-105742000D01*
X141660800Y-111182000D02*
X141660800Y-110162000D01*
%TO.C,R13*%
X133413664Y-70791400D02*
X132959536Y-70791400D01*
X133413664Y-72261400D02*
X132959536Y-72261400D01*
%TO.C,J10*%
X127762000Y-108799400D02*
X102302000Y-108799400D01*
X127762000Y-108799400D02*
X127762000Y-111399400D01*
X129032000Y-108799400D02*
X130362000Y-108799400D01*
X130362000Y-108799400D02*
X130362000Y-110129400D01*
X102302000Y-108799400D02*
X102302000Y-113999400D01*
X130362000Y-111399400D02*
X130362000Y-113999400D01*
X130362000Y-113999400D02*
X102302000Y-113999400D01*
X127762000Y-111399400D02*
X130362000Y-111399400D01*
%TO.C,C9*%
X114082565Y-96559560D02*
X114314235Y-96559560D01*
X114082565Y-97279560D02*
X114314235Y-97279560D01*
%TO.C,U3*%
X189562600Y-99189600D02*
X189562600Y-99589600D01*
X173362600Y-115389600D02*
X189562600Y-115389600D01*
X189562600Y-115389600D02*
X189562600Y-114989600D01*
X173362600Y-114989600D02*
X173362600Y-115389600D01*
X173362600Y-99189600D02*
X189562600Y-99189600D01*
X173362600Y-99189600D02*
X173362600Y-99539600D01*
X173362600Y-99539600D02*
X172462600Y-99539600D01*
%TO.C,J6*%
X196577000Y-112800000D02*
X196577000Y-113600000D01*
X193577000Y-115800000D02*
X193577000Y-115000000D01*
X193577000Y-113000000D02*
X193777000Y-112800000D01*
X196377000Y-112800000D02*
X196577000Y-112800000D01*
X193577000Y-113600000D02*
X193077000Y-113600000D01*
X193777000Y-115800000D02*
X193577000Y-115800000D01*
X193577000Y-115000000D02*
X193077000Y-115000000D01*
X196577000Y-115800000D02*
X196377000Y-115800000D01*
X193577000Y-113600000D02*
X193577000Y-113000000D01*
X196577000Y-115000000D02*
X196577000Y-115800000D01*
%TO.C,J14*%
X95458800Y-66885600D02*
X95458800Y-67285600D01*
X96158800Y-67125600D02*
X96158800Y-74245600D01*
X95698800Y-67125600D02*
X95698800Y-74245600D01*
X103418800Y-67125600D02*
X95698800Y-67125600D01*
X99317800Y-71290600D02*
X99189800Y-71161600D01*
X103418800Y-67125600D02*
X103418800Y-74245600D01*
X101327800Y-73710600D02*
X101199800Y-73581600D01*
X99077800Y-71460600D02*
X98984800Y-71366600D01*
X96098800Y-66885600D02*
X95458800Y-66885600D01*
X101533800Y-73505600D02*
X101439800Y-73411600D01*
X103418800Y-74245600D02*
X95698800Y-74245600D01*
X97258800Y-67125600D02*
X97258800Y-74245600D01*
X101124800Y-67495599D02*
G75*
G03*
X99368906Y-67510242I-866000J-1439999D01*
G01*
X98818800Y-68069600D02*
G75*
G03*
X98578701Y-68964274I1440014J-866003D01*
G01*
X101698801Y-69801600D02*
G75*
G03*
X101684158Y-68045706I-1439999J866000D01*
G01*
X99367800Y-70360600D02*
G75*
G03*
X101148993Y-70361104I891000J1425003D01*
G01*
X98578800Y-68935600D02*
G75*
G03*
X98834079Y-69825864I1679990J-3D01*
G01*
X101938800Y-72435600D02*
G75*
G03*
X101938800Y-72435600I-1680000J0D01*
G01*
%TO.C,J17*%
X126568400Y-65839000D02*
X126697400Y-65711000D01*
X123273400Y-66045000D02*
X123367400Y-65951000D01*
X133393400Y-59970000D02*
X132993400Y-59970000D01*
X123068400Y-65839000D02*
X123197400Y-65711000D01*
X125488400Y-63829000D02*
X125617400Y-63701000D01*
X133153400Y-67930000D02*
X133153400Y-60210000D01*
X133153400Y-60210000D02*
X122533400Y-60210000D01*
X133153400Y-61770000D02*
X122533400Y-61770000D01*
X122533400Y-67930000D02*
X122533400Y-60210000D01*
X133393400Y-60610000D02*
X133393400Y-59970000D01*
X126773400Y-66045000D02*
X126867400Y-65951000D01*
X133153400Y-60670000D02*
X122533400Y-60670000D01*
X125318400Y-63589000D02*
X125412400Y-63496000D01*
X128818400Y-63589000D02*
X128912400Y-63496000D01*
X128988400Y-63829000D02*
X129117400Y-63701000D01*
X133153400Y-67930000D02*
X122533400Y-67930000D01*
X131343400Y-63090000D02*
G75*
G03*
X130453136Y-63345279I-3J-1679990D01*
G01*
X130477400Y-66210001D02*
G75*
G03*
X132233294Y-66195358I866000J1439999D01*
G01*
X132209400Y-63330000D02*
G75*
G03*
X131314726Y-63089901I-866003J-1440014D01*
G01*
X132783401Y-65636000D02*
G75*
G03*
X132768758Y-63880106I-1439999J866000D01*
G01*
X129918400Y-63879000D02*
G75*
G03*
X129917896Y-65660193I1425003J-891000D01*
G01*
X129523400Y-64770000D02*
G75*
G03*
X129523400Y-64770000I-1680000J0D01*
G01*
X126023400Y-64770000D02*
G75*
G03*
X126023400Y-64770000I-1680000J0D01*
G01*
%TO.C,C13*%
X119889600Y-77179448D02*
X119889600Y-77701952D01*
X121359600Y-77179448D02*
X121359600Y-77701952D01*
%TO.C,J3*%
X102352800Y-119710200D02*
X102352800Y-117110200D01*
X104952800Y-122310200D02*
X115172800Y-122310200D01*
X115172800Y-122310200D02*
X115172800Y-117110200D01*
X103682800Y-122310200D02*
X102352800Y-122310200D01*
X104952800Y-119710200D02*
X102352800Y-119710200D01*
X104952800Y-122310200D02*
X104952800Y-119710200D01*
X102352800Y-122310200D02*
X102352800Y-120980200D01*
X102352800Y-117110200D02*
X115172800Y-117110200D01*
%TO.C,J13*%
X108199800Y-63407600D02*
X108199800Y-62077600D01*
X118479800Y-63407600D02*
X118479800Y-60747600D01*
X110799800Y-63407600D02*
X110799800Y-60747600D01*
X110799800Y-60747600D02*
X118479800Y-60747600D01*
X110799800Y-63407600D02*
X118479800Y-63407600D01*
X109529800Y-63407600D02*
X108199800Y-63407600D01*
%TO.C,C19*%
X105823000Y-69711848D02*
X105823000Y-70234352D01*
X107293000Y-69711848D02*
X107293000Y-70234352D01*
%TO.C,J2*%
X121261133Y-122310200D02*
X119931133Y-122310200D01*
X122531133Y-119710200D02*
X119931133Y-119710200D01*
X119931133Y-119710200D02*
X119931133Y-117110200D01*
X130211133Y-122310200D02*
X130211133Y-117110200D01*
X122531133Y-122310200D02*
X122531133Y-119710200D01*
X119931133Y-122310200D02*
X119931133Y-120980200D01*
X122531133Y-122310200D02*
X130211133Y-122310200D01*
X119931133Y-117110200D02*
X130211133Y-117110200D01*
%TO.C,C7*%
X147890700Y-97374765D02*
X147890700Y-97606435D01*
X147170700Y-97374765D02*
X147170700Y-97606435D01*
%TO.C,J12*%
X137559466Y-122310200D02*
X145239466Y-122310200D01*
X137559466Y-122310200D02*
X137559466Y-119710200D01*
X134959466Y-122310200D02*
X134959466Y-120980200D01*
X137559466Y-119710200D02*
X134959466Y-119710200D01*
X134959466Y-117110200D02*
X145239466Y-117110200D01*
X136289466Y-122310200D02*
X134959466Y-122310200D01*
X145239466Y-122310200D02*
X145239466Y-117110200D01*
X134959466Y-119710200D02*
X134959466Y-117110200D01*
%TO.C,C3*%
X149087200Y-100181600D02*
X149087200Y-102381600D01*
X147987200Y-101281600D02*
X150187200Y-101281600D01*
%TO.C,Y2*%
X148967100Y-95774200D02*
X148967100Y-97124200D01*
X150717100Y-95774200D02*
X150717100Y-97124200D01*
%TO.C,U2*%
X137901600Y-70906200D02*
X137101600Y-70906200D01*
X137901600Y-70906200D02*
X138701600Y-70906200D01*
X137901600Y-74026200D02*
X139701600Y-74026200D01*
X137901600Y-74026200D02*
X137101600Y-74026200D01*
%TO.C,R14*%
X129111664Y-72261400D02*
X128657536Y-72261400D01*
X129111664Y-70791400D02*
X128657536Y-70791400D01*
%TO.C,C5*%
X144095800Y-108857148D02*
X144095800Y-109379652D01*
X145565800Y-108857148D02*
X145565800Y-109379652D01*
%TO.C,J11*%
X109507800Y-85144400D02*
X99687800Y-85144400D01*
X108787800Y-97324400D02*
X109507800Y-97324400D01*
X105087800Y-97324400D02*
X107387800Y-97324400D01*
X109507800Y-92344400D02*
X109507800Y-88674400D01*
X97867800Y-95844400D02*
X97867800Y-94984400D01*
X109507800Y-97324400D02*
X109507800Y-94644400D01*
X109507800Y-86374400D02*
X109507800Y-85144400D01*
X99237800Y-97324400D02*
X103687800Y-97324400D01*
%TO.C,R8*%
X148020100Y-67209936D02*
X148020100Y-67664064D01*
X149490100Y-67209936D02*
X149490100Y-67664064D01*
%TO.C,D5*%
X131430200Y-75260200D02*
X131430200Y-75910200D01*
X128310200Y-75260200D02*
X128310200Y-76935200D01*
X131430200Y-75260200D02*
X131430200Y-74610200D01*
X128310200Y-75260200D02*
X128310200Y-74610200D01*
%TO.C,U1*%
X130531000Y-86144400D02*
X130531000Y-87094400D01*
X140751000Y-96364400D02*
X140751000Y-95414400D01*
X131481000Y-86144400D02*
X130531000Y-86144400D01*
X140751000Y-86144400D02*
X140751000Y-87094400D01*
X140751000Y-95414400D02*
X142091000Y-95414400D01*
X139801000Y-86144400D02*
X140751000Y-86144400D01*
X130531000Y-96364400D02*
X130531000Y-95414400D01*
X131481000Y-96364400D02*
X130531000Y-96364400D01*
X139801000Y-96364400D02*
X140751000Y-96364400D01*
%TO.C,Q1*%
X139372800Y-66873000D02*
X136212800Y-66873000D01*
X139372800Y-70033000D02*
X137912800Y-70033000D01*
X139372800Y-70033000D02*
X139372800Y-69103000D01*
X139372800Y-66873000D02*
X139372800Y-67803000D01*
%TO.C,D1*%
X153065600Y-61614600D02*
X153065600Y-64474600D01*
X154985600Y-64474600D02*
X154985600Y-61614600D01*
X154985600Y-61614600D02*
X153065600Y-61614600D01*
%TO.C,R2*%
X185144000Y-75512664D02*
X185144000Y-75058536D01*
X183674000Y-75512664D02*
X183674000Y-75058536D01*
%TO.C,R11*%
X114366021Y-86209160D02*
X114030779Y-86209160D01*
X114366021Y-85449160D02*
X114030779Y-85449160D01*
%TO.C,SW2*%
X194685400Y-68784400D02*
X190185400Y-68784400D01*
X190185400Y-75284400D02*
X194685400Y-75284400D01*
X188935400Y-71284400D02*
X188935400Y-72784400D01*
X195935400Y-72784400D02*
X195935400Y-71284400D01*
%TO.C,C8*%
X114082565Y-89907320D02*
X114314235Y-89907320D01*
X114082565Y-90627320D02*
X114314235Y-90627320D01*
%TO.C,C6*%
X148716400Y-89478665D02*
X148716400Y-89710335D01*
X147996400Y-89478665D02*
X147996400Y-89710335D01*
%TO.C,SW1*%
X189111600Y-92021800D02*
X195911600Y-92021800D01*
X195911600Y-92021800D02*
X195911600Y-79021800D01*
X195911600Y-79021800D02*
X189111600Y-79021800D01*
X189111600Y-79021800D02*
X189111600Y-92021800D01*
%TO.C,U4*%
X111724000Y-67862400D02*
X117734000Y-67862400D01*
X113974000Y-74682400D02*
X117734000Y-74682400D01*
X117734000Y-67862400D02*
X117734000Y-69122400D01*
X117734000Y-74682400D02*
X117734000Y-73422400D01*
%TO.C,J16*%
X196661000Y-109397800D02*
X196661000Y-110727800D01*
X196661000Y-110727800D02*
X195331000Y-110727800D01*
X194001000Y-108127800D02*
X194001000Y-95367800D01*
X196661000Y-95367800D02*
X194001000Y-95367800D01*
X196661000Y-108127800D02*
X196661000Y-95367800D01*
X196661000Y-108127800D02*
X194001000Y-108127800D01*
%TO.C,J4*%
X149987800Y-117110200D02*
X170427800Y-117110200D01*
X152587800Y-119710200D02*
X149987800Y-119710200D01*
X152587800Y-122310200D02*
X152587800Y-119710200D01*
X152587800Y-122310200D02*
X170427800Y-122310200D01*
X170427800Y-122310200D02*
X170427800Y-117110200D01*
X149987800Y-122310200D02*
X149987800Y-120980200D01*
X149987800Y-119710200D02*
X149987800Y-117110200D01*
X151317800Y-122310200D02*
X149987800Y-122310200D01*
%TO.C,J5*%
X147539400Y-75574200D02*
X147539400Y-74244200D01*
X150139400Y-75574200D02*
X155279400Y-75574200D01*
X155279400Y-75574200D02*
X155279400Y-70374200D01*
X147539400Y-72974200D02*
X147539400Y-70374200D01*
X150139400Y-75574200D02*
X150139400Y-72974200D01*
X148869400Y-75574200D02*
X147539400Y-75574200D01*
X150139400Y-72974200D02*
X147539400Y-72974200D01*
X147539400Y-70374200D02*
X155279400Y-70374200D01*
%TD*%
%LPC*%
D13*
%TO.C,C10*%
X147530700Y-95772100D03*
X147530700Y-94637100D03*
%TD*%
D14*
%TO.C,C12*%
X118110000Y-76403200D03*
X118110000Y-78478200D03*
%TD*%
D15*
%TO.C,R3*%
X154063700Y-66437000D03*
X154063700Y-68437000D03*
%TD*%
D16*
%TO.C,Y1*%
X151282400Y-92655000D03*
X151282400Y-88955000D03*
%TD*%
D17*
%TO.C,J8*%
X166141400Y-103489600D03*
D18*
X168681400Y-103489600D03*
X166141400Y-106029600D03*
X168681400Y-106029600D03*
X166141400Y-108569600D03*
X168681400Y-108569600D03*
X166141400Y-111109600D03*
X168681400Y-111109600D03*
%TD*%
D19*
%TO.C,J1*%
X175361600Y-64144500D03*
D20*
X175361600Y-66684500D03*
X172821600Y-64144500D03*
X172821600Y-66684500D03*
X170281600Y-64144500D03*
X170281600Y-66684500D03*
X167741600Y-64144500D03*
X167741600Y-66684500D03*
X165201600Y-64144500D03*
X165201600Y-66684500D03*
%TD*%
D14*
%TO.C,C17*%
X125658800Y-80877500D03*
X125658800Y-82952500D03*
%TD*%
D21*
%TO.C,C2*%
X132139500Y-83134200D03*
X131004500Y-83134200D03*
%TD*%
D22*
%TO.C,R9*%
X114795900Y-92481400D03*
X113600900Y-92481400D03*
%TD*%
D23*
%TO.C,D2*%
X151434800Y-62449600D03*
X151434800Y-64499600D03*
%TD*%
D24*
%TO.C,C1*%
X184409000Y-69789000D03*
X184409000Y-71689000D03*
%TD*%
D15*
%TO.C,R5*%
X144830800Y-103241600D03*
X144830800Y-105241600D03*
%TD*%
D22*
%TO.C,R7*%
X114795900Y-94705480D03*
X113600900Y-94705480D03*
%TD*%
D25*
%TO.C,REF\u002A\u002A*%
X195107000Y-61974400D03*
%TD*%
D26*
%TO.C,R1*%
X183316800Y-85521800D03*
X185316800Y-85521800D03*
%TD*%
D14*
%TO.C,C20*%
X109555200Y-68961000D03*
X109555200Y-71036000D03*
%TD*%
D27*
%TO.C,C22*%
X112666600Y-76428600D03*
X110591600Y-76428600D03*
%TD*%
D14*
%TO.C,C15*%
X125653800Y-76403200D03*
X125653800Y-78478200D03*
%TD*%
D25*
%TO.C,REF\u002A\u002A*%
X195102400Y-120573800D03*
%TD*%
D27*
%TO.C,C18*%
X112666600Y-79375000D03*
X110591600Y-79375000D03*
%TD*%
D22*
%TO.C,R10*%
X114795900Y-88053240D03*
X113600900Y-88053240D03*
%TD*%
D14*
%TO.C,C16*%
X120629600Y-80877500D03*
X120629600Y-82952500D03*
%TD*%
%TO.C,C11*%
X115595400Y-76403200D03*
X115595400Y-78478200D03*
%TD*%
D17*
%TO.C,J9*%
X158692600Y-82379400D03*
D18*
X161232600Y-82379400D03*
X158692600Y-84919400D03*
X161232600Y-84919400D03*
X158692600Y-87459400D03*
X161232600Y-87459400D03*
X158692600Y-89999400D03*
X161232600Y-89999400D03*
X158692600Y-92539400D03*
X161232600Y-92539400D03*
X158692600Y-95079400D03*
X161232600Y-95079400D03*
X158692600Y-97619400D03*
X161232600Y-97619400D03*
X158692600Y-100159400D03*
X161232600Y-100159400D03*
%TD*%
D28*
%TO.C,FB1*%
X115600400Y-83065000D03*
X115600400Y-80765000D03*
%TD*%
D14*
%TO.C,C14*%
X123139200Y-76403200D03*
X123139200Y-78478200D03*
%TD*%
D15*
%TO.C,R4*%
X151409400Y-66437000D03*
X151409400Y-68437000D03*
%TD*%
D29*
%TO.C,R12*%
X144000000Y-71400000D03*
X144000000Y-69400000D03*
%TD*%
D22*
%TO.C,R6*%
X146591700Y-92887800D03*
X145396700Y-92887800D03*
%TD*%
D23*
%TO.C,D4*%
X148844000Y-62449600D03*
X148844000Y-64499600D03*
%TD*%
D13*
%TO.C,C4*%
X148336000Y-92515500D03*
X148336000Y-91380500D03*
%TD*%
D30*
%TO.C,D3*%
X141660800Y-102362000D03*
D31*
X141660800Y-112522000D03*
%TD*%
D32*
%TO.C,R13*%
X134186600Y-71526400D03*
X132186600Y-71526400D03*
%TD*%
D17*
%TO.C,J10*%
X129032000Y-110129400D03*
D18*
X129032000Y-112669400D03*
X126492000Y-110129400D03*
X126492000Y-112669400D03*
X123952000Y-110129400D03*
X123952000Y-112669400D03*
X121412000Y-110129400D03*
X121412000Y-112669400D03*
X118872000Y-110129400D03*
X118872000Y-112669400D03*
X116332000Y-110129400D03*
X116332000Y-112669400D03*
X113792000Y-110129400D03*
X113792000Y-112669400D03*
X111252000Y-110129400D03*
X111252000Y-112669400D03*
X108712000Y-110129400D03*
X108712000Y-112669400D03*
X106172000Y-110129400D03*
X106172000Y-112669400D03*
X103632000Y-110129400D03*
X103632000Y-112669400D03*
%TD*%
D33*
%TO.C,C9*%
X113630900Y-96919560D03*
X114765900Y-96919560D03*
%TD*%
D34*
%TO.C,U3*%
X173462600Y-100289600D03*
X173462600Y-102289600D03*
X173462600Y-104289600D03*
X173462600Y-106289600D03*
X173462600Y-108289600D03*
X173462600Y-110289600D03*
X173462600Y-112289600D03*
X173462600Y-114289600D03*
X189462600Y-114289600D03*
X189462600Y-112289600D03*
X189462600Y-110289600D03*
X189462600Y-108289600D03*
X189462600Y-106289600D03*
X189462600Y-104289600D03*
X189462600Y-102289600D03*
X189462600Y-100289600D03*
%TD*%
D35*
%TO.C,J6*%
X193577000Y-114300000D03*
D36*
X195077000Y-115775000D03*
D35*
X196577000Y-114300000D03*
D36*
X195077000Y-112825000D03*
%TD*%
D37*
%TO.C,J14*%
X100258800Y-68935600D03*
D38*
X100258800Y-72435600D03*
%TD*%
D37*
%TO.C,J17*%
X131343400Y-64770000D03*
D38*
X127843400Y-64770000D03*
X124343400Y-64770000D03*
%TD*%
D14*
%TO.C,C13*%
X120624600Y-76403200D03*
X120624600Y-78478200D03*
%TD*%
D17*
%TO.C,J3*%
X103682800Y-120980200D03*
D18*
X103682800Y-118440200D03*
X106222800Y-120980200D03*
X106222800Y-118440200D03*
X108762800Y-120980200D03*
X108762800Y-118440200D03*
X111302800Y-120980200D03*
X111302800Y-118440200D03*
X113842800Y-120980200D03*
X113842800Y-118440200D03*
%TD*%
D17*
%TO.C,J13*%
X109529800Y-62077600D03*
D18*
X112069800Y-62077600D03*
X114609800Y-62077600D03*
X117149800Y-62077600D03*
%TD*%
D25*
%TO.C,REF\u002A\u002A*%
X96499600Y-61950600D03*
%TD*%
D14*
%TO.C,C19*%
X106558000Y-68935600D03*
X106558000Y-71010600D03*
%TD*%
D17*
%TO.C,J2*%
X121261133Y-120980200D03*
D18*
X121261133Y-118440200D03*
X123801133Y-120980200D03*
X123801133Y-118440200D03*
X126341133Y-120980200D03*
X126341133Y-118440200D03*
X128881133Y-120980200D03*
X128881133Y-118440200D03*
%TD*%
D39*
%TO.C,C7*%
X147530700Y-96923100D03*
X147530700Y-98058100D03*
%TD*%
D17*
%TO.C,J12*%
X136289466Y-120980200D03*
D18*
X136289466Y-118440200D03*
X138829466Y-120980200D03*
X138829466Y-118440200D03*
X141369466Y-120980200D03*
X141369466Y-118440200D03*
X143909466Y-120980200D03*
X143909466Y-118440200D03*
%TD*%
D40*
%TO.C,C3*%
X149087200Y-104837600D03*
D41*
X154087200Y-104837600D03*
%TD*%
D42*
%TO.C,Y2*%
X149842100Y-97699200D03*
X149842100Y-95199200D03*
%TD*%
D43*
%TO.C,U2*%
X139039100Y-73416200D03*
X139039100Y-72466200D03*
X139039100Y-71516200D03*
X136764100Y-71516200D03*
X136764100Y-73416200D03*
%TD*%
D32*
%TO.C,R14*%
X129884600Y-71526400D03*
X127884600Y-71526400D03*
%TD*%
D14*
%TO.C,C5*%
X144830800Y-108080900D03*
X144830800Y-110155900D03*
%TD*%
D44*
%TO.C,J11*%
X98237800Y-94359400D03*
X98237800Y-93259400D03*
X98237800Y-92159400D03*
X98237800Y-91059400D03*
X98237800Y-89959400D03*
X98237800Y-88859400D03*
X98237800Y-87759400D03*
D45*
X98237800Y-86709400D03*
D46*
X104387800Y-96994400D03*
X108087800Y-96994400D03*
D47*
X109062800Y-87524400D03*
D48*
X98587800Y-85499400D03*
D49*
X98362800Y-96819400D03*
D47*
X109062800Y-93494400D03*
%TD*%
D15*
%TO.C,R8*%
X148755100Y-66437000D03*
X148755100Y-68437000D03*
%TD*%
D50*
%TO.C,D5*%
X128920200Y-76197700D03*
X130820200Y-76197700D03*
X129870200Y-74322700D03*
%TD*%
D51*
%TO.C,U1*%
X141316000Y-95004400D03*
X141316000Y-94504400D03*
X141316000Y-94004400D03*
X141316000Y-93504400D03*
X141316000Y-93004400D03*
X141316000Y-92504400D03*
X141316000Y-92004400D03*
X141316000Y-91504400D03*
X141316000Y-91004400D03*
X141316000Y-90504400D03*
X141316000Y-90004400D03*
X141316000Y-89504400D03*
X141316000Y-89004400D03*
X141316000Y-88504400D03*
X141316000Y-88004400D03*
X141316000Y-87504400D03*
D52*
X139391000Y-85579400D03*
X138891000Y-85579400D03*
X138391000Y-85579400D03*
X137891000Y-85579400D03*
X137391000Y-85579400D03*
X136891000Y-85579400D03*
X136391000Y-85579400D03*
X135891000Y-85579400D03*
X135391000Y-85579400D03*
X134891000Y-85579400D03*
X134391000Y-85579400D03*
X133891000Y-85579400D03*
X133391000Y-85579400D03*
X132891000Y-85579400D03*
X132391000Y-85579400D03*
X131891000Y-85579400D03*
D51*
X129966000Y-87504400D03*
X129966000Y-88004400D03*
X129966000Y-88504400D03*
X129966000Y-89004400D03*
X129966000Y-89504400D03*
X129966000Y-90004400D03*
X129966000Y-90504400D03*
X129966000Y-91004400D03*
X129966000Y-91504400D03*
X129966000Y-92004400D03*
X129966000Y-92504400D03*
X129966000Y-93004400D03*
X129966000Y-93504400D03*
X129966000Y-94004400D03*
X129966000Y-94504400D03*
X129966000Y-95004400D03*
D52*
X131891000Y-96929400D03*
X132391000Y-96929400D03*
X132891000Y-96929400D03*
X133391000Y-96929400D03*
X133891000Y-96929400D03*
X134391000Y-96929400D03*
X134891000Y-96929400D03*
X135391000Y-96929400D03*
X135891000Y-96929400D03*
X136391000Y-96929400D03*
X136891000Y-96929400D03*
X137391000Y-96929400D03*
X137891000Y-96929400D03*
X138391000Y-96929400D03*
X138891000Y-96929400D03*
X139391000Y-96929400D03*
%TD*%
D53*
%TO.C,Q1*%
X137112800Y-67503000D03*
X137112800Y-69403000D03*
X140112800Y-68453000D03*
%TD*%
D23*
%TO.C,D1*%
X154025600Y-62449600D03*
X154025600Y-64499600D03*
%TD*%
D29*
%TO.C,R2*%
X184409000Y-76285600D03*
X184409000Y-74285600D03*
%TD*%
D22*
%TO.C,R11*%
X114795900Y-85829160D03*
X113600900Y-85829160D03*
%TD*%
D54*
%TO.C,SW2*%
X189185400Y-69784400D03*
X195685400Y-69784400D03*
X189185400Y-74284400D03*
X195685400Y-74284400D03*
%TD*%
D33*
%TO.C,C8*%
X113630900Y-90267320D03*
X114765900Y-90267320D03*
%TD*%
D39*
%TO.C,C6*%
X148356400Y-89027000D03*
X148356400Y-90162000D03*
%TD*%
D55*
%TO.C,SW1*%
X192511600Y-90221800D03*
X192511600Y-85521800D03*
X192451600Y-80821800D03*
%TD*%
D56*
%TO.C,U4*%
X112674000Y-68972400D03*
X112674000Y-71272400D03*
D57*
X118974000Y-71272400D03*
D56*
X112674000Y-73572400D03*
%TD*%
D25*
%TO.C,REF\u002A\u002A*%
X96499600Y-120548400D03*
%TD*%
D17*
%TO.C,J16*%
X195331000Y-109397800D03*
D18*
X195331000Y-106857800D03*
X195331000Y-104317800D03*
X195331000Y-101777800D03*
X195331000Y-99237800D03*
X195331000Y-96697800D03*
%TD*%
D17*
%TO.C,J4*%
X151317800Y-120980200D03*
D18*
X151317800Y-118440200D03*
X153857800Y-120980200D03*
X153857800Y-118440200D03*
X156397800Y-120980200D03*
X156397800Y-118440200D03*
X158937800Y-120980200D03*
X158937800Y-118440200D03*
X161477800Y-120980200D03*
X161477800Y-118440200D03*
X164017800Y-120980200D03*
X164017800Y-118440200D03*
X166557800Y-120980200D03*
X166557800Y-118440200D03*
X169097800Y-120980200D03*
X169097800Y-118440200D03*
%TD*%
D17*
%TO.C,J5*%
X148869400Y-74244200D03*
D18*
X148869400Y-71704200D03*
X151409400Y-74244200D03*
X151409400Y-71704200D03*
X153949400Y-74244200D03*
X153949400Y-71704200D03*
%TD*%
M02*
