%TF.GenerationSoftware,KiCad,Pcbnew,6.0.7-f9a2dced07~116~ubuntu20.04.1*%
%TF.CreationDate,2023-02-02T12:22:43+01:00*%
%TF.ProjectId,MoleNet_V5.2.2,4d6f6c65-4e65-4745-9f56-352e322e322e,1*%
%TF.SameCoordinates,Original*%
%TF.FileFunction,Paste,Top*%
%TF.FilePolarity,Positive*%
%FSLAX46Y46*%
G04 Gerber Fmt 4.6, Leading zero omitted, Abs format (unit mm)*
G04 Created by KiCad (PCBNEW 6.0.7-f9a2dced07~116~ubuntu20.04.1) date 2023-02-02 12:22:43*
%MOMM*%
%LPD*%
G01*
G04 APERTURE LIST*
G04 Aperture macros list*
%AMRoundRect*
0 Rectangle with rounded corners*
0 $1 Rounding radius*
0 $2 $3 $4 $5 $6 $7 $8 $9 X,Y pos of 4 corners*
0 Add a 4 corners polygon primitive as box body*
4,1,4,$2,$3,$4,$5,$6,$7,$8,$9,$2,$3,0*
0 Add four circle primitives for the rounded corners*
1,1,$1+$1,$2,$3*
1,1,$1+$1,$4,$5*
1,1,$1+$1,$6,$7*
1,1,$1+$1,$8,$9*
0 Add four rect primitives between the rounded corners*
20,1,$1+$1,$2,$3,$4,$5,0*
20,1,$1+$1,$4,$5,$6,$7,0*
20,1,$1+$1,$6,$7,$8,$9,0*
20,1,$1+$1,$8,$9,$2,$3,0*%
G04 Aperture macros list end*
%ADD10RoundRect,0.155000X0.155000X-0.212500X0.155000X0.212500X-0.155000X0.212500X-0.155000X-0.212500X0*%
%ADD11RoundRect,0.250000X-0.475000X0.337500X-0.475000X-0.337500X0.475000X-0.337500X0.475000X0.337500X0*%
%ADD12RoundRect,0.250000X-0.450000X0.350000X-0.450000X-0.350000X0.450000X-0.350000X0.450000X0.350000X0*%
%ADD13R,2.400000X2.000000*%
%ADD14RoundRect,0.155000X0.212500X0.155000X-0.212500X0.155000X-0.212500X-0.155000X0.212500X-0.155000X0*%
%ADD15RoundRect,0.160000X0.197500X0.160000X-0.197500X0.160000X-0.197500X-0.160000X0.197500X-0.160000X0*%
%ADD16RoundRect,0.250000X-0.450000X0.325000X-0.450000X-0.325000X0.450000X-0.325000X0.450000X0.325000X0*%
%ADD17RoundRect,0.250000X-0.475000X0.250000X-0.475000X-0.250000X0.475000X-0.250000X0.475000X0.250000X0*%
%ADD18RoundRect,0.250000X-0.350000X-0.450000X0.350000X-0.450000X0.350000X0.450000X-0.350000X0.450000X0*%
%ADD19RoundRect,0.250000X0.337500X0.475000X-0.337500X0.475000X-0.337500X-0.475000X0.337500X-0.475000X0*%
%ADD20RoundRect,0.250000X0.350000X-0.275000X0.350000X0.275000X-0.350000X0.275000X-0.350000X-0.275000X0*%
%ADD21RoundRect,0.250000X0.450000X-0.350000X0.450000X0.350000X-0.450000X0.350000X-0.450000X-0.350000X0*%
%ADD22RoundRect,0.250000X0.350000X0.450000X-0.350000X0.450000X-0.350000X-0.450000X0.350000X-0.450000X0*%
%ADD23RoundRect,0.155000X-0.212500X-0.155000X0.212500X-0.155000X0.212500X0.155000X-0.212500X0.155000X0*%
%ADD24R,2.000000X1.000000*%
%ADD25R,1.000000X1.000000*%
%ADD26R,2.200000X1.050000*%
%ADD27RoundRect,0.155000X-0.155000X0.212500X-0.155000X-0.212500X0.155000X-0.212500X0.155000X0.212500X0*%
%ADD28R,1.800000X1.000000*%
%ADD29RoundRect,0.150000X0.512500X0.150000X-0.512500X0.150000X-0.512500X-0.150000X0.512500X-0.150000X0*%
%ADD30R,1.100000X0.850000*%
%ADD31R,1.100000X0.750000*%
%ADD32R,1.000000X1.200000*%
%ADD33R,1.350000X1.900000*%
%ADD34R,1.800000X1.170000*%
%ADD35R,1.350000X1.550000*%
%ADD36RoundRect,0.150000X0.150000X-0.587500X0.150000X0.587500X-0.150000X0.587500X-0.150000X-0.587500X0*%
%ADD37RoundRect,0.075000X0.700000X0.075000X-0.700000X0.075000X-0.700000X-0.075000X0.700000X-0.075000X0*%
%ADD38RoundRect,0.075000X0.075000X0.700000X-0.075000X0.700000X-0.075000X-0.700000X0.075000X-0.700000X0*%
%ADD39R,1.900000X0.800000*%
%ADD40R,2.000000X1.500000*%
%ADD41R,2.000000X3.800000*%
G04 APERTURE END LIST*
D10*
%TO.C,C10*%
X147530700Y-95772100D03*
X147530700Y-94637100D03*
%TD*%
D11*
%TO.C,C12*%
X118110000Y-76403200D03*
X118110000Y-78478200D03*
%TD*%
D12*
%TO.C,R3*%
X154063700Y-66437000D03*
X154063700Y-68437000D03*
%TD*%
D13*
%TO.C,Y1*%
X151282400Y-92655000D03*
X151282400Y-88955000D03*
%TD*%
D11*
%TO.C,C17*%
X125658800Y-80877500D03*
X125658800Y-82952500D03*
%TD*%
D14*
%TO.C,C2*%
X132139500Y-83134200D03*
X131004500Y-83134200D03*
%TD*%
D15*
%TO.C,R9*%
X114795900Y-92481400D03*
X113600900Y-92481400D03*
%TD*%
D16*
%TO.C,D2*%
X151434800Y-62449600D03*
X151434800Y-64499600D03*
%TD*%
D17*
%TO.C,C1*%
X184409000Y-69789000D03*
X184409000Y-71689000D03*
%TD*%
D12*
%TO.C,R5*%
X144830800Y-103241600D03*
X144830800Y-105241600D03*
%TD*%
D15*
%TO.C,R7*%
X114795900Y-94705480D03*
X113600900Y-94705480D03*
%TD*%
D18*
%TO.C,R1*%
X183316800Y-85521800D03*
X185316800Y-85521800D03*
%TD*%
D11*
%TO.C,C20*%
X109555200Y-68961000D03*
X109555200Y-71036000D03*
%TD*%
D19*
%TO.C,C22*%
X112666600Y-76428600D03*
X110591600Y-76428600D03*
%TD*%
D11*
%TO.C,C15*%
X125653800Y-76403200D03*
X125653800Y-78478200D03*
%TD*%
D19*
%TO.C,C18*%
X112666600Y-79375000D03*
X110591600Y-79375000D03*
%TD*%
D15*
%TO.C,R10*%
X114795900Y-88053240D03*
X113600900Y-88053240D03*
%TD*%
D11*
%TO.C,C16*%
X120629600Y-80877500D03*
X120629600Y-82952500D03*
%TD*%
%TO.C,C11*%
X115595400Y-76403200D03*
X115595400Y-78478200D03*
%TD*%
D20*
%TO.C,FB1*%
X115600400Y-83065000D03*
X115600400Y-80765000D03*
%TD*%
D11*
%TO.C,C14*%
X123139200Y-76403200D03*
X123139200Y-78478200D03*
%TD*%
D12*
%TO.C,R4*%
X151409400Y-66437000D03*
X151409400Y-68437000D03*
%TD*%
D21*
%TO.C,R12*%
X144000000Y-71400000D03*
X144000000Y-69400000D03*
%TD*%
D15*
%TO.C,R6*%
X146591700Y-92887800D03*
X145396700Y-92887800D03*
%TD*%
D16*
%TO.C,D4*%
X148844000Y-62449600D03*
X148844000Y-64499600D03*
%TD*%
D10*
%TO.C,C4*%
X148336000Y-92515500D03*
X148336000Y-91380500D03*
%TD*%
D22*
%TO.C,R13*%
X134186600Y-71526400D03*
X132186600Y-71526400D03*
%TD*%
D23*
%TO.C,C9*%
X113630900Y-96919560D03*
X114765900Y-96919560D03*
%TD*%
D24*
%TO.C,U3*%
X173462600Y-100289600D03*
X173462600Y-102289600D03*
X173462600Y-104289600D03*
X173462600Y-106289600D03*
X173462600Y-108289600D03*
X173462600Y-110289600D03*
X173462600Y-112289600D03*
X173462600Y-114289600D03*
X189462600Y-114289600D03*
X189462600Y-112289600D03*
X189462600Y-110289600D03*
X189462600Y-108289600D03*
X189462600Y-106289600D03*
X189462600Y-104289600D03*
X189462600Y-102289600D03*
X189462600Y-100289600D03*
%TD*%
D25*
%TO.C,J6*%
X193577000Y-114300000D03*
D26*
X195077000Y-115775000D03*
D25*
X196577000Y-114300000D03*
D26*
X195077000Y-112825000D03*
%TD*%
D11*
%TO.C,C13*%
X120624600Y-76403200D03*
X120624600Y-78478200D03*
%TD*%
%TO.C,C19*%
X106558000Y-68935600D03*
X106558000Y-71010600D03*
%TD*%
D27*
%TO.C,C7*%
X147530700Y-96923100D03*
X147530700Y-98058100D03*
%TD*%
D28*
%TO.C,Y2*%
X149842100Y-97699200D03*
X149842100Y-95199200D03*
%TD*%
D29*
%TO.C,U2*%
X139039100Y-73416200D03*
X139039100Y-72466200D03*
X139039100Y-71516200D03*
X136764100Y-71516200D03*
X136764100Y-73416200D03*
%TD*%
D22*
%TO.C,R14*%
X129884600Y-71526400D03*
X127884600Y-71526400D03*
%TD*%
D11*
%TO.C,C5*%
X144830800Y-108080900D03*
X144830800Y-110155900D03*
%TD*%
D30*
%TO.C,J11*%
X98237800Y-94359400D03*
X98237800Y-93259400D03*
X98237800Y-92159400D03*
X98237800Y-91059400D03*
X98237800Y-89959400D03*
X98237800Y-88859400D03*
X98237800Y-87759400D03*
D31*
X98237800Y-86709400D03*
D32*
X104387800Y-96994400D03*
X108087800Y-96994400D03*
D33*
X109062800Y-87524400D03*
D34*
X98587800Y-85499400D03*
D35*
X98362800Y-96819400D03*
D33*
X109062800Y-93494400D03*
%TD*%
D12*
%TO.C,R8*%
X148755100Y-66437000D03*
X148755100Y-68437000D03*
%TD*%
D36*
%TO.C,D5*%
X128920200Y-76197700D03*
X130820200Y-76197700D03*
X129870200Y-74322700D03*
%TD*%
D37*
%TO.C,U1*%
X141316000Y-95004400D03*
X141316000Y-94504400D03*
X141316000Y-94004400D03*
X141316000Y-93504400D03*
X141316000Y-93004400D03*
X141316000Y-92504400D03*
X141316000Y-92004400D03*
X141316000Y-91504400D03*
X141316000Y-91004400D03*
X141316000Y-90504400D03*
X141316000Y-90004400D03*
X141316000Y-89504400D03*
X141316000Y-89004400D03*
X141316000Y-88504400D03*
X141316000Y-88004400D03*
X141316000Y-87504400D03*
D38*
X139391000Y-85579400D03*
X138891000Y-85579400D03*
X138391000Y-85579400D03*
X137891000Y-85579400D03*
X137391000Y-85579400D03*
X136891000Y-85579400D03*
X136391000Y-85579400D03*
X135891000Y-85579400D03*
X135391000Y-85579400D03*
X134891000Y-85579400D03*
X134391000Y-85579400D03*
X133891000Y-85579400D03*
X133391000Y-85579400D03*
X132891000Y-85579400D03*
X132391000Y-85579400D03*
X131891000Y-85579400D03*
D37*
X129966000Y-87504400D03*
X129966000Y-88004400D03*
X129966000Y-88504400D03*
X129966000Y-89004400D03*
X129966000Y-89504400D03*
X129966000Y-90004400D03*
X129966000Y-90504400D03*
X129966000Y-91004400D03*
X129966000Y-91504400D03*
X129966000Y-92004400D03*
X129966000Y-92504400D03*
X129966000Y-93004400D03*
X129966000Y-93504400D03*
X129966000Y-94004400D03*
X129966000Y-94504400D03*
X129966000Y-95004400D03*
D38*
X131891000Y-96929400D03*
X132391000Y-96929400D03*
X132891000Y-96929400D03*
X133391000Y-96929400D03*
X133891000Y-96929400D03*
X134391000Y-96929400D03*
X134891000Y-96929400D03*
X135391000Y-96929400D03*
X135891000Y-96929400D03*
X136391000Y-96929400D03*
X136891000Y-96929400D03*
X137391000Y-96929400D03*
X137891000Y-96929400D03*
X138391000Y-96929400D03*
X138891000Y-96929400D03*
X139391000Y-96929400D03*
%TD*%
D39*
%TO.C,Q1*%
X137112800Y-67503000D03*
X137112800Y-69403000D03*
X140112800Y-68453000D03*
%TD*%
D16*
%TO.C,D1*%
X154025600Y-62449600D03*
X154025600Y-64499600D03*
%TD*%
D21*
%TO.C,R2*%
X184409000Y-76285600D03*
X184409000Y-74285600D03*
%TD*%
D15*
%TO.C,R11*%
X114795900Y-85829160D03*
X113600900Y-85829160D03*
%TD*%
D23*
%TO.C,C8*%
X113630900Y-90267320D03*
X114765900Y-90267320D03*
%TD*%
D27*
%TO.C,C6*%
X148356400Y-89027000D03*
X148356400Y-90162000D03*
%TD*%
D40*
%TO.C,U4*%
X112674000Y-68972400D03*
X112674000Y-71272400D03*
D41*
X118974000Y-71272400D03*
D40*
X112674000Y-73572400D03*
%TD*%
M02*
