M48
; DRILL file {KiCad 6.0.7-f9a2dced07~116~ubuntu20.04.1} date Do 02 Feb 2023 12:23:19 CET
; FORMAT={-:-/ absolute / metric / decimal}
; #@! TF.CreationDate,2023-02-02T12:23:19+01:00
; #@! TF.GenerationSoftware,Kicad,Pcbnew,6.0.7-f9a2dced07~116~ubuntu20.04.1
; #@! TF.FileFunction,Plated,1,2,PTH
FMAT,2
METRIC
; #@! TA.AperFunction,Plated,PTH,ViaDrill
T1C0.400
; #@! TA.AperFunction,Plated,PTH,ComponentDrill
T2C1.000
; #@! TA.AperFunction,Plated,PTH,ComponentDrill
T3C1.100
; #@! TA.AperFunction,Plated,PTH,ComponentDrill
T4C1.200
; #@! TA.AperFunction,Plated,PTH,ComponentDrill
T5C1.500
; #@! TA.AperFunction,Plated,PTH,ComponentDrill
T6C2.000
%
G90
G05
T1
X97.206Y-81.077
X98.222Y-103.962
X99.06Y-78.029
X99.871Y-98.704
X100.076Y-100.914
X100.863Y-81.102
X101.168Y-64.643
X101.879Y-103.988
X103.022Y-61.595
X104.343Y-83.744
X104.826Y-64.668
X111.303Y-87.3
X111.9Y-91.61
X111.92Y-89.05
X115.697Y-93.523
X115.91Y-89.2
X116.332Y-85.75
X116.434Y-88.062
X117.78Y-81.305
X119.675Y-95.65
X119.725Y-104.225
X121.412Y-85.319
X124.46Y-93.345
X125.603Y-94.666
X125.654Y-74.117
X126.136Y-104.902
X127.5Y-89.8
X127.584Y-81.305
X127.991Y-101.854
X128.225Y-86.325
X128.803Y-77.775
X128.854Y-82.169
X129.794Y-97.257
X129.794Y-104.927
X130.505Y-102.641
X130.658Y-81.442
X131.284Y-102.015
X132.032Y-101.352
X132.232Y-76.784
X132.4Y-91.1
X132.898Y-100.852
X133.457Y-76.982
X133.842Y-100.523
X134.01Y-111.125
X134.366Y-74.117
X134.874Y-77.048
X134.874Y-110.388
X135.2Y-88.05
X135.89Y-111.43
X136.095Y-80.848
X136.325Y-94.8
X136.83Y-78.501
X136.906Y-110.592
X137.363Y-64.465
X137.615Y-79.273
X137.693Y-102.743
X138.049Y-111.481
X138.151Y-100.99
X138.455Y-80.035
X139.116Y-104.699
X139.125Y-91.75
X139.167Y-81.001
X139.217Y-61.417
X139.537Y-111.455
X139.852Y-78.74
X140.225Y-82.125
X140.7Y-84.3
X140.716Y-76.632
X141.021Y-64.491
X142.875Y-79.05
X143.15Y-87.175
X145.11Y-91.897
X145.44Y-98.222
X145.865Y-91.039
X146.155Y-90.082
X146.2Y-81.775
X146.685Y-117.856
X147.015Y-89.205
X147.575Y-80.825
X148.361Y-79.553
X148.946Y-78.562
X149.775Y-83.525
X159.95Y-108.55
X161.976Y-77.419
X168.986Y-113.614
X169.774Y-114.732
X172.085Y-83.845
X173.939Y-80.797
X175.743Y-83.871
X176.682Y-95.402
X178.537Y-92.354
X179.982Y-108.355
X180.34Y-95.428
X180.569Y-85.547
X181.331Y-121.59
X181.837Y-105.307
X183.185Y-118.542
X183.64Y-108.38
X184.988Y-121.615
T2
X103.632Y-110.129
X103.632Y-112.669
X103.683Y-118.44
X103.683Y-120.98
X106.172Y-110.129
X106.172Y-112.669
X106.223Y-118.44
X106.223Y-120.98
X108.712Y-110.129
X108.712Y-112.669
X108.763Y-118.44
X108.763Y-120.98
X109.53Y-62.078
X111.252Y-110.129
X111.252Y-112.669
X111.303Y-118.44
X111.303Y-120.98
X112.07Y-62.078
X113.792Y-110.129
X113.792Y-112.669
X113.843Y-118.44
X113.843Y-120.98
X114.61Y-62.078
X116.332Y-110.129
X116.332Y-112.669
X117.15Y-62.078
X118.872Y-110.129
X118.872Y-112.669
X121.261Y-118.44
X121.261Y-120.98
X121.412Y-110.129
X121.412Y-112.669
X123.801Y-118.44
X123.801Y-120.98
X123.952Y-110.129
X123.952Y-112.669
X126.341Y-118.44
X126.341Y-120.98
X126.492Y-110.129
X126.492Y-112.669
X128.881Y-118.44
X128.881Y-120.98
X129.032Y-110.129
X129.032Y-112.669
X136.289Y-118.44
X136.289Y-120.98
X138.829Y-118.44
X138.829Y-120.98
X141.369Y-118.44
X141.369Y-120.98
X143.909Y-118.44
X143.909Y-120.98
X148.869Y-71.704
X148.869Y-74.244
X151.318Y-118.44
X151.318Y-120.98
X151.409Y-71.704
X151.409Y-74.244
X153.858Y-118.44
X153.858Y-120.98
X153.949Y-71.704
X153.949Y-74.244
X156.398Y-118.44
X156.398Y-120.98
X158.693Y-82.379
X158.693Y-84.919
X158.693Y-87.459
X158.693Y-89.999
X158.693Y-92.539
X158.693Y-95.079
X158.693Y-97.619
X158.693Y-100.159
X158.938Y-118.44
X158.938Y-120.98
X161.233Y-82.379
X161.233Y-84.919
X161.233Y-87.459
X161.233Y-89.999
X161.233Y-92.539
X161.233Y-95.079
X161.233Y-97.619
X161.233Y-100.159
X161.478Y-118.44
X161.478Y-120.98
X164.018Y-118.44
X164.018Y-120.98
X165.202Y-64.144
X165.202Y-66.684
X166.141Y-103.49
X166.141Y-106.03
X166.141Y-108.57
X166.141Y-111.11
X166.558Y-118.44
X166.558Y-120.98
X167.742Y-64.144
X167.742Y-66.684
X168.681Y-103.49
X168.681Y-106.03
X168.681Y-108.57
X168.681Y-111.11
X169.098Y-118.44
X169.098Y-120.98
X170.282Y-64.144
X170.282Y-66.684
X172.822Y-64.144
X172.822Y-66.684
X175.362Y-64.144
X175.362Y-66.684
X195.331Y-96.698
X195.331Y-99.238
X195.331Y-101.778
X195.331Y-104.318
X195.331Y-106.858
X195.331Y-109.398
T3
X141.661Y-102.362
X141.661Y-112.522
X189.185Y-69.784
X189.185Y-74.284
X195.685Y-69.784
X195.685Y-74.284
T4
X100.259Y-68.936
X100.259Y-72.436
X124.343Y-64.77
X127.843Y-64.77
X131.343Y-64.77
T5
X192.452Y-80.822
X192.512Y-85.522
X192.512Y-90.222
T6
X149.087Y-104.838
X154.087Y-104.838
T0
M30
